<svg xmlns="http://www.w3.org/2000/svg" viewBox="0 0 383.7 373.42"><title>Asset 9</title><g id="f937022d-54a8-4870-80a4-8b396035d18b" data-name="Layer 2"><g id="10e26bcc-acea-4d20-9874-82998654a5e4" data-name="bg"><path d="M205.09,184.24,47.3,285.42s140.09,153.56,286.77,0Z" fill="#20044f"/><path d="M350.3,125.11s66,82.43,0,140.66l-80-24.5Z" fill="#20044f"/><polygon points="41.87 269.26 91.67 246.39 42.44 229.11 41.87 269.26" fill="#20044f"/><g id="08608e4b-f6d7-4985-8adc-1e92b660a504" data-name="ciruit-line"><g id="66d6c34a-3501-4c44-8110-90ffac1c7a88" data-name="builing-0"><polyline id="1e556926-b042-49b5-8611-b78d09dfa984" data-name="structure" points="22.6 232.39 22.6 142.87 79.77 142.87 100.12 142.87 100.12 246.39" fill="#20044f" stroke="#ff0062" stroke-miterlimit="10" stroke-width="2"/><g id="06ae9677-22bf-40f3-bb51-867ecc5037f0" data-name="window/circuit-0"><polyline points="39.74 141.41 39.74 162.53 54.75 162.53" fill="none" stroke="#ff0062" stroke-miterlimit="10" stroke-width="2"/><ellipse cx="54.75" cy="162.53" rx="4.46" ry="4.42" fill="#ff0062"/></g><g id="a5bb0d65-7941-42c1-90ab-2c0205bf1bc0" data-name="L-window/circuit-1"><polyline points="99.25 178.17 77.92 178.17 77.92 163.32" fill="none" stroke="#ff0062" stroke-miterlimit="10" stroke-width="2"/><ellipse cx="77.92" cy="163.32" rx="4.46" ry="4.42" fill="#ff0062"/></g><g id="7774c0e3-be43-4355-99ad-1f2f735ce8ab" data-name="L-window/circuit-2"><polyline points="55.95 194.92 66.13 194.92 66.13 180.06" fill="none" stroke="#ff0062" stroke-miterlimit="10" stroke-width="2"/><ellipse cx="66.13" cy="180.06" rx="4.46" ry="4.42" fill="#ff0062"/><ellipse cx="54.75" cy="194.92" rx="4.46" ry="4.42" fill="#ff0062"/></g><g id="3a160914-3ba1-4d71-965a-9a13c5ee07a3" data-name="L-window/circuit-3"><polyline points="79.11 212.88 54.43 212.88 54.43 238.78" fill="none" stroke="#ff0062" stroke-miterlimit="10" stroke-width="2"/><ellipse cx="54.43" cy="235.47" rx="4.46" ry="4.42" fill="#ff0062"/><ellipse cx="80.98" cy="212.51" rx="4.46" ry="4.42" fill="#ff0062"/><ellipse cx="54.43" cy="212.51" rx="4.46" ry="4.42" fill="#ff0062"/></g><g id="e504853f-98dd-4cf2-aea8-bfed4ed8a447" data-name="L-window/circuit-4"><line x1="26.85" y1="180.06" x2="55.09" y2="180.06" fill="#190c6f" stroke="#ff0062" stroke-miterlimit="10" stroke-width="2"/><ellipse cx="54.6" cy="180.06" rx="4.46" ry="4.42" fill="#ff0062"/></g><g id="91289471-fb7c-4a4e-8fbf-1f391826163c" data-name="L-window/circuit-5"><line x1="98.46" y1="195.29" x2="78.35" y2="195.29" fill="#190c6f" stroke="#ff0062" stroke-miterlimit="10" stroke-width="2"/><ellipse cx="78.35" cy="195.29" rx="4.46" ry="4.42" fill="#ff0062"/></g><g id="d68bc7a1-35aa-4905-bfbd-fc07f0dcf3a6" data-name="L-window/circuit-6"><line x1="66.31" y1="163.92" x2="66.31" y2="144.44" fill="#190c6f" stroke="#ff0062" stroke-miterlimit="10" stroke-width="2"/><ellipse cx="66.31" cy="162.96" rx="4.46" ry="4.42" fill="#ff0062"/></g></g><g id="f71acadf-311b-488d-a41f-61c1118508b7" data-name="building-1"><polyline points="188.7 188.17 188.7 131.06 177.03 131.06 177.03 102.26 149.56 75.08 122.1 102.26 122.1 131.06 110.43 131.06 110.43 229.91" fill="#20044f" stroke="#ff0062" stroke-miterlimit="10" stroke-width="2"/><g id="09295620-308b-4ba1-a241-50e6d1c06151" data-name="window/circuit-0 copy"><polyline points="111.28 199.13 123.68 199.13 123.68 184.27" fill="none" stroke="#ff0062" stroke-miterlimit="10" stroke-width="2"/><ellipse cx="123.68" cy="187.58" rx="4.46" ry="4.42" fill="#ff0062"/></g><g id="e68629bf-a135-43ea-9f20-d84bcce73528" data-name="window/circuit-0 copy 3"><polyline points="121.32 117.39 133.73 117.39 133.73 102.53" fill="none" stroke="#d63ee5" stroke-miterlimit="10" stroke-width="2"/><polyline points="121.32 117.39 133.73 117.39 133.73 105.85" fill="none" stroke="#ff0062" stroke-miterlimit="10" stroke-width="2"/><ellipse cx="133.73" cy="105.85" rx="4.46" ry="4.42" fill="#ff0062"/><line x1="133.73" y1="126.12" x2="133.73" y2="117.39" fill="none" stroke="#ff0062" stroke-miterlimit="10" stroke-width="2"/><ellipse cx="133.73" cy="127.65" rx="4.46" ry="4.42" fill="#ff0062"/></g><g id="b2f81fff-9ef9-4153-9cd3-8db30888eecf" data-name="window/circuit-0 copy 2"><polyline points="110.08 174.63 122.42 174.63 134.76 174.63 134.76 185.07" fill="none" stroke="#ff0062" stroke-miterlimit="10" stroke-width="2"/><ellipse cx="134.76" cy="187.28" rx="4.46" ry="4.42" fill="#ff0062"/><line x1="122.42" y1="156.97" x2="122.42" y2="174.63" fill="none" stroke="#ff0062" stroke-miterlimit="10" stroke-width="2"/><ellipse cx="122.33" cy="157.77" rx="4.46" ry="4.42" fill="#ff0062"/></g><g id="99e7e27e-0ffe-46c0-aee9-74b14e3ba77c" data-name="L-window/circuit-4 copy"><line x1="142.33" y1="160.02" x2="142.33" y2="141.22" fill="none" stroke="#ff0062" stroke-miterlimit="10" stroke-width="2"/><ellipse cx="142.33" cy="142.33" rx="4.46" ry="4.42" fill="#ff0062"/><ellipse cx="142.33" cy="158.36" rx="4.46" ry="4.42" fill="#ff0062"/></g><g id="5d01a41b-3f5e-4073-a800-5d6bd0bf037e" data-name="L-window/circuit-4 copy 4"><line x1="153.95" y1="141.66" x2="172.94" y2="141.66" fill="none" stroke="#ff0062" stroke-miterlimit="10" stroke-width="2"/><ellipse cx="171.82" cy="141.66" rx="4.46" ry="4.42" fill="#ff0062"/><ellipse cx="155.62" cy="141.66" rx="4.46" ry="4.42" fill="#ff0062"/></g><g id="e17f119d-9d54-4a6a-bfdf-ef84ffab0ebf" data-name="L-window/circuit-4 copy 2"><line x1="142.33" y1="205.54" x2="142.33" y2="178.11" fill="none" stroke="#ff0062" stroke-miterlimit="10" stroke-width="2"/><ellipse cx="142.33" cy="174.6" rx="4.46" ry="4.42" fill="#ff0062"/></g><g id="b6f6e8e0-fb8f-4727-b0f7-2c169523f751" data-name="L-window/circuit-4 copy 3"><line x1="111.31" y1="142.33" x2="122.5" y2="142.33" fill="none" stroke="#ff0062" stroke-miterlimit="10" stroke-width="2"/><ellipse cx="122.01" cy="142.33" rx="4.46" ry="4.42" fill="#ff0062"/></g><g id="6c416863-8773-4c72-8087-4e788bf43d35" data-name="L-window/circuit-0"><polyline points="180.21 158.34 155.53 158.34 155.53 176.51" fill="none" stroke="#ff0062" stroke-miterlimit="10" stroke-width="2"/><ellipse cx="155.53" cy="174.3" rx="4.46" ry="4.42" fill="#ff0062"/><ellipse cx="178.72" cy="157.97" rx="4.46" ry="4.42" fill="#ff0062"/><ellipse cx="155.53" cy="157.97" rx="4.46" ry="4.42" fill="#ff0062"/></g><g id="9664622a-0529-4425-b8ed-277cb20eba1f" data-name="L-window/circuit-0 copy"><polyline points="176.86 126.44 155.53 126.44 155.53 108.27" fill="none" stroke="#ff0062" stroke-miterlimit="10" stroke-width="2"/><ellipse cx="155.62" cy="105.85" rx="4.46" ry="4.42" fill="#ff0062"/><ellipse cx="155.53" cy="126.81" rx="4.46" ry="4.42" fill="#ff0062"/></g></g><g id="585a2eb3-deb0-4632-9216-2b7153fb3f0d" data-name="buildng-2"><polyline points="205.08 180.52 205.08 54.45 249.07 78.75 249.07 119.71 272.62 132.97 272.62 229.27" fill="#20044f" stroke="#ff0062" stroke-miterlimit="10" stroke-width="2"/><g id="543c6e9b-06a9-4d34-9f68-b8c3dffb4311" data-name="Layer 33"><polyline points="227.24 67.37 227.24 103.84 227.24 121.11" fill="#190c6f" stroke="#ff0062" stroke-miterlimit="10" stroke-width="2"/><line x1="239.52" y1="103.84" x2="227.24" y2="103.84" fill="#190c6f" stroke="#ff0062" stroke-miterlimit="10" stroke-width="2"/><line x1="227.24" y1="88.48" x2="214.95" y2="88.48" fill="#190c6f" stroke="#ff0062" stroke-miterlimit="10" stroke-width="2"/><ellipse cx="227.24" cy="120.53" rx="4.46" ry="4.42" fill="#ff0062"/><ellipse cx="237.29" cy="103.84" rx="4.46" ry="4.42" fill="#ff0062"/><ellipse cx="217.18" cy="88.48" rx="4.46" ry="4.42" fill="#ff0062"/></g><g id="6585a56d-e780-4fc9-a1ed-b7c2bbdc952c" data-name="L-window/circuit-4 copy 5"><line x1="237.29" y1="72.85" x2="237.29" y2="88.34" fill="#190c6f" stroke="#ff0062" stroke-miterlimit="10" stroke-width="2"/><ellipse cx="237.29" cy="88.85" rx="4.46" ry="4.42" fill="#ff0062"/></g><g id="3bc15377-ca1d-46e4-86b5-71a8f9550fa1" data-name="L-window/circuit-4 copy 8"><line x1="257.54" y1="124.21" x2="257.54" y2="136.38" fill="#190c6f" stroke="#ff0062" stroke-miterlimit="10" stroke-width="2"/><ellipse cx="257.54" cy="134.9" rx="4.46" ry="4.42" fill="#ff0062"/></g><g id="5406d7f8-8cc2-453a-990a-475476cbede7" data-name="L-window/circuit-0 copy 2"><polyline points="205.16 163.79 226.5 163.79 226.5 175.34" fill="none" stroke="#ff0062" stroke-miterlimit="10" stroke-width="2"/><ellipse cx="226.5" cy="176.23" rx="4.46" ry="4.42" fill="#ff0062"/><ellipse cx="226.5" cy="163.42" rx="4.46" ry="4.42" fill="#ff0062"/></g><g id="77484d07-c297-4bf8-ba39-305e9602fb44" data-name="L-window/circuit-4 copy 7"><line x1="237.29" y1="163.33" x2="237.29" y2="137.91" fill="#190c6f" stroke="#ff0062" stroke-miterlimit="10" stroke-width="2"/><ellipse cx="237.29" cy="135.06" rx="4.46" ry="4.42" fill="#ff0062"/><ellipse cx="237.29" cy="163.42" rx="4.46" ry="4.42" fill="#ff0062"/><line x1="223.06" y1="149.24" x2="248.75" y2="149.24" fill="#190c6f" stroke="#ff0062" stroke-miterlimit="10" stroke-width="2"/><ellipse cx="247.44" cy="149.24" rx="4.46" ry="4.42" fill="#ff0062"/><ellipse cx="227.24" cy="149.24" rx="4.46" ry="4.42" fill="#ff0062"/></g><g id="ec7650af-0f1f-41c0-aed9-ed080c7dfbb5" data-name="L-window/circuit-4 copy 6"><line x1="204.05" y1="103.44" x2="217.46" y2="103.44" fill="#190c6f" stroke="#ff0062" stroke-miterlimit="10" stroke-width="2"/><ellipse cx="217.18" cy="103.44" rx="4.46" ry="4.42" fill="#ff0062"/></g><g id="f0c6d9f3-fc04-41ea-91dc-3d056ac5474d" data-name="window/circuit-0 copy 6"><polyline points="260.34 182.2 247.94 182.2 247.94 167.35" fill="none" stroke="#d63ee5" stroke-miterlimit="10" stroke-width="2"/><polyline points="272.62 182.2 247.94 182.2 247.94 170.66" fill="none" stroke="#ff0062" stroke-miterlimit="10" stroke-width="2"/><ellipse cx="247.94" cy="170.66" rx="4.46" ry="4.42" fill="#ff0062"/><line x1="247.94" y1="190.93" x2="247.94" y2="182.2" fill="#190c6f" stroke="#ff0062" stroke-miterlimit="10" stroke-width="2"/><line x1="259.96" y1="200.86" x2="259.96" y2="182.12" fill="none" stroke="#ff0062" stroke-miterlimit="10" stroke-width="2"/><ellipse cx="247.94" cy="190.47" rx="4.46" ry="4.42" fill="#ff0062"/><ellipse cx="259.96" cy="198.86" rx="4.46" ry="4.42" fill="#ff0062"/></g><g id="62201a1d-da7c-4519-a6a6-d6da67621a91" data-name="window/circuit-0 copy 4"><polyline points="204.29 120.53 216.69 120.53 216.69 149.24" fill="none" stroke="#ff0062" stroke-miterlimit="10" stroke-width="2"/><ellipse cx="216.69" cy="135.06" rx="4.46" ry="4.42" fill="#ff0062"/><ellipse cx="216.69" cy="148.97" rx="4.46" ry="4.42" fill="#ff0062"/></g><g id="40510149-de96-4504-8f18-28ce5487501a" data-name="window/circuit-0 copy 5"><polyline points="273.48 163.77 257.72 163.77 257.72 148.14" fill="none" stroke="#ff0062" stroke-miterlimit="10" stroke-width="2"/><ellipse cx="257.72" cy="149.24" rx="4.46" ry="4.42" fill="#ff0062"/></g></g><g id="2e939e4e-e746-491e-a07e-ab74cd4da4f9" data-name="building-3"><polyline points="284.29 240.38 284.29 138.65 307.54 130.66 351.13 130.66" fill="#20044f" stroke="#ff0062" stroke-miterlimit="10" stroke-width="2"/><g id="522cd05f-df4a-47b6-8812-52654eed2489" data-name="L-window/circuit-4 copy 10"><line x1="364.42" y1="170.12" x2="342.08" y2="170.12" fill="#190c6f" stroke="#ff0062" stroke-miterlimit="10" stroke-width="2"/><ellipse cx="342.64" cy="170.12" rx="4.46" ry="4.42" fill="#ff0062"/></g><g id="b528a0b0-ecdb-45cb-9c1f-69dd7c1012d1" data-name="L-window/circuit-4 copy 9"><line x1="295.22" y1="187.63" x2="295.22" y2="168.83" fill="#190c6f" stroke="#ff0062" stroke-miterlimit="10" stroke-width="2"/><ellipse cx="295.22" cy="169.95" rx="4.46" ry="4.42" fill="#ff0062"/><ellipse cx="295.22" cy="185.97" rx="4.46" ry="4.42" fill="#ff0062"/></g><g id="1391ccae-d5c7-4e94-b619-785118bf499b" data-name="window/circuit-0 copy 7"><polyline points="312.63 131.64 312.63 143.86 312.63 156.07 298.74 156.07" fill="none" stroke="#ff0062" stroke-miterlimit="10" stroke-width="2"/><ellipse cx="295.39" cy="156.07" rx="4.46" ry="4.42" fill="#ff0062"/><line x1="330.48" y1="143.86" x2="312.63" y2="143.86" fill="#190c6f" stroke="#ff0062" stroke-miterlimit="10" stroke-width="2"/><ellipse cx="329.67" cy="143.77" rx="4.46" ry="4.42" fill="#ff0062"/></g><g id="05acfd82-0380-44a6-b175-d9fc63fb334d" data-name="L-window/circuit-0 copy 3"><polyline points="328.14 234.06 328.14 219.57 309.79 219.57" fill="none" stroke="#ff0062" stroke-miterlimit="10" stroke-width="2"/><ellipse cx="312.02" cy="219.57" rx="4.46" ry="4.42" fill="#ff0062"/><ellipse cx="328.52" cy="233.7" rx="4.46" ry="4.42" fill="#ff0062"/><ellipse cx="328.52" cy="219.57" rx="4.46" ry="4.42" fill="#ff0062"/></g><g id="77ca6ca1-017f-47bd-b07a-45270c4b8943" data-name="L-window/circuit-4 copy 11"><line x1="341.2" y1="220.71" x2="341.2" y2="201.91" fill="#190c6f" stroke="#ff0062" stroke-miterlimit="10" stroke-width="2"/><ellipse cx="341.2" cy="200.1" rx="4.46" ry="4.42" fill="#ff0062"/><ellipse cx="341.2" cy="219.57" rx="4.46" ry="4.42" fill="#ff0062"/></g><g id="39700636-c311-4229-8daa-3c0f9784ac20" data-name="L-window/circuit-0 copy 4"><polyline points="312.63 169.82 312.63 185.97 330.99 185.97" fill="none" stroke="#ff0062" stroke-miterlimit="10" stroke-width="2"/><ellipse cx="328.75" cy="185.97" rx="4.46" ry="4.42" fill="#ff0062"/><ellipse cx="312.25" cy="170.19" rx="4.46" ry="4.42" fill="#ff0062"/><ellipse cx="312.25" cy="185.97" rx="4.46" ry="4.42" fill="#ff0062"/></g><g id="da29da6a-f8d6-4813-87bf-677ef7602713" data-name="Layer 47"><line x1="284.29" y1="200.1" x2="328.75" y2="200.1" fill="#190c6f" stroke="#ff0062" stroke-miterlimit="10" stroke-width="2"/><ellipse cx="328.52" cy="200.1" rx="4.46" ry="4.42" fill="#ff0062"/><ellipse cx="295.75" cy="200.1" rx="4.46" ry="4.42" fill="#ff0062"/></g></g></g><g id="48cd7464-b2ca-445b-8bc4-ba45c06d3c64" data-name="lower-circuitry"><g id="365c443c-11e6-44da-a2e7-beb8adf3f165" data-name="h"><polyline points="234.96 208.76 234.96 268.33 234.96 343.8" fill="#190c6f" stroke="#ff0062" stroke-miterlimit="10" stroke-width="3"/><polyline points="234.96 280.12 261.73 280.12 261.73 258.59" fill="none" stroke="#ff0062" stroke-miterlimit="10" stroke-width="3"/><line x1="261.73" y1="303.71" x2="261.73" y2="268.33" fill="#190c6f" stroke="#ff0062" stroke-miterlimit="10" stroke-width="3"/><circle cx="261.74" cy="257.95" r="5.9" fill="#ff0062"/><circle cx="261.74" cy="301.58" r="5.9" fill="#ff0062"/><circle cx="234.65" cy="279.99" r="5.9" fill="#ff0062"/></g><g id="b0cfca84-69ca-45db-bac6-db6b2c9045be" data-name="s"><polyline points="164.56 213.66 164.56 258.96 139.35 258.96 139.35 283.33 164.56 283.33 164.56 310.55 139.35 310.55 139.35 340.75" fill="none" stroke="#ff0062" stroke-miterlimit="10" stroke-width="3"/><circle cx="139.39" cy="259.65" r="5.9" fill="#ff0062"/><circle cx="164.56" cy="283.04" r="5.9" fill="#ff0062"/><circle cx="139.39" cy="310.15" r="5.9" fill="#ff0062"/></g><g id="7f1e8445-582f-4c12-bcf8-66e5e715c983" data-name="middle"><polyline points="197.24 193.55 197.24 218.11 197.24 348.35" fill="#190c6f" stroke="#ff0062" stroke-miterlimit="10" stroke-width="3"/><polyline points="197.24 238.16 209.19 238.16 209.19 231.35" fill="none" stroke="#ff0062" stroke-miterlimit="10" stroke-width="3"/><polyline points="197.24 251.4 184.8 251.4 184.8 259.65" fill="none" stroke="#ff0062" stroke-miterlimit="10" stroke-width="3"/><polyline points="197.24 270.81 209.98 270.81 209.98 279.7" fill="none" stroke="#ff0062" stroke-miterlimit="10" stroke-width="3"/><line x1="197.24" y1="291.8" x2="184.8" y2="291.8" fill="#190c6f" stroke="#ff0062" stroke-miterlimit="10" stroke-width="3"/><polyline points="197.24 309.18 209.34 309.18 209.19 299.55" fill="none" stroke="#ff0062" stroke-miterlimit="10" stroke-width="3"/><polyline points="197.24 315.08 184.8 315.08 184.8 324.51" fill="none" stroke="#ff0062" stroke-miterlimit="10" stroke-width="3"/><circle cx="209.19" cy="228.24" r="5.9" fill="#ff0062"/><circle cx="184.8" cy="260.31" r="5.9" fill="#ff0062"/><circle cx="209.98" cy="280.19" r="5.9" fill="#ff0062"/><circle cx="185.12" cy="292.2" r="5.9" fill="#ff0062"/><circle cx="209.49" cy="299.54" r="5.9" fill="#ff0062"/><circle cx="185.12" cy="324.51" r="5.9" fill="#ff0062"/></g><g id="49d80409-720b-4fde-aaa0-5a074f2e09db" data-name="Layer 62"><polyline points="296.36 256.77 296.36 280.88 283.76 280.88" fill="none" stroke="#ff0062" stroke-miterlimit="10" stroke-width="3"/><polyline points="91.76 315.73 91.76 278.12 106.58 278.12" fill="none" stroke="#ff0062" stroke-miterlimit="10" stroke-width="3"/><circle cx="286.8" cy="281.17" r="5.9" fill="#ff0062"/><circle cx="102.05" cy="277.15" r="5.9" fill="#ff0062"/></g></g></g><g id="519eb4ee-0ce3-4662-be04-0c69444c27ab" data-name="normal-shield-outline copy"><g id="d15c9bb0-2ee8-4157-a0b7-4c0c5035c9d5" data-name="glitches"><polygon points="17.97 183.9 5.9 183.9 5.9 177.75 19.65 177.75 17.97 183.9" fill="#ff0062"/><polygon points="19.14 196.66 7.08 196.66 7.08 190.5 20.83 190.5 19.14 196.66" fill="#ff0062"/><rect x="239.69" y="354.78" width="23.13" height="4.89" fill="#6beed4"/><rect y="185.53" width="3.44" height="3.44" fill="#ff0062"/><rect x="369.32" y="88.48" width="2.01" height="2.01" fill="#ff0062"/><rect x="327.82" y="100.97" width="2.37" height="2.37" fill="#ff0062"/><rect x="368.64" y="103.45" width="1.36" height="1.36" fill="#6beed4"/><rect x="298.34" y="67.96" width="2.37" height="2.37" fill="#ff0062"/><rect x="57.59" y="326.97" width="3.44" height="3.44" fill="#ff0062"/><rect x="54.05" y="317.53" width="3.44" height="3.44" fill="#ff0062"/><rect x="61.12" y="321.07" width="3.44" height="3.44" fill="#ff0062"/><rect x="79.94" y="82.82" width="5.9" height="5.9" transform="translate(168.65 2.87) rotate(90)" fill="#ff0062"/><rect x="219.09" y="35.65" width="5.9" height="5.9" transform="translate(260.64 -183.45) rotate(90)" fill="#ff0062"/><rect x="231.77" y="32.99" width="4.13" height="4.13" transform="translate(268.89 -198.78) rotate(90)" fill="#ff0062"/><rect x="74.49" y="18.45" width="5.9" height="5.9" transform="translate(98.84 -56.04) rotate(90)" fill="#ff0062"/><rect x="87.17" y="15.8" width="4.13" height="4.13" transform="translate(107.09 -71.37) rotate(90)" fill="#ff0062"/><rect x="334.16" y="334.68" width="5.9" height="5.9" transform="translate(674.74 0.52) rotate(90)" fill="#ff0062"/><rect x="346.84" y="332.03" width="4.13" height="4.13" transform="translate(683 -14.81) rotate(90)" fill="#ff0062"/><rect x="335.59" y="38.97" width="3.44" height="3.44" fill="#ff0062"/><rect x="332.05" y="29.53" width="3.44" height="3.44" fill="#ff0062"/><rect x="339.12" y="33.07" width="3.44" height="3.44" fill="#ff0062"/></g><g id="408f2724-f517-4877-a12f-d42408735d6e" data-name="main-structure"><polygon id="c31df724-b5a8-4d7b-bd30-3d48293d3061" data-name="bridge" points="60.8 284.3 39.45 271.22 196.93 166.03 353.93 270.74 332.61 283.84 196.94 193.36 60.8 284.3" fill="#20044f" stroke="#ff0062" stroke-miterlimit="10" stroke-width="2"/><path id="0d44d348-987b-4350-b6e3-4a968720f289" data-name="structure" d="M11.2,183.88h9.19v6.67H11.21A185,185,0,0,0,57.06,308.77h7.75a188,188,0,0,0,21.38,20.85H78.44A185.6,185.6,0,0,0,237.08,368v-4.62h17a186.66,186.66,0,0,0,102.7-82.2H348.3v-4.61h11.12a185.63,185.63,0,0,0,13.71-148.84h5.54a184.72,184.72,0,0,0-11.89-27.69H352.16V91.59H362a187.59,187.59,0,0,0-19.5-26.86H337A185.46,185.46,0,0,0,204.1,1V5.47c-2.38-.09-4.77-.16-7.17-.16a185,185,0,0,0-58.16,9.34V10.23a184.31,184.31,0,0,0-25.59,10.63h-7.75A186.44,186.44,0,0,0,70.21,44.11H78A185.5,185.5,0,0,0,11.2,183.88ZM60.42,80.44H75.56A162.27,162.27,0,0,1,134.23,38v4.78a160.37,160.37,0,0,1,62.7-12.7c2.59,0,5.16.07,7.72.19V25.48a162.06,162.06,0,0,1,18.83,2V24.35h17.59v7.08a160.77,160.77,0,0,1,49.39,23.8h6a162.3,162.3,0,0,1,54.83,68h-6a160.48,160.48,0,0,1,13,63.47c0,89-72.39,161.36-161.37,161.36A160.63,160.63,0,0,1,149,340.75h8.35a160.69,160.69,0,0,1-45.33-22.47H103.7A161.13,161.13,0,0,1,68.91,88.55H60.42Z" fill="#20044f" stroke="#ff0062" stroke-miterlimit="10" stroke-width="2"/><polyline points="107.95 277.15 116.91 277.15 116.91 246.82" fill="none" stroke="#ff0062" stroke-miterlimit="10" stroke-width="3"/></g></g></g></svg>