<?xml version="1.0" encoding="utf-8"?>
<!-- Generator: Adobe Illustrator 22.1.0, SVG Export Plug-In . SVG Version: 6.00 Build 0)  -->
<svg version="1.1" id="github-icon" xmlns="http://www.w3.org/2000/svg" xmlns:xlink="http://www.w3.org/1999/xlink" x="0px"
	 y="0px" viewBox="0 0 34 34" style="enable-background:new 0 0 34 34;" xml:space="preserve">
<style type="text/css">
	.st0{fill:#FF0062;}
</style>
<path id="base-iicon" class="st0" d="M22.8,33.8c-0.2,0.1-0.3,0.1-0.5,0.2c-0.4,0.1-0.9-0.1-1-0.5c0-0.1,0-0.2,0-0.4
	c0-1.3,0-2.5,0-3.8c0.2-1.5-0.2-2.9-1.1-4.1c0.6-0.1,1.2-0.2,1.8-0.3c3.7-0.9,5.6-3.3,5.9-7.3c0.2-2-0.3-4-1.5-5.5
	c-0.1-0.2-0.1-0.4,0-0.5c0.3-1.3,0.3-2.6-0.2-3.9c0-0.3-0.3-0.4-0.6-0.4c0,0,0,0,0,0c-1.1,0.1-2.1,0.4-3,1.1
	c-0.8,0.6-1.7,0.7-2.6,0.5c-2.2-0.5-4.5-0.4-6.7,0.2c-0.3,0-0.6,0-0.8-0.2c-1-0.7-2.1-1.1-3.3-1.4c-0.9-0.2-1-0.1-1.3,0.8
	c-0.3,1.1-0.3,2.3,0,3.5c0,0.2,0,0.4-0.1,0.6c-2.5,2.8-1.6,8.1,0.1,10.2c1.2,1.5,3,2.4,4.9,2.7l1,0.2c-0.3,0.8-0.5,1.5-0.8,2.2
	c-0.1,0.1-0.2,0.3-0.4,0.3c-1.7,0.8-3.7,0.1-4.5-1.5c-0.5-0.9-1.4-1.6-2.4-1.8c0,0-0.1,0-0.1,0l-0.9,0.2c0.2,0.2,0.3,0.5,0.5,0.7
	c0.9,0.6,1.6,1.4,1.9,2.4c0.5,1.4,1.9,2.4,3.4,2.4c0.8,0.1,1.6,0,2.4,0c0,1,0,2.1,0,3.2c0,0.6-0.6,0.8-1.3,0.6
	c-1.9-0.6-3.6-1.6-5.1-2.9c-5.4-4.8-7.5-10.9-5.7-18S7.1,1.7,14.1,0.3C23.8-1.6,33,5.7,33.9,15.7C34.7,23.6,30.2,31,22.8,33.8z
	 M13.7,25.1L13.7,25.1L13.7,25.1C13.8,25.1,13.8,25.2,13.7,25.1z M9.3,28.2c0.1,0.1,0.3,0.2,0.5,0.3c0.1,0,0.2-0.1,0.4-0.3
	C10,28.1,9.8,28.1,9.5,28C9.5,28,9.4,28.1,9.3,28.2z M10.7,28.5c0.1,0.1,0.2,0.2,0.3,0.2c0.1,0,0.2-0.2,0.3-0.3L10.9,28
	C10.8,28.2,10.7,28.3,10.7,28.5z M12.4,28c-0.1,0.1-0.3,0.2-0.4,0.3l0.3,0.4l0.4-0.4C12.6,28.2,12.5,28,12.4,28z M8.2,27.5
	c0.1,0.2,0.2,0.3,0.4,0.5c0.1-0.2,0.2-0.3,0.2-0.4c-0.1-0.1-0.2-0.3-0.4-0.4C8.4,27.2,8.2,27.4,8.2,27.5L8.2,27.5z"/>
</svg>
