<?xml version="1.0" encoding="utf-8"?>
<!-- Generator: Adobe Illustrator 22.1.0, SVG Export Plug-In . SVG Version: 6.00 Build 0)  -->
<svg version="1.1" id="github-icon" xmlns="http://www.w3.org/2000/svg" xmlns:xlink="http://www.w3.org/1999/xlink" x="0px"
	 y="0px" viewBox="0 0 34 34" style="enable-background:new 0 0 34 34;" xml:space="preserve">
<style type="text/css">
	.st0{fill:#FF0062;}
</style>
<g id="base-glitch">
	<path class="st0" d="M10.7,28.5c0.1,0.1,0.2,0.2,0.3,0.2c0.1,0,0.2-0.2,0.3-0.3L10.8,28C10.8,28.2,10.7,28.3,10.7,28.5z"/>
	<path class="st0" d="M13.7,25.1L13.7,25.1C13.8,25.2,13.7,25.1,13.7,25.1z"/>
	<path class="st0" d="M12,28.3l0.3,0.3l0.4-0.4c-0.1-0.1-0.2-0.3-0.3-0.2C12.2,28.1,12.1,28.2,12,28.3z"/>
	<path class="st0" d="M8.2,27.5c0.1,0.2,0.2,0.3,0.4,0.5c0.1-0.2,0.2-0.3,0.2-0.4c-0.1-0.1-0.2-0.3-0.4-0.4
		C8.4,27.2,8.2,27.4,8.2,27.5z"/>
	<polygon class="st0" points="8.2,27.5 8.2,27.5 8.2,27.5 	"/>
	<path class="st0" d="M9.3,28.2c0.1,0.1,0.3,0.2,0.5,0.3c0.1,0,0.2-0.1,0.4-0.3C10,28.1,9.7,28.1,9.5,28C9.5,28,9.4,28.1,9.3,28.2z"
		/>
	<path class="st0" d="M27.6,30.1h1.1c3.8-3.6,5.8-8.9,5.2-14.3c-0.2-1.9-0.6-3.7-1.4-5.4H31V7.5C27.3,2.1,20.8-1,14.1,0.3
		C11.5,0.8,9.3,1.7,7.4,3v2.7h-3c-1.7,2-3,4.4-3.7,7.4c-1.3,5-0.6,9.4,1.7,13.3h2.1v2.9c0.6,0.6,1.2,1.2,1.8,1.8
		c1.5,1.3,3.3,2.3,5.1,2.9c0.7,0.2,1.3,0,1.3-0.6c0-1.1,0-2.2,0-3.2c-0.8,0-1.6,0.1-2.4,0c-1.5,0-2.9-1-3.4-2.4
		c-0.4-1-1.1-1.8-1.9-2.4c-0.2-0.1-0.3-0.5-0.5-0.7l0.9-0.2c0,0,0.1,0,0.1,0c1,0.2,1.9,0.9,2.4,1.8c0.8,1.7,2.9,2.3,4.5,1.5
		c0.2-0.1,0.3-0.2,0.4-0.3c0.3-0.7,0.5-1.4,0.8-2.2l-1-0.2c-1.9-0.3-3.6-1.2-4.9-2.7c-1.7-2-2.5-7.4-0.1-10.2
		c0.1-0.2,0.2-0.4,0.1-0.6c-0.3-1.1-0.3-2.3,0-3.5c0.3-0.9,0.3-1,1.3-0.8c1.2,0.3,2.3,0.8,3.3,1.4c0.2,0.1,0.5,0.2,0.8,0.2
		c2.2-0.6,4.5-0.6,6.7-0.2c0.9,0.3,1.9,0.1,2.7-0.5c0.9-0.6,1.9-1,3-1.1c0,0,0,0,0,0c0.3,0,0.5,0.1,0.6,0.4c0.4,1.3,0.5,2.6,0.2,3.9
		c-0.1,0.2,0,0.4,0,0.5c1.2,1.6,1.8,3.6,1.6,5.5c-0.3,4-2.2,6.4-5.9,7.3c-0.6,0.1-1.1,0.2-1.8,0.3c0.9,1.2,1.3,2.6,1.1,4.1
		c0,1.3,0,2.5,0,3.8c0,0.1,0,0.2,0,0.4c0.1,0.4,0.6,0.7,1,0.5c0.2,0,0.3-0.1,0.5-0.2c1.8-0.7,3.3-1.6,4.7-2.7V30.1z"/>
</g>
<rect x="5.1" y="1.8" class="st0" width="1.2" height="1.2"/>
<rect x="3.1" y="2.8" class="st0" width="0.8" height="0.8"/>
<rect x="32.6" y="8.1" class="st0" width="1.4" height="1.4"/>
<rect x="28" y="31.2" class="st0" width="0.9" height="0.9"/>
<rect x="0.1" y="26.5" class="st0" width="1.9" height="1.9"/>
</svg>
