<?xml version="1.0" encoding="utf-8"?>
<!-- Generator: Adobe Illustrator 22.1.0, SVG Export Plug-In . SVG Version: 6.00 Build 0)  -->
<svg version="1.1" id="twitter-icon" xmlns="http://www.w3.org/2000/svg" xmlns:xlink="http://www.w3.org/1999/xlink" x="0px"
	 y="0px" viewBox="0 0 39.1 39.1" style="enable-background:new 0 0 39.1 39.1;" xml:space="preserve">
<style type="text/css">
	.st0{fill:#FF0062;}
</style>
<path id="base-glitch" class="st0" d="M32.3,32h2.3c2.8-3.4,4.5-7.7,4.5-12.4c0-5.4-2.2-10.2-5.7-13.8h-4.7V2.3
	C26,0.8,22.9,0,19.6,0c-2.2,0-4.3,0.4-6.3,1.1v2.1H9c-5.4,3.5-9,9.5-9,16.4c0,6.4,3,12,7.7,15.6h2.5v1.7c2.8,1.5,5.9,2.4,9.3,2.4
	c4.9,0,9.3-1.8,12.8-4.8V32z M28.3,15.1c0,0.2,0,0.4,0,0.6c0,7.1-5.7,12.8-12.8,12.8c-2.4,0-4.8-0.7-6.9-2c2.4,0.3,4.8-0.4,6.7-1.9
	c-1.9,0-3.6-1.3-4.2-3.1c0.7,0.1,1.3,0.1,2-0.1C11,20.9,9.5,19.1,9.5,17c0,0,0,0,0-0.1c0.6,0.3,1.3,0.5,2,0.6c-2-1.3-2.6-3.9-1.4-6
	c2.3,2.8,5.7,4.5,9.3,4.7c-0.6-2.4,0.9-4.9,3.4-5.4c1.6-0.4,3.2,0.1,4.3,1.3c1-0.2,2-0.6,2.9-1.1c-0.3,1-1.1,1.9-2,2.5
	c0.9-0.1,1.8-0.3,2.6-0.7C29.9,13.7,29.2,14.5,28.3,15.1z"/>
<rect x="7.4" y="0.3" class="st0" width="2.1" height="2.1"/>
<rect x="31" y="1" class="st0" width="3.5" height="3.5"/>
<rect x="7.3" y="35.8" class="st0" width="1" height="1.1"/>
<rect x="8.4" y="37" class="st0" width="1" height="1.1"/>
<rect x="33.3" y="32.9" class="st0" width="1.9" height="1.9"/>
</svg>
