<?xml version="1.0" encoding="UTF-8" standalone="no"?>
<svg
   xmlns:dc="http://purl.org/dc/elements/1.1/"
   xmlns:cc="http://creativecommons.org/ns#"
   xmlns:rdf="http://www.w3.org/1999/02/22-rdf-syntax-ns#"
   xmlns:svg="http://www.w3.org/2000/svg"
   xmlns="http://www.w3.org/2000/svg"
   viewBox="0 0 852.58667 192"
   height="192"
   width="852.58667"
   xml:space="preserve"
   id="svg2"
   version="1.1"><metadata
     id="metadata8"><rdf:RDF><cc:Work
         rdf:about=""><dc:format>image/svg+xml</dc:format><dc:type
           rdf:resource="http://purl.org/dc/dcmitype/StillImage" /></cc:Work></rdf:RDF></metadata><defs
     id="defs6"><clipPath
       id="clipPath18"
       clipPathUnits="userSpaceOnUse"><path
         id="path16"
         d="M 0,144 H 639.44 V 0 H 0 Z" /></clipPath></defs><g
     transform="matrix(1.3333333,0,0,-1.3333333,0,192)"
     id="g10"><g
       id="g12"><g
         clip-path="url(#clipPath18)"
         id="g14"><g
           transform="translate(470.505,108)"
           id="g20"><path
             id="path22"
             style="fill:#ffffff;fill-opacity:1;fill-rule:nonzero;stroke:none"
             d="m 0,0 h 19.636 l 13.613,-54.253 h 4.437 L 51.199,0 H 70.432 L 50.365,-72 H 20.167 Z M -43.631,-72 H -62.387 V 0 h 18.756 z m -62.564,55.462 h -21.581 V -72 h -18.758 v 55.462 H -168.01 V 0 h 61.815 z m -125.948,-15.228 c 7.362,0 10.185,2.623 10.185,7.765 0,5.143 -2.823,7.665 -10.185,7.665 h -13.31 v -15.43 z M -229.721,0 c 17.042,0 26.922,-8.673 26.922,-23.698 0,-15.227 -9.88,-24.101 -26.922,-24.101 h -15.732 V -72 h -18.756 V 0 Z m -114.455,-38.622 h 16.035 l -5.75,20.872 h -4.434 z M -300.108,-72 h -18.656 l -5.243,18.656 H -348.21 L -353.35,-72 h -18.253 l 21.579,72 h 28.335 z m 419.604,49.438 c -7.422,0 -13.438,-6.016 -13.438,-13.438 0,-7.422 6.016,-13.438 13.438,-13.438 7.422,0 13.439,6.016 13.439,13.438 0,7.422 -6.017,13.438 -13.439,13.438 M -407.628,-36 c 0,-7.422 -6.017,-13.438 -13.439,-13.438 -7.421,0 -13.438,6.016 -13.438,13.438 0,7.422 6.017,13.438 13.438,13.438 7.422,0 13.439,-6.016 13.439,-13.438" /></g></g></g></g></svg>