<svg xmlns="http://www.w3.org/2000/svg" viewBox="0 0 736 213.52"><defs><style>.cls-1{fill:#fff;}</style></defs><title>Asset 1</title><g id="Layer_2" data-name="Layer 2"><g id="Layer_1-2" data-name="Layer 1"><path class="cls-1" d="M271,4.87v71H257.38v-71Z"/><path class="cls-1" d="M355.1,4.87v71h-23l-20.45-39q-1.51-2.93-4.77-10.21l-2.3-5.1-2.26-5.1h-.52l.21,4.69.16,4.63.1,9.32V75.91H288.69v-71h23l18.61,36q2.46,4.78,5.71,11.61l2.73,5.77,2.72,5.83h.47l-.15-4.58-.16-4.58-.11-9.16V4.87Z"/><path class="cls-1" d="M401.24,16.94v59H387.66v-59H367V4.87h55.62V16.94Z"/><path class="cls-1" d="M434.54,75.91v-71h35.28Q483,4.87,488,9.39t5,16.4q0,10.77-2.5,14.73c-1.66,2.63-5.05,4.46-10.19,5.46v.47q11.89.73,11.9,13.79V75.91H478.57V63q0-11-10.9-11H448.12V75.91Zm13.58-35.29h19.5c4.64,0,7.73-.82,9.25-2.47s2.28-4.95,2.28-9.92-.66-8.33-2-9.81-4.18-2.21-8.62-2.21H448.12Z"/><path class="cls-1" d="M520.94,16.21V34.53h33.55v9.94H520.94V64.56h35.7V75.91H507.36v-71h49V16.21Z"/><path class="cls-1" d="M571.8,75.91v-71h32.39q14.52,0,19.58,5t5.06,19.39q0,14.25-4.82,18.94t-19.5,4.68l-3.15.06h-16V75.91Zm13.57-34.3h15.47q9.23,0,11.71-2.11c1.66-1.4,2.49-4.73,2.49-10q0-9-2.07-11.17T602.2,16.21H585.37Z"/><path class="cls-1" d="M656.1,4.87v71H642.52v-71Z"/><path class="cls-1" d="M673.83,75.91v-71H709q15,0,21,6.5t6,22.8q0,26.6-4.82,34.16t-21.76,7.58Zm13.58-11.35h19.34q9.75,0,12.61-4.45t2.85-19.65q0-15.71-2.56-20t-12.06-4.27H687.41Z"/><path class="cls-1" d="M279.05,130h6.31v1.14q0,6.92-2.52,8.94c-1.69,1.35-5.4,2-11.16,2q-9.8,0-12.05-3.2t-2.25-17.12q0-8.19,3.05-10.77t12.78-2.59q7.08,0,9.46,2.13T285,119l0,.75h-6.31v-.85c0-2.16-.41-3.55-1.22-4.15s-2.68-.91-5.59-.91c-3.9,0-6.24.47-7,1.43s-1.18,3.78-1.18,8.48q0,9.51,1.06,11.25c.7,1.17,3,1.75,6.82,1.75q4.68,0,6.08-1c.93-.65,1.39-2.07,1.39-4.27Z"/><path class="cls-1" d="M305.74,108.41q9,0,11.61,3t2.59,13.39q0,11.37-2.6,14.33t-12.62,3q-9,0-11.66-2.92t-2.65-12.86q0-11.84,2.6-14.86T305.74,108.41Zm-.49,5.39q-6.33,0-7.39,1.62t-1.07,11.25q0,7.12,1.25,8.58t7.36,1.46c3.89,0,6.23-.55,7-1.64s1.17-4.4,1.17-9.93-.37-8.82-1.11-9.83S309.32,113.8,305.25,113.8Z"/><path class="cls-1" d="M357.59,108.71V141.8H346.94l-9.45-18.16c-.47-.9-1.21-2.49-2.21-4.75l-1.06-2.38-1.05-2.37h-.24l.1,2.18.07,2.16,0,4.34v19h-6.28V108.71h10.64l8.61,16.77q1.14,2.23,2.64,5.41l1.26,2.69,1.26,2.72h.22l-.07-2.14-.07-2.13-.05-4.27V108.71Z"/><path class="cls-1" d="M379.28,114.33V141.8H373V114.33h-9.56v-5.62h25.73v5.62Z"/><path class="cls-1" d="M395,141.8V108.71h16.32q6.09,0,8.39,2.1c1.54,1.41,2.3,4,2.3,7.64q0,5-1.15,6.86t-4.71,2.55v.22c3.67.22,5.5,2.37,5.5,6.42v7.3h-6.28v-6q0-5.12-5-5.11H401.3V141.8Zm6.28-16.44h9c2.15,0,3.58-.38,4.28-1.15s1.06-2.31,1.06-4.62-.31-3.88-.91-4.57-1.94-1-4-1H401.3Z"/><path class="cls-1" d="M443.46,108.41q9,0,11.61,3t2.59,13.39q0,11.37-2.6,14.33t-12.62,3q-9,0-11.66-2.92t-2.65-12.86q0-11.84,2.6-14.86T443.46,108.41ZM443,113.8q-6.33,0-7.39,1.62t-1.07,11.25c0,4.75.41,7.61,1.25,8.58s3.28,1.46,7.36,1.46c3.89,0,6.23-.55,7-1.64s1.17-4.4,1.17-9.93-.37-8.82-1.11-9.83S447,113.8,443,113.8Z"/><path class="cls-1" d="M470.87,108.71v27.46h15.51v5.63H464.59V108.71Z"/><path class="cls-1" d="M531.89,118.35h-6.13c0-.3,0-.53,0-.67-.14-1.86-.56-3-1.23-3.51s-2.28-.71-4.8-.71c-3,0-4.92.27-5.84.82s-1.37,1.71-1.37,3.47c0,2.08.38,3.34,1.12,3.76s3.2.74,7.37,1q7.39.4,9.56,2.11t2.17,7c0,4.4-.84,7.24-2.54,8.52s-5.44,1.93-11.23,1.93q-7.8,0-10.36-1.89T506,132.54l0-1.21h6.11l0,.7c0,2.31.4,3.72,1.21,4.24s3,.78,6.62.78c2.81,0,4.61-.3,5.38-.9s1.17-2,1.17-4.15c0-1.6-.3-2.66-.89-3.18s-1.86-.85-3.82-1l-3.46-.22q-7.86-.47-10-2.18c-1.45-1.15-2.18-3.61-2.18-7.4s.88-6.43,2.63-7.72,5.26-1.93,10.51-1.93c5,0,8.33.6,10.06,1.77s2.59,3.49,2.59,6.91Z"/><path class="cls-1" d="M567.16,108.71l-12.27,20.46V141.8h-6.28V129.17l-11.92-20.46H544l5,8.72c.28.49.75,1.39,1.41,2.69l.7,1.34.68,1.33h.17l.7-1.33.71-1.34c.6-1.19,1.07-2.09,1.43-2.69l5-8.72Z"/><path class="cls-1" d="M597.17,118.35H591c0-.3,0-.53,0-.67q-.21-2.79-1.23-3.51c-.68-.47-2.28-.71-4.8-.71q-4.47,0-5.83.82c-.92.55-1.37,1.71-1.37,3.47,0,2.08.37,3.34,1.11,3.76s3.2.74,7.37,1q7.39.4,9.57,2.11c1.44,1.13,2.17,3.48,2.17,7q0,6.6-2.55,8.52t-11.22,1.93q-7.82,0-10.37-1.89c-1.7-1.26-2.56-3.81-2.56-7.66l0-1.21h6.11l0,.7c0,2.31.41,3.72,1.21,4.24s3,.78,6.62.78c2.82,0,4.61-.3,5.39-.9s1.16-2,1.16-4.15c0-1.6-.3-2.66-.89-3.18s-1.86-.85-3.81-1l-3.47-.22q-7.86-.47-10-2.18c-1.45-1.15-2.18-3.61-2.18-7.4s.88-6.43,2.63-7.72,5.26-1.93,10.51-1.93c5,0,8.33.6,10.06,1.77s2.6,3.49,2.6,6.91Z"/><path class="cls-1" d="M618.2,114.33V141.8h-6.28V114.33h-9.55v-5.62h25.72v5.62Z"/><path class="cls-1" d="M639.57,114v8.53h15.52v4.64H639.57v9.35h16.52v5.29H633.3V108.71h22.64V114Z"/><path class="cls-1" d="M702.14,108.71V141.8h-6.28v-18c0-1.44,0-3.07.12-4.9l.12-2.47.12-2.45H696l-.75,2.31-.73,2.3c-.68,2.07-1.2,3.6-1.58,4.58L685.7,141.8H680l-7.35-18.52q-.6-1.53-1.6-4.59l-.75-2.3-.75-2.28h-.19l.12,2.4.12,2.43c.1,1.87.14,3.48.14,4.82v18h-6.27V108.71h10.23L679.59,124c.41,1.07.94,2.59,1.6,4.58l.73,2.3.75,2.28h.22l.7-2.28.73-2.28c.6-1.92,1.11-3.44,1.55-4.55l5.82-15.37Z"/><path class="cls-1" d="M735.2,118.35h-6.13a5.21,5.21,0,0,1-.05-.67c-.15-1.86-.56-3-1.24-3.51s-2.28-.71-4.8-.71c-3,0-4.92.27-5.83.82s-1.37,1.71-1.37,3.47c0,2.08.37,3.34,1.12,3.76s3.2.74,7.37,1c4.93.27,8.11,1,9.56,2.11s2.17,3.48,2.17,7q0,6.6-2.55,8.52c-1.69,1.29-5.44,1.93-11.22,1.93q-7.82,0-10.37-1.89t-2.55-7.66l0-1.21h6.11l0,.7c0,2.31.4,3.72,1.21,4.24s3,.78,6.62.78q4.21,0,5.38-.9c.78-.6,1.16-2,1.16-4.15,0-1.6-.29-2.66-.88-3.18s-1.86-.85-3.82-1l-3.47-.22q-7.85-.47-10-2.18c-1.46-1.15-2.19-3.61-2.19-7.4s.88-6.43,2.63-7.72,5.26-1.93,10.51-1.93c5,0,8.34.6,10.07,1.77s2.59,3.49,2.59,6.91Z"/><path class="cls-1" d="M289.28,176.61,283,199h-4.87l-3-12.46-.91-3.8-.42-1.9-.45-1.9h-.07l-.45,1.9-.44,1.9-.92,3.8-3,12.46h-5l-6.07-22.43h3.45L264,189l1,3.89.47,2,.47,1.95H266l.45-1.95.47-2,.93-3.87,3.08-12.43h4.78l3,12.46.94,3.87.45,1.92.44,1.95h.07l.5-1.95.46-2,1-3.89,3.14-12.41Z"/><path class="cls-1" d="M326.29,176.61,320,199h-4.88l-3-12.46-.92-3.8-.42-1.9-.45-1.9h-.07l-.44,1.9-.45,1.9-.91,3.8-3,12.46h-5l-6.08-22.43h3.45L301,189l1,3.89.47,2,.47,1.95H303l.45-1.95.47-2,.94-3.87L308,176.61h4.78l3,12.46.94,3.87.45,1.92.44,1.95h.07l.5-1.95.47-2,1-3.89,3.15-12.41Z"/><path class="cls-1" d="M363.31,176.61,357,199h-4.88l-3-12.46-.92-3.8-.42-1.9-.44-1.9h-.07l-.45,1.9-.45,1.9-.91,3.8-3,12.46h-5l-6.08-22.43h3.45L338,189l1,3.89.47,2,.47,1.95h.1l.44-1.95.47-2,.94-3.87L345,176.61h4.79l3.05,12.46.94,3.87.44,1.92.45,1.95h.07l.49-1.95.47-2,1-3.89,3.15-12.41Z"/><path class="cls-1" d="M374.75,194.72V199h-3.61v-4.32Z"/><path class="cls-1" d="M388.61,167v3.69h-3.28V167Zm0,9.6V199h-3.28V176.61Z"/><path class="cls-1" d="M399.16,176.61h3.17l-.1,3,.1.07c1-2.3,3.48-3.45,7.46-3.45q4.8,0,6.51,1.69c1.13,1.13,1.7,3.28,1.7,6.47V199h-3.29V183.88c0-1.92-.36-3.22-1.1-3.88s-2.15-1-4.25-1q-6.92,0-6.92,6.55V199h-3.28Z"/><path class="cls-1" d="M440.63,176.61v2.72H432v13.72c0,2.4,1.06,3.59,3.19,3.59s3.17-1.07,3.17-3.21l0-1.1.05-1.25h3.05l0,1.67q0,6.62-6.29,6.61-6.49,0-6.5-5.51V179.33h-3.09v-2.72h3.09v-5.4H432v5.4Z"/><path class="cls-1" d="M449.52,176.61h3.28l-.33,2.58.07.07q1.95-3.16,6.43-3.17,6.19,0,6.19,6.38l0,1.55H461.9l.07-.56c0-.59.07-1,.07-1.2q0-3.45-3.75-3.45-5.49,0-5.49,6.78V199h-3.28Z"/><path class="cls-1" d="M488.73,192.26h3.36l0,.82q0,3.49-2.12,4.89t-7.45,1.39q-6.19,0-8.13-2.26t-1.93-9.51c0-4.47.65-7.48,1.94-9s3.84-2.3,7.63-2.3c4.13,0,6.83.67,8.11,2s1.93,4.13,1.93,8.4v1.76H476q0,5.31,1.14,6.76t5.31,1.45c2.64,0,4.36-.23,5.15-.69s1.18-1.46,1.18-3Zm0-6.38,0-1.06c0-2.42-.4-4-1.2-4.73S485,179,482.35,179s-4.38.43-5.17,1.28S476,183,476,185.88Z"/><path class="cls-1" d="M502.08,176.61h3.28l-.16,2.84.09.07q1.71-3.24,7.37-3.24c3.33,0,5.62.85,6.87,2.53s1.88,4.81,1.88,9.34c0,4.21-.64,7.13-1.9,8.76s-3.52,2.45-6.76,2.45q-5.53,0-7.32-3h-.07v12.26h-3.28Zm9.66,2.39q-3.94,0-5.13,1.7c-.8,1.14-1.2,3.57-1.2,7.31q0,5.19,1.29,6.91t5.18,1.72q3.71,0,4.89-1.66T518,188.1q0-5.72-1.15-7.41T511.74,179Z"/><path class="cls-1" d="M534.68,167v3.69H531.4V167Zm0,9.6V199H531.4V176.61Z"/><path class="cls-1" d="M564,167v32h-3.28l.16-2.91-.09,0c-1,2.18-3.43,3.26-7.2,3.26-3.44,0-5.79-.83-7-2.51s-1.89-4.79-1.89-9.36c0-4.2.64-7.12,1.9-8.76s3.54-2.45,6.8-2.45q6.13,0,7.3,3.17l.07,0V167Zm-9.87,12q-3.65,0-4.83,1.68t-1.2,6.79c0,3.75.4,6.22,1.18,7.4s2.43,1.77,4.92,1.77q4.05,0,5.28-1.77t1.22-7.7q0-4.81-1.35-6.49T554.1,179Z"/><path class="cls-1" d="M590,190.94h3.29l0,1.22q0,7.2-9.43,7.2c-4,0-6.7-.75-8-2.27s-2-4.65-2-9.38c0-4.45.66-7.46,2-9.05s3.83-2.38,7.54-2.38,6.13.54,7.46,1.61,2,3.08,2,6h-3.28v-.59c0-1.73-.43-2.89-1.29-3.47s-2.58-.87-5.14-.87-4.06.55-4.76,1.64-1.06,3.55-1.06,7.37.4,6.09,1.21,7.11,2.69,1.52,5.64,1.52c2.5,0,4.09-.33,4.76-1S590,193.41,590,190.94Z"/><path class="cls-1" d="M620,182.47h-3.28c0-1.56-.32-2.53-1-2.91s-2.27-.56-4.9-.56c-2.43,0-4,.2-4.64.6s-1,1.36-1,2.87q0,3.45,3.3,3.62l2.65.14,3.36.16q6.09.3,6.1,6.38c0,2.52-.68,4.25-2,5.19s-3.81,1.4-7.39,1.4-6.2-.44-7.59-1.33-2.07-2.53-2.07-4.91l0-1.22H605l0,1.06c0,1.47.38,2.45,1.13,2.94s2.23.74,4.43.74c2.71,0,4.49-.25,5.34-.77s1.28-1.6,1.28-3.24q0-3.54-3.21-3.54-7.49,0-9.85-1.27t-2.35-5.25q0-3.78,1.86-5t7.43-1.26q8.91,0,8.91,5.37Z"/><path class="cls-1" d="M633.82,194.72V199h-3.61v-4.32Z"/><path class="cls-1" d="M659.81,190.94h3.28l0,1.22q0,7.2-9.43,7.2c-4,0-6.7-.75-8-2.27s-1.94-4.65-1.94-9.38c0-4.45.66-7.46,2-9.05s3.84-2.38,7.54-2.38,6.13.54,7.46,1.61,2,3.08,2,6h-3.29v-.59c0-1.73-.43-2.89-1.29-3.47S655.57,179,653,179s-4,.55-4.76,1.64-1,3.55-1,7.37.4,6.09,1.21,7.11,2.68,1.52,5.64,1.52c2.5,0,4.09-.33,4.76-1S659.81,193.41,659.81,190.94Z"/><path class="cls-1" d="M681.76,176.28q6.21,0,8.07,2.16t1.85,9.38q0,7.23-1.85,9.39t-8.07,2.15q-6.19,0-8-2.15t-1.85-9.39q0-7.22,1.85-9.38T681.76,176.28Zm0,2.72c-2.91,0-4.71.48-5.41,1.42s-1,3.41-1,7.4.35,6.46,1,7.4,2.5,1.42,5.41,1.42,4.73-.47,5.43-1.42,1-3.41,1-7.4-.34-6.45-1-7.4S684.68,179,681.76,179Z"/><path class="cls-1" d="M701.6,176.61h3.28l-.07,3.38.07.07q1.9-3.78,7.32-3.78,5.7,0,6.92,3.78h.1c1.4-2.52,4-3.78,7.72-3.78q7.92,0,7.92,8.09V199h-3.28v-15c0-2-.35-3.31-1.06-4s-2-1.06-4-1.06q-3.9,0-5.28,1.47t-1.39,5.59v13h-3.28V184.37l-.05-1q0-4.34-4.95-4.34-6.71,0-6.71,7.3V199H701.6Z"/><path class="cls-1" d="M178.86,0H0V213.52H213.53V0ZM211,106.76a104.3,104.3,0,1,1-2.54-22.83A103.92,103.92,0,0,1,211,106.76Z"/><polygon class="cls-1" points="45.47 84.81 45.47 62.39 37.94 62.39 37.94 84.81 29.95 84.81 29.95 92.34 53.46 92.34 53.46 84.81 45.47 84.81"/><polygon class="cls-1" points="86.58 113.13 80.86 108.24 110.31 73.7 141.87 94.95 170.12 59.12 176.03 63.78 143.46 105.09 111.68 83.69 86.58 113.13 86.58 113.13"/><polygon class="cls-1" points="174.02 126.35 86.85 126.35 86.85 53.62 79.33 53.62 79.33 126.35 73.06 126.35 73.06 133.88 79.33 133.88 79.33 140.47 86.85 140.47 86.85 133.88 174.02 133.88 174.02 126.35"/><path class="cls-1" d="M63.3,78.4,57.73,63.52h2.62l3.14,8.91c.34,1,.66,2,.94,3,.22-.78.53-1.73.93-2.83l3.25-9.08h2.55L65.62,78.4Z"/><path class="cls-1" d="M39.19,167.82H27.75l.8-3.61h3.19l2.91-13.13H31.47l.8-3.6H43.71l-.8,3.6H39.72L36.8,164.21H40Z"/><path class="cls-1" d="M60.3,156c0,.27,0,.57,0,.89a9.79,9.79,0,0,1-.17,1l-2.2,10H53.1l1.67-7.62c.12-.55.22-1,.29-1.44a6.46,6.46,0,0,0,.1-1.12,1.71,1.71,0,0,0-.43-1.3,2.36,2.36,0,0,0-1.59-.41,4.17,4.17,0,0,0-1.29.25,10.18,10.18,0,0,0-1.66.76l-2.4,10.88H43l3.41-15.34h4.75l-.39,1.69a18.83,18.83,0,0,1,2.66-1.56,6.29,6.29,0,0,1,2.65-.56,4.44,4.44,0,0,1,3.09,1A3.73,3.73,0,0,1,60.3,156Z"/><path class="cls-1" d="M67.83,168.12a5.58,5.58,0,0,1-3.5-.85,3,3,0,0,1-1-2.48,4.72,4.72,0,0,1,.07-.85c0-.28.09-.59.16-1l1.62-7.26H63.18l.72-3.24h1.94l1-4.39h4.74l-1,4.39H75l-.72,3.24H69.87l-1.23,5.52c-.09.39-.17.77-.25,1.16a5.07,5.07,0,0,0-.12,1,1.32,1.32,0,0,0,.44,1.14,2.28,2.28,0,0,0,1.36.32,4.69,4.69,0,0,0,1-.14,4.74,4.74,0,0,0,1-.32h.39l-.73,3.29A12.35,12.35,0,0,1,70,168,16.1,16.1,0,0,1,67.83,168.12Z"/><path class="cls-1" d="M87.49,157.16h-.42a4.5,4.5,0,0,0-.89-.16,11,11,0,0,0-1.14-.06,11.08,11.08,0,0,0-3.58.6l-2.29,10.28H74.42l3.41-15.34h4.76l-.5,2.25a15.62,15.62,0,0,1,2.67-1.67,6,6,0,0,1,2.68-.63H88l.54,0Z"/><path class="cls-1" d="M96.09,168.25a8.79,8.79,0,0,1-5.82-1.74,6,6,0,0,1-2-4.81,10.83,10.83,0,0,1,.67-3.84,9.24,9.24,0,0,1,1.93-3.07,8.57,8.57,0,0,1,3-2,10.3,10.3,0,0,1,4-.75,7.67,7.67,0,0,1,5,1.38,5,5,0,0,1,1.68,4.11,9.83,9.83,0,0,1-.18,1.81,15.77,15.77,0,0,1-.47,1.76h-11v.32a3.07,3.07,0,0,0,1.08,2.5,5.08,5.08,0,0,0,3.3.91,8,8,0,0,0,2.94-.55,13,13,0,0,0,2.42-1.22h.52l-.88,3.95a13.5,13.5,0,0,1-2.9.95A15.2,15.2,0,0,1,96.09,168.25Zm3.61-10.06a4.49,4.49,0,0,0,.06-.46c0-.14,0-.27,0-.42a2.11,2.11,0,0,0-.65-1.66,2.63,2.63,0,0,0-1.85-.58,3.72,3.72,0,0,0-2.46.83,5,5,0,0,0-1.5,2.29Z"/><path class="cls-1" d="M123,157.38a13,13,0,0,1-.67,4.11,10.91,10.91,0,0,1-1.8,3.42,9,9,0,0,1-2.69,2.36,6.7,6.7,0,0,1-3.37.85,7.81,7.81,0,0,1-2.17-.28,6.9,6.9,0,0,1-1.79-.79l-1.42,6.4h-4.75l4.65-21h4.76l-.36,1.59a15.33,15.33,0,0,1,2.48-1.49,5.88,5.88,0,0,1,2.51-.53,4.19,4.19,0,0,1,3.42,1.42A5.86,5.86,0,0,1,123,157.38Zm-6.16,5.39a6.74,6.74,0,0,0,.87-2,9.54,9.54,0,0,0,.3-2.51,3,3,0,0,0-.52-1.91,2.31,2.31,0,0,0-1.88-.66,4,4,0,0,0-1.36.25,11.11,11.11,0,0,0-1.42.67l-1.71,7.72a4.2,4.2,0,0,0,1,.29,6.15,6.15,0,0,0,1.15.1,4.08,4.08,0,0,0,2.11-.53A4.23,4.23,0,0,0,116.86,162.77Z"/><path class="cls-1" d="M132.58,152.48l-3.42,15.34h-4.75l3.42-15.34Zm1.44-5.92-.82,3.73h-5l.82-3.73Z"/><path class="cls-1" d="M152.67,146.56,148,167.82H143.2l.35-1.6-1.2.81a7.87,7.87,0,0,1-1.15.66,5,5,0,0,1-1.16.41,5.41,5.41,0,0,1-1.37.15,4.38,4.38,0,0,1-3.42-1.45,6,6,0,0,1-1.28-4.12,12.25,12.25,0,0,1,.68-4.1,11.6,11.6,0,0,1,1.85-3.4,9.05,9.05,0,0,1,2.74-2.28,6.81,6.81,0,0,1,3.29-.85,7.75,7.75,0,0,1,2.1.25,9,9,0,0,1,1.84.79l1.45-6.53Zm-6.87,9.51a4.4,4.4,0,0,0-1-.35,4.63,4.63,0,0,0-1.08-.16,4.06,4.06,0,0,0-2,.52,4.74,4.74,0,0,0-1.54,1.42,6.37,6.37,0,0,0-.89,2.05,9.43,9.43,0,0,0-.33,2.41,2.8,2.8,0,0,0,.62,2,2.5,2.5,0,0,0,1.87.62,3.51,3.51,0,0,0,1.36-.29,8.41,8.41,0,0,0,1.36-.72Z"/><path class="cls-1" d="M161.67,168.21a8.56,8.56,0,0,1-6.11-2,7.61,7.61,0,0,1-2.16-5.81,14.67,14.67,0,0,1,1-5.43,12.9,12.9,0,0,1,2.61-4.21,11.57,11.57,0,0,1,3.91-2.69,12,12,0,0,1,4.78-1,15.32,15.32,0,0,1,3.75.43,11.15,11.15,0,0,1,3.12,1.26l-1.15,4.93h-.58a9.11,9.11,0,0,0-2.48-2,6.06,6.06,0,0,0-2.9-.66,5.87,5.87,0,0,0-4.82,2.44,9.92,9.92,0,0,0-1.9,6.23,5,5,0,0,0,1.06,3.53,4,4,0,0,0,3.07,1.1,7.72,7.72,0,0,0,3.39-.77,14.5,14.5,0,0,0,3-1.93h.52l-1.14,4.87-1.37.59a15.31,15.31,0,0,1-1.52.57,16,16,0,0,1-1.76.43A13.41,13.41,0,0,1,161.67,168.21Z"/><path class="cls-1" d="M179.25,168.19a19.35,19.35,0,0,1-4.46-.46,15.48,15.48,0,0,1-3.39-1.12l1-4.87H173a9.58,9.58,0,0,0,3.17,2,10.8,10.8,0,0,0,3.93.7,6.42,6.42,0,0,0,3.16-.6,2,2,0,0,0,1-1.75,1.51,1.51,0,0,0-.17-.73,1.71,1.71,0,0,0-.64-.61,7.24,7.24,0,0,0-1.29-.6c-.55-.19-1.25-.42-2.12-.67a21.66,21.66,0,0,1-2.56-.89,8.19,8.19,0,0,1-1.94-1.13,4.6,4.6,0,0,1-1.21-1.55,4.78,4.78,0,0,1-.41-2.09,5.67,5.67,0,0,1,2.59-4.88,12.06,12.06,0,0,1,7.09-1.82,21.38,21.38,0,0,1,4.09.37,13.45,13.45,0,0,1,3.25,1l-.95,4.69h-.54a8.38,8.38,0,0,0-2.7-1.65,10,10,0,0,0-3.65-.65,6.51,6.51,0,0,0-3,.58,1.81,1.81,0,0,0-1.06,1.62,1.43,1.43,0,0,0,.8,1.41,6.75,6.75,0,0,0,1.33.59c.6.22,1.31.44,2.12.67a12.25,12.25,0,0,1,4.69,2.14,4.19,4.19,0,0,1,1.4,3.34,6.17,6.17,0,0,1-.76,3.1,6.06,6.06,0,0,1-2.1,2.17,10.33,10.33,0,0,1-3.19,1.3A18.27,18.27,0,0,1,179.25,168.19Z"/><polygon class="cls-1" points="53.46 100.48 29.95 100.48 29.95 108.01 37.94 108.01 37.94 130.43 45.46 130.43 45.46 108.01 53.46 108.01 53.46 100.48"/></g></g></svg>