<?xml version="1.0" encoding="utf-8"?>
<!-- Generator: Adobe Illustrator 22.1.0, SVG Export Plug-In . SVG Version: 6.00 Build 0)  -->
<svg version="1.1" id="afic" xmlns="http://www.w3.org/2000/svg" xmlns:xlink="http://www.w3.org/1999/xlink" x="0px" y="0px"
	 viewBox="0 0 432 288" style="enable-background:new 0 0 432 288;" xml:space="preserve">
<style type="text/css">
	.st0{fill:#FFFFFF;}
</style>
<g>
	<path class="st0" d="M132.1,93.1l21.5,54.7h-5.6l-5.7-14.9h-26l-5.7,14.9h-5.6l21.5-54.7H132.1z M118,128.4h22.8l-11.4-30
		L118,128.4z"/>
	<path class="st0" d="M158.3,93.1h33.3v4.5h-28.3v20.6H189v4.5h-25.6v25h-5V93.1z"/>
	<path class="st0" d="M237.9,92.2c9.9,0,16.7,3.8,21.3,10.8l-4.1,2.6c-4.2-6-9.4-8.7-17-8.7c-10.9,0-19.5,8.8-19.5,23.6
		c0,14.2,8.3,23.6,20.8,23.6c5.9,0,12-2.1,15.1-6.1v-13.8h-14.9v-4.5h19.9v20.2c-4.5,5.8-12.2,8.9-20.2,8.9
		c-15.9,0-25.9-12.4-25.9-28.3C213.4,103.9,223.4,92.2,237.9,92.2z"/>
	<path class="st0" d="M271,117.8v30h-4.7v-40.5h4.7v5.5c3.1-3.9,7.7-6.4,13.3-6.4c0.8,0,1.8,0.1,2.7,0.2v4.4
		c-1.1-0.1-2.2-0.2-3.4-0.2C278.5,110.8,273.6,113.7,271,117.8z"/>
	<path class="st0" d="M306.9,148.8c-11.5,0-19.2-8.9-19.2-21.2c0-12.3,7.7-21.2,19.2-21.2c11.5,0,19.2,8.9,19.2,21.2
		C326,139.9,318.4,148.8,306.9,148.8z M306.9,110.8c-8.7,0-14.3,6.6-14.3,16.8c0,10.2,5.6,16.8,14.3,16.8c8.7,0,14.3-6.6,14.3-16.8
		C321.2,117.3,315.6,110.8,306.9,110.8z"/>
	<path class="st0" d="M360.4,130.9v-23.5h4.7v23.9c0,12-6.9,17.5-17,17.5s-17-5.6-17-17.5v-23.9h4.7v23.5c0,9.1,5.1,13.5,12.3,13.5
		C355.3,144.4,360.4,140,360.4,130.9z"/>
	<path class="st0" d="M377.2,112c3.6-3.3,8.3-5.6,13.5-5.6c11.2,0,17.4,8.1,17.4,21.2c0,13.1-6.2,21.2-17.4,21.2
		c-5.2,0-9.9-2.3-13.5-5.6v21.3h-4.7v-57.1h4.7V112z M389.8,110.8c-4.5,0-9.6,2.7-12.7,6.1v21.4c3,3.4,8.1,6.1,12.7,6.1
		c9.1,0,13.4-6.1,13.4-16.8C403.2,116.9,398.9,110.8,389.8,110.8z"/>
</g>
<g>
	<polygon class="st0" points="36.6,122 55.2,122 63.7,103.4 54.4,83.3 	"/>
	<polygon class="st0" points="91.8,122 73.2,122 54.9,82.5 73.5,82.5 	"/>
	<polygon class="st0" points="36.6,122.7 55.2,122.7 63.7,141.2 54.4,161.4 	"/>
	<polygon class="st0" points="91.8,122.7 73.2,122.7 54.9,162.2 73.5,162.2 	"/>
</g>
</svg>
