<?xml version="1.0" encoding="utf-8"?>
<!-- Generator: Adobe Illustrator 21.0.2, SVG Export Plug-In . SVG Version: 6.00 Build 0)  -->
<svg version="1.1" id="Layer_1" xmlns="http://www.w3.org/2000/svg" xmlns:xlink="http://www.w3.org/1999/xlink" x="0px" y="0px"
	 viewBox="0 0 792 612" style="enable-background:new 0 0 792 612;" xml:space="preserve">
<style type="text/css">
	.st0{fill:#FFFFFF;}
	.st1{font-family:'TwCenMT-Regular';}
	.st2{font-size:12px;}
</style>
<g>
	<g>
		<path class="st0" d="M439.9,236.8c-9.3-8.1-25.2-5.8-35.1-0.9c-13.9,7.8-24.7,22.1-25.8,37.7c-0.6,7.5,1.4,14.5,7.5,19.2
			c12.5,7.8,29,2.3,39.7-4.9c9.3-7.2,15.7-16.8,18.9-27.3C447.4,252.5,446.3,242.9,439.9,236.8z M399.8,292.6
			c-13.4,0,14.4-55.7,25.3-55.7C435.8,236.8,413.3,292.6,399.8,292.6z"/>
	</g>
	<polygon class="st0" points="368.8,284.6 344.8,284.5 349.1,272.2 373.4,272.2 368.8,284.6 	"/>
	<path class="st0" d="M206.9,290.2l-2,4.8l-35.5,0l0.9-5.5c0,0,6.5,0.6,8.3-3.5c1.8-4.1,7-16,7-16h-13.5
		c-5.7,5.2-10.5,9.7-18.2,16.9c-7.3,6.8-16.8,11.2-27.4,7.8c-7.7-2.9-13.2-8.1-14.6-15.8c-0.1-0.7-0.1-1.4-0.1-2
		c0-4,1.9-11.8,10.8-11.8c7.4,0,9.8,6,9.9,9.3c0.2,5.5-3.6,8.7-8,8.9c3.6,4.9,9.4,4.6,14.3,2.6c11.7-5,64.2-59.7,64.2-59.7l24.5,0
		c0,0-26,59.4-26.6,61.4C200.7,288.7,200.9,289.8,206.9,290.2z M197.4,242.9c0,0-17.1,19.2-17.1,19.2l8.7,0L197.4,242.9L197.4,242.9
		z"/>
	<path class="st0" d="M325.8,252.6c29.2,0,18.1,42.2-13.6,42.2C285.6,294.7,295.2,252.6,325.8,252.6z M311.1,290.9
		c8.3,0,22.3-34.6,15.7-34.6C320,256.3,302.8,290.9,311.1,290.9z"/>
	<path class="st0" d="M267.9,253.2c0,0-7.3-0.1-12.1-0.1c-0.6,0-1-0.2-1.6,1c-13.2,27.5-18.9,31.1-22.7,31.1
		c-6.7,0,19.9-32.3,4.1-32.3c-12.7,0-20.1,10.8-18.7,13.3c0.6,1.1,7.9-5.4,5.7-1.1c-14.2,25.1-6.1,30.1-0.1,30.1
		c8.2,0,13.8-5.9,17.8-9.1c0,0-1.1,9.6,9,9.6c3.9,0,7.4-2.2,10.1-4.9c0.2-0.2,0.5-0.5,0.7-0.7c3.9-4.3,6-9.5,5.1-10
		c-1.1-0.6-4.3,3-6.4,4.8c-0.1,0.1-0.2,0.2-0.4,0.3c-0.7,0.6-1.3,0.9-1.5,0.6c-1.1-0.8,3.6-10.6,12.3-31.7
		C269.5,253.3,268.5,253.2,267.9,253.2z"/>
	<path class="st0" d="M289,288.9c0.1-0.1,0.2-0.2,0.3-0.3c2.4-3,3.8-6.2,4-7.6c0-0.4,0-0.7-0.2-0.8c-1.1-0.6-5.2,3.8-6.1,4.5
		c-0.8,0.6-1.9,0.9-2.7,0.6c-2.4-1.1,0.9-6.4,9.6-25.2c0.3-0.6,1.2-1.4,2.4-1.4c1.9,0,3.4,0,5.6,0c0.6,0,1.4-0.5,2.1-2.3
		c0.7-2.1,0.9-2.9-0.1-2.9l-4.6,0c-1,0-1.8-0.8-1.3-2.3l4.4-10h-15.1l-6.2,10.9c-0.6,1-1.2,1.5-2.7,1.5h-3.7c-1.2,0-1.6,1.1-2.1,2.3
		c-0.6,1.4-0.8,2.9,0.2,2.9h2.8c1.9,0,2.1,1.1,0.7,4c-3,6.3-5.2,11.3-7,15.2c-4.3,9.1-2.2,17.7,5.3,17.7c5.6,0,10-2.6,13.2-5.6"/>
	<path class="st0" d="M669.4,263.3c-0.6-2.6,0.8-5,0.8-5c-2.6-1.4-5.5,0.7-5.8,3.5c-0.9,9.5,11.9,8.1,9.9,21.2
		c-1.1,7.2-8.4,14.7-23.7,13.5c-5.9-0.4-8.3-3.4-9.1-6.6c-1-4.2,1.8-7.3,4.4-8.4c2.8-1.2,6.3,0.1,8.1,3.2c1.6,2.9-1.7,5.9,0.6,7
		c2.5,1.2,7.4-1.9,6-5.9c-3.6-10.5-17-13-10.6-23.4c4.4-7.3,18.5-10.6,28.1-7.3c6.2,2.1,4.8,11.7-1.5,12.3
		C671.5,267.9,669.7,264.6,669.4,263.3z"/>
	<path class="st0" d="M506.7,295h14.4c11.4-23.4,20.1-32.1,24.1-32.1c5.8,0-23.6,33-2.8,33c11.9,0,18.4-12.3,18-13.6
		c-1-3.3-6,5.1-8.9,3.7c-2.3-1.1,11.1-16.7,11.1-23.3c0-3.9-2.1-9-9.2-9c-6.2,0-12.9,5.7-16.6,8.8c1-6.7-1.7-8.9-5.6-8.9
		c-10.7,0-20.3,11.6-19,14.9c0.8,2,4.2-2.9,5.8-2.9C520.3,265.5,509.7,287.3,506.7,295z"/>
	<path class="st0" d="M633,265c-3,0.6-6.3,5.3-18.6,30.3h-14.4c3.4-8,14.9-30.6,12.6-30.6c-1.6,0-3.8,2.2-5.2,0.7
		c-1.3-1.3,9.7-11.8,16.4-11.8c4.6,0,5.7,2.4,4.7,9.1c3-5.1,8.2-9.6,13.3-9.6c4,0,5.4,2.5,5.4,6C647.3,265.3,638,273.4,633,265z"/>
	<path class="st0" d="M579.6,277.8c0,0-6.6,10.5,1.8,10.5c9.1,0,15.7-12,15.7-7.1c0,2.6-8.5,13.8-21.6,13.8c-8.4,0-13.7-4-13.7-11.8
		c0-12.5,16.5-30.4,32.4-30.4c6.3,0,11.5,2.6,11.5,8.5C605.7,266.9,599,273.9,579.6,277.8z M593.1,258.3c-4.6,0-12.6,13.2-8.9,13.2
		C589.7,271.5,597.8,258.3,593.1,258.3z"/>
	<path class="st0" d="M465.9,254c-13.2,0-21.3,9.4-19.5,13.3c0.8,1.7,5.6-5,6.1-3c0.4,1.6-18.9,27.8-0.1,30.9
		c6.2,1,12.3-3.6,17.7-9.7c-0.3,5.6,4.6,9.7,10.1,9.8c8.3,0,24.8-12.5,31.4-33.4c1-4.4-1.7-8-4.9-8c-7.4,0-12.6,9.6-5.4,15.3
		c-5.6,12.7-10.8,18-14.8,18c-4,0,6.9-26.6,9.5-32.4l-14.1,0.1c-9.1,17.5-15.2,29.8-21.6,29.8c-3.2,0,6.6-14.6,9.1-19.5
		C472.2,259.4,472.3,254,465.9,254z"/>
</g>
<g>
	<path class="st0" d="M246.4,312.5h5.6v26.2h-5.6V312.5z"/>
	<path class="st0" d="M286.9,312.5h5.5v26.2h-5.5l-12-17v17h-5.6v-26.2h5.6l12,16.8V312.5z"/>
	<path class="st0" d="M324.6,314.9l-3.5,3.8c-1.8-1.1-3.2-1.6-4-1.6c-0.6,0-1.2,0.2-1.6,0.7c-0.5,0.5-0.7,1-0.7,1.7
		c0,1.3,1.2,2.4,3.5,3.4c1.7,0.7,3,1.4,3.9,2c0.9,0.6,1.6,1.4,2.2,2.5c0.6,1.1,0.9,2.2,0.9,3.4c0,2.2-0.9,4.2-2.7,5.9
		c-1.8,1.7-4,2.5-6.4,2.5c-2.7,0-5.4-1.3-8-3.8l3.7-4.3c1.7,1.7,3.2,2.6,4.7,2.6c0.7,0,1.3-0.3,2-0.9c0.6-0.6,0.9-1.2,0.9-1.9
		c0-1.4-1.4-2.6-4.3-3.6c-1.6-0.6-2.8-1.2-3.5-1.7c-0.7-0.5-1.3-1.3-1.7-2.3c-0.5-1-0.7-2-0.7-3.1c0-2.3,0.8-4.2,2.3-5.7
		c1.5-1.4,3.5-2.2,5.9-2.2C320.2,312.1,322.7,313,324.6,314.9z"/>
	<path class="st0" d="M341.6,312.5h5.6v16c0,1.5,0.4,2.7,1.2,3.6c0.8,0.9,1.9,1.4,3.3,1.4c1.5,0,2.7-0.5,3.6-1.4
		c0.9-0.9,1.3-2.2,1.3-3.9v-15.7h5.5v17c0,1.5-0.4,3-1.2,4.6c-0.8,1.6-2,2.8-3.6,3.7c-1.6,0.9-3.4,1.3-5.4,1.3c-3.6,0-6.2-1-7.9-3
		c-1.7-2-2.5-4.1-2.5-6.3V312.5z"/>
	<path class="st0" d="M379.7,312.5h8.6c2.6,0,4.7,0.7,6.2,2.1c1.5,1.4,2.3,3.3,2.3,5.6c0,1.3-0.4,2.7-1.1,4.2
		c-0.7,1.4-2,2.6-3.9,3.4l7.3,10.9h-6.5l-6.8-10.1h-0.6v10.1h-5.6V312.5z M385.4,317.1v6.8h1.2c2.9,0,4.4-1.2,4.4-3.6
		c0-1-0.4-1.8-1.2-2.3s-1.8-0.9-3.2-0.9H385.4z"/>
	<path class="st0" d="M425,312.5h4.4l10.7,26.2h-5.7l-2.1-5.1h-10l-2.1,5.1h-5.6L425,312.5z M427.1,321.1l-3.1,7.7h6.2L427.1,321.1z
		"/>
	<path class="st0" d="M473.5,312.5h5.5v26.2h-5.5l-12-17v17l-5.6,0v-26.2h5.6l12,16.8V312.5z"/>
	<path class="st0" d="M516.1,313.9v6.4c-2.8-1.7-5.3-2.6-7.4-2.6c-2.1,0-3.8,0.7-5.1,2.2c-1.3,1.5-1.9,3.4-1.9,5.9
		c0,2.3,0.7,4.2,2,5.6c1.3,1.4,3.1,2.1,5.4,2.1c2,0,4.3-0.8,7.1-2.4v6.3c-3.1,1-5.6,1.5-7.7,1.5c-3.5,0-6.5-1.3-9-3.9
		c-2.5-2.6-3.7-5.7-3.7-9.5c0-3.8,1.3-7,3.8-9.6c2.5-2.6,5.6-3.9,9.1-3.9C511,312.1,513.5,312.7,516.1,313.9z"/>
	<path class="st0" d="M532.7,312.5h14.7v5.2h-9.1v5.3h9.1v5.1h-9.1v5.4h9.1v5.2h-14.7V312.5z"/>
</g>
<g>
	<g>
		<path class="st0" d="M169.2,374.5h2.4v15.2h5.7v2.4h-8.1V374.5z"/>
		<path class="st0" d="M184.2,374.5h2.4V392h-2.4V374.5z"/>
		<path class="st0" d="M194.7,374.5h9.7v2.4h-7.4v4.4h7.4v2.4h-7.3v8.4h-2.4V374.5z"/>
		<path class="st0" d="M211.6,374.5h9.7v2.4h-7.4v4.4h7.4v2.4h-7.4v6h7.4v2.4h-9.7V374.5z"/>
	</g>
	<g>
		<path class="st0" d="M242.6,385.4c-0.7,0-1.3-0.2-1.8-0.7s-0.7-1.1-0.7-1.8c0-0.7,0.2-1.3,0.7-1.8c0.5-0.5,1.1-0.7,1.8-0.7
			c0.7,0,1.3,0.2,1.8,0.7c0.5,0.5,0.7,1.1,0.7,1.8c0,0.7-0.2,1.3-0.7,1.8C243.9,385.2,243.3,385.4,242.6,385.4z"/>
	</g>
	<g>
		<path class="st0" d="M263.6,374.5h2.4v6.7h8.4v-6.7h2.4V392h-2.4v-8.4H266v8.4h-2.4V374.5z"/>
		<path class="st0" d="M284.3,383.1c0-2.5,1-4.7,2.9-6.5s4.2-2.7,6.9-2.7c2.6,0,4.9,0.9,6.8,2.7c1.9,1.8,2.8,4,2.8,6.5
			c0,2.7-0.9,4.9-2.8,6.7c-1.9,1.8-4.2,2.7-6.9,2.7c-2.7,0-5-0.9-6.8-2.8C285.2,388,284.3,385.8,284.3,383.1z M301.1,383.2
			c0-1.9-0.7-3.6-2.1-4.9s-3.1-2-5.1-2c-1.9,0-3.6,0.7-5,2c-1.4,1.3-2.1,3-2.1,4.9c0,1.9,0.7,3.5,2.1,4.9s3.2,2,5.2,2
			c1.9,0,3.5-0.7,4.9-2C300.4,386.7,301.1,385.1,301.1,383.2z"/>
		<path class="st0" d="M325.7,373.7l4.8,18.3h-2.3l-2.9-11.2l-5,11.8l-5-11.9l-2.9,11.3H310l4.8-18.3l5.5,13.1L325.7,373.7z"/>
		<path class="st0" d="M337.3,374.5h9.7v2.4h-7.4v4.4h7.4v2.4h-7.4v6h7.4v2.4h-9.7V374.5z"/>
	</g>
	<g>
		<path class="st0" d="M368.4,385.4c-0.7,0-1.3-0.2-1.8-0.7s-0.7-1.1-0.7-1.8c0-0.7,0.2-1.3,0.7-1.8c0.5-0.5,1.1-0.7,1.8-0.7
			c0.7,0,1.3,0.2,1.8,0.7c0.5,0.5,0.7,1.1,0.7,1.8c0,0.7-0.2,1.3-0.7,1.8C369.7,385.2,369.1,385.4,368.4,385.4z"/>
	</g>
	<g>
		<path class="st0" d="M403.5,375.1v2.7c-1.9-0.9-3.6-1.4-5.2-1.4c-2,0-3.8,0.7-5.2,2s-2.1,2.9-2.1,4.8c0,2,0.7,3.6,2.1,4.9
			c1.4,1.3,3.2,2,5.4,2c1.6,0,3.2-0.5,5-1.5v2.7c-1.6,0.8-3.3,1.3-5.2,1.3c-2.7,0-5-0.9-7-2.8c-1.9-1.8-2.9-4.1-2.9-6.7
			c0-2.5,0.9-4.7,2.8-6.5s4.2-2.7,6.9-2.7C399.9,373.9,401.6,374.3,403.5,375.1z"/>
		<path class="st0" d="M417.3,373.8l8.3,18.2h-2.5l-2-4.5h-7.4l-2,4.5h-2.5L417.3,373.8z M417.3,379.3l-2.8,6.3h5.6L417.3,379.3z"/>
		<path class="st0" d="M432.7,374.5h3.8c1.9,0,3.4,0.5,4.6,1.4s1.8,2.1,1.8,3.6c0,1.2-0.4,2.2-1.2,3.1c-0.8,0.9-2,1.5-3.6,1.9
			l5.1,7.5h-2.7l-4.9-7.2h-0.5v7.2h-2.4V374.5z M435.1,376.6v6.1c3.5,0.1,5.3-1,5.3-3.1c0-0.7-0.2-1.4-0.6-1.8s-1-0.8-1.7-1
			S436.4,376.6,435.1,376.6z"/>
	</g>
	<g>
		<path class="st0" d="M465,385.4c-0.7,0-1.3-0.2-1.8-0.7s-0.7-1.1-0.7-1.8c0-0.7,0.2-1.3,0.7-1.8c0.5-0.5,1.1-0.7,1.8-0.7
			c0.7,0,1.3,0.2,1.8,0.7c0.5,0.5,0.7,1.1,0.7,1.8c0,0.7-0.2,1.3-0.7,1.8S465.7,385.4,465,385.4z"/>
	</g>
	<g>
		<path class="st0" d="M486.2,374.5h2.8c1.8,0,3.3,0.4,4.5,1.2c1.2,0.8,1.7,1.8,1.7,3c0,1.5-0.9,2.7-2.6,3.7c2.6,0.9,4,2.4,4,4.6
			c0,1.5-0.7,2.7-2,3.7s-3.2,1.4-5.5,1.4h-2.9V374.5z M488.6,376.6v5.2c1.3,0,2.3-0.3,3-0.8c0.7-0.5,1.1-1.2,1.1-2
			c0-0.7-0.3-1.3-1-1.8c-0.6-0.4-1.5-0.7-2.5-0.7C488.9,376.6,488.7,376.6,488.6,376.6z M488.6,383.9v6h0.2c2.1,0,3.5-0.3,4.2-1
			s1.1-1.3,1.1-2c0-0.9-0.4-1.6-1.3-2.2s-2-0.8-3.5-0.8H488.6z"/>
		<path class="st0" d="M503.8,374.5h2.4v10.8c0,1.6,0.4,2.8,1.2,3.7s1.9,1.3,3.3,1.3c1.4,0,2.5-0.4,3.3-1.2c0.8-0.8,1.2-1.9,1.2-3.4
			v-11.2h2.4v11c0,2.1-0.6,3.9-1.8,5.2s-2.9,1.9-4.9,1.9c-2.1,0-3.8-0.7-5-2c-1.3-1.3-1.9-3.2-1.9-5.8V374.5z"/>
		<path class="st0" d="M536.1,376.4l-1.9,1.6c-0.5-0.5-1-0.9-1.4-1.2s-1-0.4-1.8-0.4c-0.9,0-1.6,0.2-2.1,0.6
			c-0.5,0.4-0.8,0.9-0.8,1.5c0,0.5,0.2,1,0.7,1.4c0.5,0.4,1.3,0.9,2.4,1.3s2,0.9,2.6,1.4c0.6,0.4,1.1,0.9,1.5,1.4
			c0.4,0.5,0.7,1,0.9,1.6c0.2,0.6,0.3,1.2,0.3,1.8c0,1.5-0.5,2.7-1.6,3.7c-1.1,1-2.3,1.5-3.8,1.5c-1.5,0-2.8-0.4-3.9-1.2
			c-1.1-0.8-2-2-2.6-3.6l2.4-0.7c0.9,2,2.2,3,4,3c0.9,0,1.6-0.3,2.2-0.8c0.6-0.5,0.9-1.2,0.9-2c0-0.5-0.2-1-0.5-1.4
			c-0.3-0.5-0.7-0.9-1.1-1.2c-0.5-0.3-1.2-0.7-2.1-1.1s-1.7-0.8-2.3-1.1s-1-0.7-1.4-1.2s-0.7-0.9-0.8-1.4s-0.3-0.9-0.3-1.5
			c0-1.3,0.5-2.3,1.5-3.2c1-0.9,2.2-1.3,3.7-1.3c1,0,1.9,0.2,2.9,0.6S535.5,375.6,536.1,376.4z"/>
		<path class="st0" d="M544,374.5h2.4V392H544V374.5z"/>
		<path class="st0" d="M554.6,373.8l13,13.3v-12.6h2.4v18.4l-13-13.3V392h-2.4V373.8z"/>
		<path class="st0" d="M577.8,374.5h9.7v2.4h-7.4v4.4h7.4v2.4h-7.4v6h7.4v2.4h-9.7V374.5z"/>
		<path class="st0" d="M605.6,376.4l-1.9,1.6c-0.5-0.5-1-0.9-1.4-1.2s-1-0.4-1.8-0.4c-0.9,0-1.6,0.2-2.1,0.6
			c-0.5,0.4-0.8,0.9-0.8,1.5c0,0.5,0.2,1,0.7,1.4c0.5,0.4,1.3,0.9,2.4,1.3s2,0.9,2.6,1.4c0.6,0.4,1.1,0.9,1.5,1.4
			c0.4,0.5,0.7,1,0.9,1.6c0.2,0.6,0.3,1.2,0.3,1.8c0,1.5-0.5,2.7-1.6,3.7c-1.1,1-2.3,1.5-3.8,1.5c-1.5,0-2.8-0.4-3.9-1.2
			c-1.1-0.8-2-2-2.6-3.6l2.4-0.7c0.9,2,2.2,3,4,3c0.9,0,1.6-0.3,2.2-0.8c0.6-0.5,0.9-1.2,0.9-2c0-0.5-0.2-1-0.5-1.4
			c-0.3-0.5-0.7-0.9-1.1-1.2c-0.5-0.3-1.2-0.7-2.1-1.1s-1.7-0.8-2.3-1.1s-1-0.7-1.4-1.2s-0.7-0.9-0.8-1.4s-0.3-0.9-0.3-1.5
			c0-1.3,0.5-2.3,1.5-3.2c1-0.9,2.2-1.3,3.7-1.3c1,0,1.9,0.2,2.9,0.6C604.1,374.9,605,375.6,605.6,376.4z"/>
		<path class="st0" d="M624.2,376.4l-1.9,1.6c-0.5-0.5-1-0.9-1.4-1.2s-1-0.4-1.8-0.4c-0.9,0-1.6,0.2-2.1,0.6
			c-0.5,0.4-0.8,0.9-0.8,1.5c0,0.5,0.2,1,0.7,1.4c0.5,0.4,1.3,0.9,2.4,1.3s2,0.9,2.6,1.4c0.6,0.4,1.1,0.9,1.5,1.4
			c0.4,0.5,0.7,1,0.9,1.6c0.2,0.6,0.3,1.2,0.3,1.8c0,1.5-0.5,2.7-1.6,3.7c-1.1,1-2.3,1.5-3.8,1.5c-1.5,0-2.8-0.4-3.9-1.2
			c-1.1-0.8-2-2-2.6-3.6l2.4-0.7c0.9,2,2.2,3,4,3c0.9,0,1.6-0.3,2.2-0.8c0.6-0.5,0.9-1.2,0.9-2c0-0.5-0.2-1-0.5-1.4
			c-0.3-0.5-0.7-0.9-1.1-1.2c-0.5-0.3-1.2-0.7-2.1-1.1s-1.7-0.8-2.3-1.1s-1-0.7-1.4-1.2c-0.4-0.5-0.7-0.9-0.8-1.4s-0.3-0.9-0.3-1.5
			c0-1.3,0.5-2.3,1.5-3.2c1-0.9,2.2-1.3,3.7-1.3c1,0,1.9,0.2,2.9,0.6S623.6,375.6,624.2,376.4z"/>
	</g>
</g>
<text transform="matrix(1 0 0 1 673.5 296.4995)" class="st0 st1 st2">®</text>
</svg>
