<?xml version="1.0" encoding="utf-8"?>
<!-- Generator: Adobe Illustrator 22.1.0, SVG Export Plug-In . SVG Version: 6.00 Build 0)  -->
<svg version="1.1" id="faccebook-icon" xmlns="http://www.w3.org/2000/svg" xmlns:xlink="http://www.w3.org/1999/xlink" x="0px"
	 y="0px" viewBox="0 0 39.3 39.3" style="enable-background:new 0 0 39.3 39.3;" xml:space="preserve">
<style type="text/css">
	.st0{fill:#FF0062;}
</style>
<path id="base-icon" class="st0" d="M24.5,20.3h-3.2v11.4h-4.7V20.3h-2.3v-4h2.3v-2.6c0-1.9,0.9-4.8,4.8-4.8h3.5v3.9h-2.6
	c-0.6,0-1,0.4-1,1c0,0,0,0.1,0,0.1v2.4h3.6L24.5,20.3z M19.6,0C8.8,0,0,8.8,0,19.6s8.8,19.6,19.6,19.6s19.6-8.8,19.6-19.6l0,0
	C39.3,8.8,30.5,0,19.6,0z"/>
</svg>
