<?xml version="1.0" encoding="utf-8"?>
<!-- Generator: Adobe Illustrator 22.1.0, SVG Export Plug-In . SVG Version: 6.00 Build 0)  -->
<svg version="1.1" id="faccebook-icon" xmlns="http://www.w3.org/2000/svg" xmlns:xlink="http://www.w3.org/1999/xlink" x="0px"
	 y="0px" viewBox="0 0 39.3 39.3" style="enable-background:new 0 0 39.3 39.3;" xml:space="preserve">
<style type="text/css">
	.st0{fill:#FF0062;}
</style>
<path id="glitch-base" class="st0" d="M33.3,31.7h1.8c2.6-3.3,4.2-7.5,4.2-12.1c0-6.4-3.1-12.1-7.8-15.6H26V1.1
	C24,0.4,21.9,0,19.6,0C8.8,0,0,8.8,0,19.6c0,3.7,1,7.1,2.8,10.1h1.5v2.1c3.6,4.5,9.1,7.4,15.4,7.4c5.3,0,10.1-2.1,13.7-5.6V31.7z
	 M24.5,20.3h-3.2v11.4h-4.7V20.3h-2.2v-4h2.2v-2.6c0-1.9,0.9-4.8,4.8-4.8h3.5v3.9h-2.5c-0.6,0-1,0.4-1,1c0,0,0,0.1,0,0.1v2.4h3.6
	L24.5,20.3z"/>
<rect x="29.7" y="0.2" class="st0" width="2.3" height="2.3"/>
<rect x="32.9" y="2.7" class="st0" width="1.2" height="1.2"/>
<rect x="35.1" y="32.2" class="st0" width="1.7" height="1.7"/>
<rect x="1.4" y="30.9" class="st0" width="1.7" height="1.7"/>
<rect x="2.3" y="5.4" class="st0" width="1.4" height="1.4"/>
<rect x="5.3" y="2.4" class="st0" width="1.4" height="1.4"/>
</svg>
