<?xml version="1.0" encoding="utf-8"?>
<!-- Generator: Adobe Illustrator 22.1.0, SVG Export Plug-In . SVG Version: 6.00 Build 0)  -->
<svg version="1.1" id="instagram-icon" xmlns="http://www.w3.org/2000/svg" xmlns:xlink="http://www.w3.org/1999/xlink" x="0px"
	 y="0px" viewBox="0 0 39.1 39.1" style="enable-background:new 0 0 39.1 39.1;" xml:space="preserve">
<style type="text/css">
	.st0{fill:#FF0062;}
</style>
<g id="base-logo">
	<path class="st0" d="M19.6,23.5c2.2,0,3.9-1.8,3.9-3.9c0-2.2-1.8-3.9-3.9-3.9c-2.2,0-3.9,1.7-3.9,3.9
		C15.6,21.7,17.4,23.5,19.6,23.5z"/>
	<polygon class="st0" points="28.1,14.8 28.1,11.5 28.1,11 27.6,11 24.4,11 24.4,14.8 	"/>
	<path class="st0" d="M30.7,17.3v9.1c0,2.4-1.9,4.3-4.3,4.3H12.7c-2.4,0-4.3-1.9-4.3-4.3V12.7c0-2.4,1.9-4.3,4.3-4.3h13.7
		c2.4,0,4.3,1.9,4.3,4.3V17.3z M19.6,0C8.8,0,0,8.8,0,19.6s8.8,19.6,19.6,19.6s19.6-8.8,19.6-19.6l0,0C39.1,8.8,30.4,0,19.6,0z"/>
	<path class="st0" d="M25.7,19.6c0,3.4-2.7,6.1-6.1,6.1c-3.4,0-6.1-2.7-6.1-6.1c0-0.8,0.2-1.6,0.4-2.3h-3.3v9.1c0,1.2,1,2.1,2.1,2.1
		h13.7c1.2,0,2.1-1,2.1-2.1v-9.1h-3.3C25.5,18,25.7,18.8,25.7,19.6z"/>
</g>
</svg>
