<?xml version="1.0" encoding="utf-8"?>
<!-- Generator: Adobe Illustrator 22.1.0, SVG Export Plug-In . SVG Version: 6.00 Build 0)  -->
<svg version="1.1" id="twitter-icon" xmlns="http://www.w3.org/2000/svg" xmlns:xlink="http://www.w3.org/1999/xlink" x="0px"
	 y="0px" viewBox="0 0 39.1 39.1" style="enable-background:new 0 0 39.1 39.1;" xml:space="preserve">
<style type="text/css">
	.st0{fill:#FF0062;}
</style>
<path id="base-logo" class="st0" d="M28.3,15.1c0,0.2,0,0.4,0,0.6c0,7.1-5.7,12.8-12.8,12.8c-2.4,0-4.8-0.7-6.9-2
	c2.4,0.3,4.8-0.4,6.7-1.9c-1.9,0-3.6-1.3-4.2-3.1c0.7,0.1,1.3,0.1,2-0.1C11,20.9,9.5,19.1,9.5,17c0,0,0,0,0-0.1
	c0.6,0.3,1.3,0.5,2,0.6c-2-1.3-2.6-3.9-1.4-6c2.3,2.8,5.7,4.5,9.3,4.7c-0.6-2.4,0.9-4.9,3.4-5.4c1.6-0.4,3.2,0.1,4.3,1.3
	c1-0.2,2-0.6,2.9-1.1c-0.3,1-1.1,1.9-2,2.5c0.9-0.1,1.8-0.3,2.6-0.7C29.9,13.7,29.2,14.5,28.3,15.1z M19.6,0C8.8,0,0,8.8,0,19.6
	s8.8,19.6,19.6,19.6s19.6-8.8,19.6-19.6l0,0C39.1,8.8,30.4,0,19.6,0z"/>
</svg>
