<?xml version="1.0" encoding="utf-8"?>
<!-- Generator: Adobe Illustrator 23.0.1, SVG Export Plug-In . SVG Version: 6.00 Build 0)  -->
<svg version="1.1" id="Layer_1" xmlns="http://www.w3.org/2000/svg" xmlns:xlink="http://www.w3.org/1999/xlink" x="0px" y="0px"
	 viewBox="0 0 92.79 28" style="enable-background:new 0 0 92.79 28;" xml:space="preserve">
<style type="text/css">
	.st0{display:none;}
	.st1{fill:#FFFFFF;}
</style>
<rect x="0.02" class="st0" width="92.79" height="28"/>
<g id="icon">
	<path class="st1" d="M9.3,5.67v0.21c0,0.27,0.22,0.49,0.49,0.49h3.99c0.27,0,0.49-0.22,0.49-0.49V5.67c0-0.27-0.22-0.49-0.49-0.49
		H9.79C9.52,5.18,9.3,5.4,9.3,5.67z"/>
	<path class="st1" d="M4.56,21.79V22c0,0.27,0.22,0.49,0.49,0.49h3.99c0.27,0,0.49-0.22,0.49-0.49v-0.21c0-0.27-0.22-0.49-0.49-0.49
		H5.05C4.78,21.3,4.56,21.52,4.56,21.79z"/>
	<path class="st1" d="M0.04,13.89v0.21c0,0.27,0.22,0.49,0.49,0.49h3.99c0.27,0,0.49-0.22,0.49-0.49v-0.21
		c0-0.27-0.22-0.49-0.49-0.49H0.53C0.26,13.41,0.04,13.62,0.04,13.89z"/>
	<g>
		<path class="st1" d="M12.67,6.67V25.9c0,0.31-0.25,0.57-0.57,0.57h-0.64c-0.31,0-0.57-0.25-0.57-0.57V6.67H12.67z"/>
		<rect x="10.9" y="2.67" class="st1" width="1.78" height="2.21"/>
	</g>
	<g>
		<path class="st1" d="M6.27,21.01V2.13c0-0.31,0.25-0.57,0.57-0.57h0.64c0.31,0,0.57,0.25,0.57,0.57v18.88H6.27z"/>
		<rect x="6.27" y="22.79" class="st1" width="1.78" height="2.89"/>
	</g>
	<g>
		<path class="st1" d="M3.41,14.82V25.9c0,0.31-0.25,0.57-0.57,0.57H2.2c-0.31,0-0.57-0.25-0.57-0.57V14.82H3.41z"/>
		<rect x="1.64" y="2.67" class="st1" width="1.78" height="10.36"/>
	</g>
	<g id="dots">
		<rect x="1.59" y="1.2" class="st1" width="0.65" height="0.65"/>
		<rect x="1.19" y="0.28" class="st1" width="0.48" height="0.48"/>
		<rect x="2.96" y="1.63" class="st1" width="0.45" height="0.45"/>
		<rect x="2.45" y="0.62" class="st1" width="0.29" height="0.29"/>
		<rect x="3.37" y="0.28" class="st1" width="0.96" height="0.96"/>
		
			<rect x="12.3" y="0.28" transform="matrix(-1 4.457933e-11 -4.457933e-11 -1 25.257 1.2198)" class="st1" width="0.65" height="0.65"/>
		
			<rect x="12.87" y="1.38" transform="matrix(-1 5.257382e-11 -5.257382e-11 -1 26.2258 3.238)" class="st1" width="0.48" height="0.48"/>
		
			<rect x="11.13" y="0.05" transform="matrix(-1 5.624156e-11 -5.624156e-11 -1 22.7137 0.5583)" class="st1" width="0.45" height="0.45"/>
		
			<rect x="11.81" y="1.23" transform="matrix(-1 5.098310e-11 -5.098310e-11 -1 23.9047 2.7537)" class="st1" width="0.29" height="0.29"/>
		
			<rect x="10.22" y="0.9" transform="matrix(-1 4.736377e-11 -4.736377e-11 -1 21.3912 2.7537)" class="st1" width="0.96" height="0.96"/>
		<rect x="6.02" y="26.42" class="st1" width="0.65" height="0.65"/>
		<rect x="5.62" y="27.51" class="st1" width="0.48" height="0.48"/>
		<rect x="7.39" y="26.19" class="st1" width="0.45" height="0.45"/>
		<rect x="6.88" y="27.37" class="st1" width="0.29" height="0.29"/>
		<rect x="7.8" y="27.03" class="st1" width="0.96" height="0.96"/>
	</g>
</g>
<g>
	<path class="st1" d="M37.6,21.96h-2.27l-1.86-4.91h-7.42l-1.75,4.91h-2.28l6.71-17.5h2.12L37.6,21.96z M32.8,15.21l-2.75-7.46
		c-0.09-0.24-0.18-0.63-0.27-1.17h-0.05c-0.08,0.5-0.18,0.89-0.28,1.17l-2.72,7.46H32.8z"/>
	<path class="st1" d="M50.58,21.96h-2v-2.12h-0.05c-0.93,1.61-2.36,2.42-4.3,2.42c-1.57,0-2.83-0.56-3.77-1.68
		c-0.94-1.12-1.41-2.64-1.41-4.57c0-2.07,0.52-3.72,1.56-4.97c1.04-1.25,2.43-1.87,4.16-1.87c1.72,0,2.97,0.68,3.75,2.03h0.05V3.45
		h2V21.96z M48.57,16.31v-1.84c0-1.01-0.33-1.86-1-2.56c-0.67-0.7-1.51-1.05-2.54-1.05c-1.22,0-2.18,0.45-2.88,1.34
		c-0.7,0.9-1.05,2.13-1.05,3.71c0,1.44,0.34,2.58,1.01,3.41c0.67,0.83,1.57,1.25,2.7,1.25c1.11,0,2.02-0.4,2.72-1.21
		C48.23,18.55,48.57,17.54,48.57,16.31z"/>
	<path class="st1" d="M72.38,21.96h-2v-7.18c0-1.38-0.21-2.38-0.64-3c-0.43-0.62-1.15-0.93-2.15-0.93c-0.85,0-1.58,0.39-2.18,1.17
		c-0.6,0.78-0.9,1.72-0.9,2.81v7.13h-2v-7.42c0-2.46-0.95-3.69-2.84-3.69c-0.88,0-1.6,0.37-2.17,1.1c-0.57,0.74-0.85,1.7-0.85,2.88
		v7.13h-2V9.46h2v1.98h0.05c0.89-1.51,2.18-2.27,3.88-2.27c0.85,0,1.6,0.24,2.23,0.71c0.63,0.48,1.07,1.1,1.31,1.87
		c0.93-1.73,2.31-2.59,4.15-2.59c2.75,0,4.13,1.7,4.13,5.09V21.96z"/>
	<path class="st1" d="M77.19,6.29c-0.36,0-0.66-0.12-0.92-0.37c-0.25-0.24-0.38-0.55-0.38-0.93c0-0.37,0.13-0.69,0.38-0.93
		c0.25-0.25,0.56-0.37,0.92-0.37c0.37,0,0.68,0.12,0.93,0.37c0.26,0.25,0.38,0.56,0.38,0.93c0,0.36-0.13,0.66-0.38,0.92
		C77.86,6.16,77.55,6.29,77.19,6.29z M78.16,21.96h-2V9.46h2V21.96z"/>
	<path class="st1" d="M92.59,21.96h-2v-7.13c0-2.65-0.97-3.98-2.91-3.98c-1,0-1.83,0.38-2.48,1.13c-0.65,0.75-0.98,1.7-0.98,2.85
		v7.13h-2V9.46h2v2.08h0.05c0.94-1.58,2.31-2.37,4.1-2.37c1.37,0,2.41,0.44,3.14,1.32c0.72,0.88,1.09,2.16,1.09,3.83V21.96z"/>
</g>
</svg>
