<?xml version="1.0" encoding="utf-8"?>
<!-- Generator: Adobe Illustrator 23.0.1, SVG Export Plug-In . SVG Version: 6.00 Build 0)  -->
<svg version="1.1" xmlns="http://www.w3.org/2000/svg" xmlns:xlink="http://www.w3.org/1999/xlink" x="0px" y="0px"
	 viewBox="0 0 161.24 28" style="enable-background:new 0 0 161.24 28;" xml:space="preserve">
<style type="text/css">
	.st0{display:none;}
	.st1{fill:#FFFFFF;}
	.st2{display:inline;fill:#FFFFFF;}
</style>
<g id="Layer_1">
	<rect class="st0" width="161.24" height="28"/>
	<g>
		<path class="st1" d="M54.79,21.96h-2.27l-1.86-4.91h-7.42l-1.75,4.91h-2.28l6.71-17.5h2.12L54.79,21.96z M49.99,15.21l-2.75-7.46
			c-0.09-0.24-0.18-0.63-0.27-1.17h-0.05c-0.08,0.5-0.18,0.89-0.28,1.17l-2.72,7.46H49.99z"/>
		<path class="st1" d="M59.14,20.15h-0.05v7.56h-2V9.46h2v2.2h0.05c0.98-1.66,2.42-2.49,4.32-2.49c1.61,0,2.87,0.56,3.77,1.68
			c0.9,1.12,1.35,2.62,1.35,4.5c0,2.09-0.51,3.77-1.53,5.02c-1.02,1.26-2.41,1.89-4.17,1.89C61.27,22.25,60.02,21.55,59.14,20.15z
			 M59.09,15.11v1.75c0,1.03,0.34,1.91,1.01,2.63c0.67,0.72,1.52,1.08,2.56,1.08c1.21,0,2.16-0.46,2.85-1.39
			c0.69-0.93,1.03-2.22,1.03-3.87c0-1.39-0.32-2.48-0.96-3.27c-0.64-0.79-1.51-1.18-2.61-1.18c-1.16,0-2.1,0.4-2.81,1.21
			C59.45,12.88,59.09,13.89,59.09,15.11z"/>
		<path class="st1" d="M73.84,20.15h-0.05v7.56h-2V9.46h2v2.2h0.05c0.98-1.66,2.42-2.49,4.32-2.49c1.61,0,2.87,0.56,3.77,1.68
			c0.9,1.12,1.35,2.62,1.35,4.5c0,2.09-0.51,3.77-1.53,5.02c-1.02,1.26-2.41,1.89-4.17,1.89C75.97,22.25,74.72,21.55,73.84,20.15z
			 M73.79,15.11v1.75c0,1.03,0.34,1.91,1.01,2.63c0.67,0.72,1.52,1.08,2.56,1.08c1.21,0,2.16-0.46,2.85-1.39
			c0.69-0.93,1.03-2.22,1.03-3.87c0-1.39-0.32-2.48-0.96-3.27c-0.64-0.79-1.51-1.18-2.61-1.18c-1.16,0-2.1,0.4-2.81,1.21
			C74.15,12.88,73.79,13.89,73.79,15.11z"/>
		<path class="st1" d="M88.49,21.96h-2V3.45h2V21.96z"/>
		<path class="st1" d="M102.49,9.46l-5.75,14.5c-1.03,2.59-2.47,3.88-4.32,3.88c-0.52,0-0.96-0.05-1.31-0.16v-1.79
			c0.43,0.15,0.83,0.22,1.18,0.22c1.01,0,1.77-0.6,2.27-1.81l1-2.37L90.69,9.46h2.22l3.38,9.62c0.04,0.12,0.13,0.44,0.26,0.95h0.07
			c0.04-0.2,0.12-0.5,0.24-0.93l3.55-9.64H102.49z"/>
		<path class="st1" d="M125.87,21.96h-2.51l-9.01-13.95c-0.23-0.35-0.42-0.72-0.56-1.1h-0.07c0.06,0.37,0.1,1.18,0.1,2.4v12.65
			h-2.05V4.45h2.66l8.76,13.73c0.37,0.57,0.6,0.96,0.71,1.17h0.05c-0.08-0.5-0.12-1.36-0.12-2.58V4.45h2.05V21.96z"/>
		<path class="st1" d="M135.41,22.25c-1.85,0-3.32-0.58-4.42-1.75c-1.1-1.17-1.65-2.72-1.65-4.64c0-2.1,0.57-3.74,1.72-4.92
			c1.15-1.18,2.7-1.77,4.65-1.77c1.86,0,3.32,0.57,4.36,1.72c1.05,1.15,1.57,2.74,1.57,4.77c0,1.99-0.56,3.59-1.69,4.79
			C138.82,21.65,137.31,22.25,135.41,22.25z M135.56,10.85c-1.29,0-2.3,0.44-3.05,1.31c-0.75,0.87-1.12,2.08-1.12,3.62
			c0,1.48,0.38,2.65,1.14,3.5c0.76,0.86,1.77,1.28,3.04,1.28c1.29,0,2.29-0.42,2.98-1.26c0.7-0.84,1.04-2.03,1.04-3.58
			c0-1.56-0.35-2.77-1.04-3.61C137.85,11.27,136.85,10.85,135.56,10.85z"/>
		<path class="st1" d="M160.58,9.46l-3.75,12.5h-2.08l-2.58-8.95c-0.1-0.34-0.16-0.73-0.2-1.16h-0.05
			c-0.02,0.29-0.11,0.67-0.26,1.14l-2.8,8.97h-2l-3.78-12.5h2.1l2.59,9.4c0.08,0.29,0.14,0.66,0.17,1.12h0.1
			c0.02-0.36,0.1-0.74,0.22-1.15l2.88-9.38h1.83l2.59,9.42c0.08,0.3,0.14,0.68,0.18,1.12h0.1c0.02-0.32,0.09-0.69,0.21-1.12
			l2.54-9.42H160.58z"/>
	</g>
	<g id="icon">
		<rect x="0.88" y="7.78" class="st1" width="2.25" height="2.25"/>
		<rect x="6.52" y="1.5" class="st1" width="1.88" height="1.88"/>
		<rect x="0.05" y="6.12" class="st1" width="1.08" height="1.08"/>
		<rect x="4.25" y="0.19" class="st1" width="1.53" height="1.53"/>
		<rect x="4.25" y="0.19" class="st1" width="1.53" height="1.53"/>
		<rect x="5.01" y="2.01" class="st1" width="1.08" height="1.08"/>
		
			<rect x="20.57" y="2.21" transform="matrix(0.8175 0.5759 -0.5759 0.8175 11.1131 -10.0792)" class="st1" width="1.78" height="20.56"/>
		<g>
			<path class="st1" d="M20.1,11.76l2.46-3.49c-0.51-3.25,1.1-5.13,1.19-5.22l2.61-2.81H8.95v3.34H19.7
				C19.01,5.48,18.66,8.29,20.1,11.76z"/>
			<path class="st1" d="M23.91,11.94l-2.19,3.11c1.72,4.08,0.49,7.83-0.22,9.42H5.62c0.94-2.78,1.73-7.51-1.11-12.41
				c-0.13-0.23-0.25-0.45-0.36-0.68H0.49c0.29,0.75,0.66,1.54,1.13,2.35c3.35,5.79,0.17,11.3,0.01,11.55L0.1,27.81h23.37l0.49-0.81
				c0.18-0.3,4.38-7.41,0.02-14.95C23.95,12.02,23.93,11.98,23.91,11.94z"/>
		</g>
		<polygon class="st1" points="24.52,11.81 24.01,11.45 26.86,7.44 26.65,6.66 27.61,5.31 28.06,6.81 		"/>
		<path class="st1" d="M26.95,4.84l-0.12-0.08c-0.21-0.15-0.26-0.43-0.11-0.64l1.46-2.07c0.15-0.21,0.43-0.26,0.64-0.11l0.12,0.08
			c0.21,0.15,0.26,0.43,0.11,0.64l-1.46,2.07C27.44,4.93,27.15,4.98,26.95,4.84z"/>
		<polygon class="st1" points="14.78,22.56 14.25,22.19 14.81,20.39 16.26,21.41 		"/>
		<polygon class="st1" points="14.78,22.56 14.25,22.19 14.14,22.88 		"/>
	</g>
</g>
<g id="spacing" class="st0">
	<rect x="0.1" y="0.19" class="st2" width="29.04" height="27.63"/>
	<rect x="29.13" y="22.04" class="st2" width="16.12" height="5.78"/>
</g>
</svg>
