<?xml version="1.0" encoding="utf-8"?>
<!-- Generator: Adobe Illustrator 23.0.1, SVG Export Plug-In . SVG Version: 6.00 Build 0)  -->
<svg version="1.1" xmlns="http://www.w3.org/2000/svg" xmlns:xlink="http://www.w3.org/1999/xlink" x="0px" y="0px"
	 viewBox="0 0 272.55 28" style="enable-background:new 0 0 272.55 28;" xml:space="preserve">
<style type="text/css">
	.st0{display:none;}
	.st1{fill:#FFFFFF;}
	.st2{display:inline;fill:#FFFFFF;}
</style>
<g id="Layer_1">
	<rect class="st0" width="272.55" height="28"/>
	<g>
		<path class="st1" d="M54.79,21.96h-2.27l-1.86-4.91h-7.42l-1.75,4.91h-2.28l6.71-17.5h2.12L54.79,21.96z M49.99,15.21l-2.75-7.46
			c-0.09-0.24-0.18-0.63-0.27-1.17h-0.05c-0.08,0.5-0.18,0.89-0.28,1.17l-2.72,7.46H49.99z"/>
		<path class="st1" d="M59.14,20.15h-0.05v7.56h-2V9.46h2v2.2h0.05c0.98-1.66,2.42-2.49,4.32-2.49c1.61,0,2.87,0.56,3.77,1.68
			c0.9,1.12,1.35,2.62,1.35,4.5c0,2.09-0.51,3.77-1.53,5.02c-1.02,1.26-2.41,1.89-4.17,1.89C61.27,22.25,60.02,21.55,59.14,20.15z
			 M59.09,15.11v1.75c0,1.03,0.34,1.91,1.01,2.63c0.67,0.72,1.52,1.08,2.56,1.08c1.21,0,2.16-0.46,2.85-1.39
			c0.69-0.93,1.03-2.22,1.03-3.87c0-1.39-0.32-2.48-0.96-3.27c-0.64-0.79-1.51-1.18-2.61-1.18c-1.16,0-2.1,0.4-2.81,1.21
			C59.45,12.88,59.09,13.89,59.09,15.11z"/>
		<path class="st1" d="M73.84,20.15h-0.05v7.56h-2V9.46h2v2.2h0.05c0.98-1.66,2.42-2.49,4.32-2.49c1.61,0,2.87,0.56,3.77,1.68
			c0.9,1.12,1.35,2.62,1.35,4.5c0,2.09-0.51,3.77-1.53,5.02c-1.02,1.26-2.41,1.89-4.17,1.89C75.97,22.25,74.72,21.55,73.84,20.15z
			 M73.79,15.11v1.75c0,1.03,0.34,1.91,1.01,2.63c0.67,0.72,1.52,1.08,2.56,1.08c1.21,0,2.16-0.46,2.85-1.39
			c0.69-0.93,1.03-2.22,1.03-3.87c0-1.39-0.32-2.48-0.96-3.27c-0.64-0.79-1.51-1.18-2.61-1.18c-1.16,0-2.1,0.4-2.81,1.21
			C74.15,12.88,73.79,13.89,73.79,15.11z"/>
		<path class="st1" d="M88.49,21.96h-2V3.45h2V21.96z"/>
		<path class="st1" d="M102.49,9.46l-5.75,14.5c-1.03,2.59-2.47,3.88-4.32,3.88c-0.52,0-0.96-0.05-1.31-0.16v-1.79
			c0.43,0.15,0.83,0.22,1.18,0.22c1.01,0,1.77-0.6,2.27-1.81l1-2.37L90.69,9.46h2.22l3.38,9.62c0.04,0.12,0.13,0.44,0.26,0.95h0.07
			c0.04-0.2,0.12-0.5,0.24-0.93l3.55-9.64H102.49z"/>
		<path class="st1" d="M117.66,5.21c-0.39-0.22-0.83-0.33-1.33-0.33c-1.4,0-2.1,0.88-2.1,2.65v1.93h2.93v1.71h-2.93v10.79h-1.99
			V11.17h-2.14V9.46h2.14V7.43c0-1.31,0.38-2.35,1.14-3.11c0.76-0.76,1.7-1.14,2.83-1.14c0.61,0,1.09,0.07,1.45,0.22V5.21z"/>
		<path class="st1" d="M124.54,22.25c-1.85,0-3.32-0.58-4.42-1.75c-1.1-1.17-1.65-2.72-1.65-4.64c0-2.1,0.57-3.74,1.72-4.92
			c1.15-1.18,2.7-1.77,4.65-1.77c1.86,0,3.32,0.57,4.36,1.72c1.05,1.15,1.57,2.74,1.57,4.77c0,1.99-0.56,3.59-1.69,4.79
			C127.94,21.65,126.43,22.25,124.54,22.25z M124.68,10.85c-1.29,0-2.3,0.44-3.05,1.31c-0.75,0.87-1.12,2.08-1.12,3.62
			c0,1.48,0.38,2.65,1.14,3.5c0.76,0.86,1.77,1.28,3.04,1.28c1.29,0,2.29-0.42,2.98-1.26c0.7-0.84,1.04-2.03,1.04-3.58
			c0-1.56-0.35-2.77-1.04-3.61C126.97,11.27,125.98,10.85,124.68,10.85z"/>
		<path class="st1" d="M140.48,11.49c-0.35-0.27-0.85-0.4-1.51-0.4c-0.85,0-1.57,0.4-2.14,1.21c-0.57,0.81-0.86,1.9-0.86,3.3v6.37
			h-2V9.46h2v2.58h0.05c0.28-0.88,0.72-1.56,1.31-2.06c0.59-0.49,1.24-0.74,1.97-0.74c0.52,0,0.92,0.06,1.2,0.17V11.49z"/>
		<path class="st1" d="M148.95,21.25v-2.42c0.28,0.24,0.61,0.46,0.99,0.66c0.39,0.2,0.79,0.36,1.22,0.49
			c0.43,0.13,0.86,0.24,1.29,0.31c0.43,0.07,0.83,0.11,1.2,0.11c1.26,0,2.2-0.23,2.83-0.7c0.62-0.47,0.93-1.14,0.93-2.02
			c0-0.47-0.1-0.88-0.31-1.23c-0.21-0.35-0.49-0.67-0.86-0.96c-0.37-0.29-0.8-0.57-1.3-0.83c-0.5-0.26-1.04-0.54-1.62-0.84
			c-0.61-0.31-1.18-0.62-1.71-0.94c-0.53-0.32-0.99-0.67-1.38-1.05c-0.39-0.38-0.7-0.82-0.92-1.3c-0.22-0.48-0.34-1.05-0.34-1.7
			c0-0.8,0.17-1.49,0.52-2.08c0.35-0.59,0.81-1.08,1.38-1.46c0.57-0.38,1.22-0.67,1.95-0.85c0.73-0.19,1.47-0.28,2.23-0.28
			c1.73,0,2.98,0.21,3.77,0.62v2.31c-1.03-0.72-2.36-1.07-3.98-1.07c-0.45,0-0.9,0.05-1.34,0.14c-0.45,0.09-0.85,0.25-1.2,0.46
			c-0.35,0.21-0.63,0.48-0.85,0.82c-0.22,0.33-0.33,0.74-0.33,1.22c0,0.45,0.08,0.83,0.25,1.16c0.17,0.33,0.41,0.62,0.74,0.89
			c0.33,0.27,0.72,0.53,1.19,0.78c0.47,0.25,1.01,0.53,1.62,0.83c0.63,0.31,1.22,0.63,1.78,0.98s1.05,0.72,1.48,1.14
			c0.42,0.42,0.76,0.88,1.01,1.38c0.25,0.5,0.37,1.08,0.37,1.73c0,0.86-0.17,1.59-0.51,2.19c-0.34,0.6-0.79,1.08-1.37,1.46
			c-0.57,0.38-1.23,0.65-1.98,0.81c-0.75,0.17-1.54,0.25-2.37,0.25c-0.28,0-0.62-0.02-1.03-0.07c-0.41-0.04-0.82-0.11-1.25-0.2
			c-0.42-0.08-0.82-0.19-1.2-0.32C149.48,21.55,149.18,21.41,148.95,21.25z"/>
		<path class="st1" d="M164.83,20.15h-0.05v7.56h-2V9.46h2v2.2h0.05c0.98-1.66,2.42-2.49,4.32-2.49c1.61,0,2.87,0.56,3.77,1.68
			c0.9,1.12,1.35,2.62,1.35,4.5c0,2.09-0.51,3.77-1.53,5.02c-1.02,1.26-2.41,1.89-4.17,1.89C166.96,22.25,165.71,21.55,164.83,20.15
			z M164.78,15.11v1.75c0,1.03,0.34,1.91,1.01,2.63c0.67,0.72,1.52,1.08,2.56,1.08c1.21,0,2.16-0.46,2.85-1.39
			c0.69-0.93,1.03-2.22,1.03-3.87c0-1.39-0.32-2.48-0.96-3.27c-0.64-0.79-1.51-1.18-2.61-1.18c-1.16,0-2.1,0.4-2.81,1.21
			C165.14,12.88,164.78,13.89,164.78,15.11z"/>
		<path class="st1" d="M186.43,21.96h-2v-1.95h-0.05c-0.87,1.5-2.15,2.25-3.85,2.25c-1.25,0-2.22-0.33-2.92-0.99
			c-0.7-0.66-1.06-1.53-1.06-2.63c0-2.34,1.38-3.69,4.13-4.08l3.75-0.52c0-2.12-0.86-3.19-2.58-3.19c-1.51,0-2.86,0.51-4.08,1.54
			v-2.05c1.23-0.78,2.64-1.17,4.25-1.17c2.94,0,4.41,1.55,4.41,4.66V21.96z M184.42,15.64l-3.02,0.42c-0.93,0.13-1.63,0.36-2.1,0.69
			c-0.47,0.33-0.71,0.91-0.71,1.75c0,0.61,0.22,1.11,0.65,1.5c0.44,0.39,1.01,0.58,1.74,0.58c0.99,0,1.81-0.35,2.46-1.04
			c0.65-0.7,0.97-1.58,0.97-2.64V15.64z"/>
		<path class="st1" d="M196.72,11.49c-0.35-0.27-0.85-0.4-1.51-0.4c-0.85,0-1.57,0.4-2.14,1.21c-0.57,0.81-0.86,1.9-0.86,3.3v6.37
			h-2V9.46h2v2.58h0.05c0.28-0.88,0.72-1.56,1.31-2.06c0.59-0.49,1.24-0.74,1.97-0.74c0.52,0,0.92,0.06,1.2,0.17V11.49z"/>
		<path class="st1" d="M204.69,21.84c-0.47,0.26-1.09,0.39-1.87,0.39c-2.19,0-3.28-1.22-3.28-3.66v-7.4h-2.15V9.46h2.15V6.41l2-0.65
			v3.7h3.15v1.71h-3.15v7.04c0,0.84,0.14,1.44,0.43,1.79c0.28,0.36,0.76,0.54,1.42,0.54c0.5,0,0.94-0.14,1.31-0.42V21.84z"/>
		<path class="st1" d="M216.31,21.96h-2v-1.95h-0.05c-0.87,1.5-2.15,2.25-3.85,2.25c-1.25,0-2.22-0.33-2.92-0.99
			c-0.7-0.66-1.06-1.53-1.06-2.63c0-2.34,1.38-3.69,4.13-4.08l3.75-0.52c0-2.12-0.86-3.19-2.58-3.19c-1.51,0-2.86,0.51-4.08,1.54
			v-2.05c1.23-0.78,2.64-1.17,4.25-1.17c2.94,0,4.41,1.55,4.41,4.66V21.96z M214.31,15.64l-3.02,0.42c-0.93,0.13-1.63,0.36-2.1,0.69
			c-0.47,0.33-0.71,0.91-0.71,1.75c0,0.61,0.22,1.11,0.65,1.5c0.44,0.39,1.01,0.58,1.74,0.58c0.99,0,1.81-0.35,2.46-1.04
			c0.65-0.7,0.97-1.58,0.97-2.64V15.64z"/>
		<path class="st1" d="M233.51,21.96h-2.05v-7.98h-9.06v7.98h-2.05V4.45h2.05v7.68h9.06V4.45h2.05V21.96z"/>
		<path class="st1" d="M246.78,21.96h-2v-1.95h-0.05c-0.87,1.5-2.15,2.25-3.85,2.25c-1.25,0-2.22-0.33-2.92-0.99
			c-0.7-0.66-1.06-1.53-1.06-2.63c0-2.34,1.38-3.69,4.13-4.08l3.75-0.52c0-2.12-0.86-3.19-2.58-3.19c-1.51,0-2.86,0.51-4.08,1.54
			v-2.05c1.23-0.78,2.64-1.17,4.25-1.17c2.94,0,4.41,1.55,4.41,4.66V21.96z M244.78,15.64l-3.02,0.42c-0.93,0.13-1.63,0.36-2.1,0.69
			c-0.47,0.33-0.71,0.91-0.71,1.75c0,0.61,0.22,1.11,0.65,1.5c0.44,0.39,1.01,0.58,1.74,0.58c0.99,0,1.81-0.35,2.46-1.04
			c0.65-0.7,0.97-1.58,0.97-2.64V15.64z"/>
		<path class="st1" d="M259.07,21.38c-0.96,0.58-2.1,0.87-3.42,0.87c-1.78,0-3.22-0.58-4.32-1.74c-1.09-1.16-1.64-2.66-1.64-4.51
			c0-2.06,0.59-3.71,1.77-4.96c1.18-1.25,2.75-1.87,4.72-1.87c1.1,0,2.07,0.2,2.91,0.61v2.05c-0.93-0.65-1.92-0.98-2.98-0.98
			c-1.28,0-2.33,0.46-3.14,1.37c-0.82,0.92-1.23,2.12-1.23,3.61c0,1.46,0.38,2.62,1.15,3.47c0.77,0.85,1.8,1.27,3.09,1.27
			c1.09,0,2.12-0.36,3.08-1.09V21.38z"/>
		<path class="st1" d="M272.47,21.96h-2.81l-5.52-6.01h-0.05v6.01h-2V3.45h2v11.73h0.05l5.25-5.73h2.62l-5.8,6.03L272.47,21.96z"/>
	</g>
	<g id="icon">
		<rect x="0.88" y="7.78" class="st1" width="2.25" height="2.25"/>
		<rect x="6.52" y="1.5" class="st1" width="1.88" height="1.88"/>
		<rect x="0.05" y="6.12" class="st1" width="1.08" height="1.08"/>
		<rect x="4.25" y="0.19" class="st1" width="1.53" height="1.53"/>
		<rect x="4.25" y="0.19" class="st1" width="1.53" height="1.53"/>
		<rect x="5.01" y="2.01" class="st1" width="1.08" height="1.08"/>
		
			<rect x="20.57" y="2.21" transform="matrix(0.8175 0.5759 -0.5759 0.8175 11.1131 -10.0792)" class="st1" width="1.78" height="20.56"/>
		<g>
			<path class="st1" d="M20.1,11.76l2.46-3.49c-0.51-3.25,1.1-5.13,1.19-5.22l2.61-2.81H8.95v3.34H19.7
				C19.01,5.48,18.66,8.29,20.1,11.76z"/>
			<path class="st1" d="M23.91,11.94l-2.19,3.11c1.72,4.08,0.49,7.83-0.22,9.42H5.62c0.94-2.78,1.73-7.51-1.11-12.41
				c-0.13-0.23-0.25-0.45-0.36-0.68H0.49c0.29,0.75,0.66,1.54,1.13,2.35c3.35,5.79,0.17,11.3,0.01,11.55L0.1,27.81h23.37l0.49-0.81
				c0.18-0.3,4.38-7.41,0.02-14.95C23.95,12.02,23.93,11.98,23.91,11.94z"/>
		</g>
		<polygon class="st1" points="24.52,11.81 24.01,11.45 26.86,7.44 26.65,6.66 27.61,5.31 28.06,6.81 		"/>
		<path class="st1" d="M26.95,4.84l-0.12-0.08c-0.21-0.15-0.26-0.43-0.11-0.64l1.46-2.07c0.15-0.21,0.43-0.26,0.64-0.11l0.12,0.08
			c0.21,0.15,0.26,0.43,0.11,0.64l-1.46,2.07C27.44,4.93,27.15,4.98,26.95,4.84z"/>
		<polygon class="st1" points="14.78,22.56 14.25,22.19 14.81,20.39 16.26,21.41 		"/>
		<polygon class="st1" points="14.78,22.56 14.25,22.19 14.14,22.88 		"/>
	</g>
</g>
<g id="spacing" class="st0">
	<rect x="0.1" y="0.19" class="st2" width="29.04" height="27.63"/>
	<rect x="29.13" y="22.04" class="st2" width="16.12" height="5.78"/>
</g>
</svg>
