<?xml version="1.0" encoding="utf-8"?>
<!-- Generator: Adobe Illustrator 23.0.1, SVG Export Plug-In . SVG Version: 6.00 Build 0)  -->
<svg version="1.1" id="Layer_1" xmlns="http://www.w3.org/2000/svg" xmlns:xlink="http://www.w3.org/1999/xlink" x="0px" y="0px"
	 viewBox="0 0 195 28" style="enable-background:new 0 0 195 28;" xml:space="preserve">
<style type="text/css">
	.st0{display:none;}
	.st1{fill:#FFFFFF;}
</style>
<rect class="st0" width="195" height="28"/>
<g>
	<path class="st1" d="M40.85,21.23c-1.29,0.68-2.91,1.03-4.83,1.03c-2.49,0-4.48-0.8-5.98-2.4c-1.5-1.6-2.25-3.71-2.25-6.31
		c0-2.8,0.84-5.06,2.53-6.79s3.82-2.59,6.41-2.59c1.66,0,3.04,0.24,4.13,0.72v2.19c-1.25-0.7-2.64-1.05-4.15-1.05
		c-2.01,0-3.64,0.67-4.89,2.01c-1.25,1.34-1.87,3.14-1.87,5.38c0,2.13,0.58,3.83,1.75,5.1c1.17,1.27,2.7,1.9,4.6,1.9
		c1.76,0,3.28-0.39,4.57-1.17V21.23z"/>
	<path class="st1" d="M50.67,11.48c-0.35-0.27-0.85-0.4-1.51-0.4c-0.85,0-1.57,0.4-2.14,1.21c-0.57,0.81-0.86,1.9-0.86,3.3v6.37h-2
		V9.46h2v2.58h0.05c0.28-0.88,0.72-1.56,1.31-2.06c0.59-0.49,1.24-0.74,1.97-0.74c0.52,0,0.92,0.06,1.2,0.17V11.48z"/>
	<path class="st1" d="M62.89,16.21h-8.83c0.03,1.39,0.41,2.47,1.12,3.22c0.72,0.76,1.7,1.14,2.95,1.14c1.41,0,2.7-0.46,3.88-1.39
		v1.88c-1.1,0.8-2.55,1.2-4.36,1.2c-1.77,0-3.15-0.57-4.16-1.7c-1.01-1.13-1.51-2.73-1.51-4.79c0-1.95,0.55-3.53,1.65-4.75
		c1.1-1.22,2.47-1.84,4.11-1.84s2.9,0.53,3.8,1.59c0.9,1.06,1.34,2.53,1.34,4.41V16.21z M60.83,14.51c-0.01-1.16-0.29-2.05-0.84-2.7
		c-0.55-0.64-1.31-0.96-2.29-0.96c-0.94,0-1.75,0.34-2.4,1.01c-0.66,0.68-1.07,1.56-1.22,2.65H60.83z"/>
	<path class="st1" d="M74.86,21.96h-2v-1.95h-0.05c-0.87,1.5-2.15,2.25-3.85,2.25c-1.25,0-2.22-0.33-2.92-0.99
		c-0.7-0.66-1.06-1.53-1.06-2.63c0-2.34,1.38-3.69,4.13-4.08l3.75-0.52c0-2.13-0.86-3.19-2.58-3.19c-1.51,0-2.86,0.51-4.08,1.54
		v-2.05c1.23-0.78,2.64-1.17,4.25-1.17c2.94,0,4.41,1.55,4.41,4.66V21.96z M72.86,15.64l-3.02,0.42c-0.93,0.13-1.63,0.36-2.1,0.69
		c-0.47,0.33-0.71,0.91-0.71,1.75c0,0.61,0.22,1.11,0.65,1.5c0.44,0.39,1.01,0.58,1.74,0.58c0.99,0,1.81-0.35,2.46-1.04
		c0.65-0.7,0.97-1.58,0.97-2.64V15.64z"/>
	<path class="st1" d="M84.43,21.84c-0.47,0.26-1.09,0.39-1.87,0.39c-2.19,0-3.28-1.22-3.28-3.66v-7.4h-2.15V9.46h2.15V6.41l2-0.65
		v3.7h3.15v1.71h-3.15v7.04c0,0.84,0.14,1.44,0.43,1.79c0.28,0.36,0.76,0.54,1.42,0.54c0.5,0,0.94-0.14,1.31-0.42V21.84z"/>
	<path class="st1" d="M97.15,16.21h-8.83c0.03,1.39,0.41,2.47,1.12,3.22c0.72,0.76,1.7,1.14,2.95,1.14c1.41,0,2.7-0.46,3.88-1.39
		v1.88c-1.1,0.8-2.55,1.2-4.36,1.2c-1.77,0-3.15-0.57-4.16-1.7c-1.01-1.13-1.51-2.73-1.51-4.79c0-1.95,0.55-3.53,1.65-4.75
		c1.1-1.22,2.47-1.84,4.11-1.84s2.9,0.53,3.8,1.59c0.9,1.06,1.34,2.53,1.34,4.41V16.21z M95.1,14.51c-0.01-1.16-0.29-2.05-0.84-2.7
		c-0.55-0.64-1.31-0.96-2.29-0.96c-0.94,0-1.75,0.34-2.4,1.01c-0.66,0.68-1.07,1.56-1.22,2.65H95.1z"/>
	<path class="st1" d="M120.84,21.96h-2.27l-1.86-4.91h-7.42l-1.75,4.91h-2.28l6.71-17.5h2.12L120.84,21.96z M116.05,15.21
		l-2.75-7.46c-0.09-0.24-0.18-0.63-0.27-1.17h-0.05c-0.08,0.5-0.18,0.89-0.28,1.17l-2.72,7.46H116.05z"/>
	<path class="st1" d="M131.67,21.38c-0.96,0.58-2.1,0.87-3.42,0.87c-1.78,0-3.22-0.58-4.32-1.74c-1.09-1.16-1.64-2.66-1.64-4.51
		c0-2.06,0.59-3.71,1.77-4.96c1.18-1.25,2.75-1.87,4.72-1.87c1.1,0,2.07,0.2,2.91,0.61v2.05c-0.93-0.65-1.92-0.98-2.98-0.98
		c-1.28,0-2.33,0.46-3.14,1.37c-0.82,0.92-1.23,2.12-1.23,3.61c0,1.46,0.38,2.62,1.15,3.47c0.77,0.85,1.8,1.27,3.09,1.27
		c1.09,0,2.12-0.36,3.08-1.09V21.38z"/>
	<path class="st1" d="M143.22,21.38c-0.96,0.58-2.1,0.87-3.42,0.87c-1.78,0-3.22-0.58-4.32-1.74c-1.09-1.16-1.64-2.66-1.64-4.51
		c0-2.06,0.59-3.71,1.77-4.96c1.18-1.25,2.75-1.87,4.72-1.87c1.1,0,2.07,0.2,2.91,0.61v2.05c-0.93-0.65-1.92-0.98-2.98-0.98
		c-1.28,0-2.33,0.46-3.14,1.37c-0.82,0.92-1.23,2.12-1.23,3.61c0,1.46,0.38,2.62,1.15,3.47c0.77,0.85,1.8,1.27,3.09,1.27
		c1.09,0,2.12-0.36,3.08-1.09V21.38z"/>
	<path class="st1" d="M151.47,22.25c-1.85,0-3.32-0.58-4.42-1.75c-1.1-1.17-1.65-2.72-1.65-4.64c0-2.1,0.57-3.74,1.72-4.92
		c1.15-1.18,2.7-1.77,4.65-1.77c1.86,0,3.32,0.57,4.36,1.72c1.05,1.15,1.57,2.74,1.57,4.77c0,1.99-0.56,3.59-1.69,4.79
		C154.88,21.65,153.37,22.25,151.47,22.25z M151.62,10.85c-1.29,0-2.3,0.44-3.05,1.31c-0.75,0.88-1.12,2.08-1.12,3.62
		c0,1.48,0.38,2.65,1.14,3.5c0.76,0.86,1.77,1.28,3.04,1.28c1.29,0,2.29-0.42,2.98-1.26c0.7-0.84,1.04-2.03,1.04-3.58
		c0-1.56-0.35-2.77-1.04-3.61C153.91,11.27,152.91,10.85,151.62,10.85z"/>
	<path class="st1" d="M171,21.96h-2v-1.98h-0.05c-0.83,1.51-2.12,2.27-3.86,2.27c-2.98,0-4.47-1.77-4.47-5.32V9.46h1.99v7.15
		c0,2.64,1.01,3.96,3.03,3.96c0.98,0,1.78-0.36,2.41-1.08c0.63-0.72,0.95-1.66,0.95-2.83v-7.2h2V21.96z"/>
	<path class="st1" d="M185.42,21.96h-2v-7.13c0-2.65-0.97-3.98-2.91-3.98c-1,0-1.83,0.38-2.48,1.13c-0.65,0.75-0.98,1.7-0.98,2.85
		v7.13h-2V9.46h2v2.08h0.05c0.94-1.58,2.31-2.37,4.1-2.37c1.37,0,2.41,0.44,3.14,1.32c0.72,0.88,1.09,2.16,1.09,3.83V21.96z"/>
	<path class="st1" d="M194.99,21.84c-0.47,0.26-1.09,0.39-1.87,0.39c-2.19,0-3.28-1.22-3.28-3.66v-7.4h-2.15V9.46h2.15V6.41l2-0.65
		v3.7h3.15v1.71h-3.15v7.04c0,0.84,0.14,1.44,0.43,1.79c0.28,0.36,0.76,0.54,1.42,0.54c0.5,0,0.94-0.14,1.31-0.42V21.84z"/>
</g>
<g id="icon">
	<rect x="0.12" y="17.68" class="st1" width="0.67" height="0.67"/>
	<rect x="18.83" y="26.66" class="st1" width="0.39" height="0.39"/>
	<rect x="15.66" y="15.11" class="st1" width="0.61" height="0.61"/>
	<rect x="1.93" y="4.49" class="st1" width="0.64" height="0.64"/>
	<rect x="16.52" y="8.41" class="st1" width="0.9" height="0.9"/>
	<path class="st1" d="M17.8,24.55v-5.49c0-1.66-1.34-3-3-3h-3.1l0.03-3.11c2.6-0.88,4.46-3.34,4.46-6.24c0-1.6-0.57-3.07-1.52-4.21
		h-1.76V1.01c-0.97-0.57-2.1-0.89-3.31-0.89c-3.64,0-6.59,2.95-6.59,6.59c0,2.89,1.87,5.35,4.46,6.24l0.03,3.11h-3.1
		c-0.32,0-0.63,0.05-0.92,0.14V17H2.24c-0.51,0.54-0.82,1.26-0.82,2.06v8.82H17.8v-2.07h-0.63v-1.25H17.8z M13.42,23.38h-2.6v2.6
		H8.4v-2.6H5.8v-2.42h2.6v-2.6h2.42v2.6h2.6V23.38z"/>
</g>
</svg>
