<?xml version="1.0" encoding="utf-8"?>
<!-- Generator: Adobe Illustrator 23.0.1, SVG Export Plug-In . SVG Version: 6.00 Build 0)  -->
<svg version="1.1" id="Layer_1" xmlns="http://www.w3.org/2000/svg" xmlns:xlink="http://www.w3.org/1999/xlink" x="0px" y="0px"
	 viewBox="0 0 140.24 28" style="enable-background:new 0 0 140.24 28;" xml:space="preserve">
<style type="text/css">
	.st0{display:none;}
	.st1{fill:#FFFFFF;}
</style>
<rect x="0.02" class="st0" width="140.22" height="28"/>
<g id="icon">
	<path class="st1" d="M9.3,22.38v-0.21c0-0.27,0.22-0.49,0.49-0.49h3.99c0.27,0,0.49,0.22,0.49,0.49v0.21
		c0,0.27-0.22,0.49-0.49,0.49H9.79C9.52,22.87,9.3,22.65,9.3,22.38z"/>
	<path class="st1" d="M4.56,6.26V6.05c0-0.27,0.22-0.49,0.49-0.49h3.99c0.27,0,0.49,0.22,0.49,0.49v0.21c0,0.27-0.22,0.49-0.49,0.49
		H5.05C4.78,6.75,4.56,6.53,4.56,6.26z"/>
	<path class="st1" d="M0.04,14.16v-0.21c0-0.27,0.22-0.49,0.49-0.49h3.99c0.27,0,0.49,0.22,0.49,0.49v0.21
		c0,0.27-0.22,0.49-0.49,0.49H0.53C0.26,14.64,0.04,14.43,0.04,14.16z"/>
	<g>
		<path class="st1" d="M12.67,21.39V2.15c0-0.31-0.25-0.57-0.57-0.57h-0.64c-0.31,0-0.57,0.25-0.57,0.57v19.24H12.67z"/>
		<rect x="10.9" y="23.17" class="st1" width="1.78" height="2.21"/>
	</g>
	<g>
		<path class="st1" d="M6.27,7.05v18.88c0,0.31,0.25,0.57,0.57,0.57h0.64c0.31,0,0.57-0.25,0.57-0.57V7.05H6.27z"/>
		<rect x="6.27" y="2.37" class="st1" width="1.78" height="2.89"/>
	</g>
	<g>
		<path class="st1" d="M3.41,13.24V2.15c0-0.31-0.25-0.57-0.57-0.57H2.2c-0.31,0-0.57,0.25-0.57,0.57v11.09H3.41z"/>
		<rect x="1.64" y="15.02" class="st1" width="1.78" height="10.36"/>
	</g>
	<g id="dots">
		<rect x="1.59" y="26.19" class="st1" width="0.65" height="0.65"/>
		<rect x="1.19" y="27.29" class="st1" width="0.48" height="0.48"/>
		<rect x="2.96" y="25.96" class="st1" width="0.45" height="0.45"/>
		<rect x="2.45" y="27.15" class="st1" width="0.29" height="0.29"/>
		<rect x="3.37" y="26.81" class="st1" width="0.96" height="0.96"/>
		
			<rect x="12.3" y="27.12" transform="matrix(-1 -4.457957e-11 4.457957e-11 -1 25.257 54.8831)" class="st1" width="0.65" height="0.65"/>
		
			<rect x="12.87" y="26.19" transform="matrix(-1 -5.257407e-11 5.257407e-11 -1 26.2258 52.8649)" class="st1" width="0.48" height="0.48"/>
		
			<rect x="11.13" y="27.55" transform="matrix(-1 -5.624180e-11 5.624180e-11 -1 22.7137 55.5446)" class="st1" width="0.45" height="0.45"/>
		
			<rect x="11.81" y="26.53" transform="matrix(-1 -5.098334e-11 5.098334e-11 -1 23.9047 53.3493)" class="st1" width="0.29" height="0.29"/>
		
			<rect x="10.22" y="26.19" transform="matrix(-1 -4.736401e-11 4.736401e-11 -1 21.3912 53.3493)" class="st1" width="0.96" height="0.96"/>
		<rect x="6.02" y="0.98" class="st1" width="0.65" height="0.65"/>
		<rect x="5.62" y="0.05" class="st1" width="0.48" height="0.48"/>
		<rect x="7.39" y="1.41" class="st1" width="0.45" height="0.45"/>
		<rect x="6.88" y="0.39" class="st1" width="0.29" height="0.29"/>
		<rect x="7.8" y="0.06" class="st1" width="0.96" height="0.96"/>
	</g>
</g>
<g>
	<path class="st1" d="M24.05,21.96V4.45h4.83c6.17,0,9.25,2.84,9.25,8.53c0,2.7-0.86,4.87-2.57,6.51c-1.71,1.64-4.01,2.46-6.88,2.46
		H24.05z M26.1,6.31V20.1h2.61c2.29,0,4.08-0.61,5.36-1.84c1.28-1.23,1.92-2.97,1.92-5.22c0-4.48-2.38-6.73-7.15-6.73H26.1z"/>
	<path class="st1" d="M50.26,21.96h-2v-1.95h-0.05c-0.87,1.5-2.15,2.25-3.85,2.25c-1.25,0-2.22-0.33-2.92-0.99
		c-0.7-0.66-1.06-1.53-1.06-2.63c0-2.34,1.38-3.69,4.13-4.08l3.75-0.52c0-2.12-0.86-3.19-2.58-3.19c-1.51,0-2.86,0.51-4.08,1.54
		v-2.05c1.23-0.78,2.64-1.17,4.25-1.17c2.94,0,4.41,1.55,4.41,4.66V21.96z M48.26,15.64l-3.02,0.42c-0.93,0.13-1.63,0.36-2.1,0.69
		c-0.47,0.33-0.71,0.91-0.71,1.75c0,0.61,0.22,1.11,0.65,1.5c0.44,0.39,1.01,0.58,1.74,0.58c0.99,0,1.81-0.35,2.46-1.04
		c0.65-0.7,0.97-1.58,0.97-2.64V15.64z"/>
	<path class="st1" d="M53.27,21.51v-2.15c1.09,0.8,2.29,1.21,3.6,1.21c1.76,0,2.64-0.59,2.64-1.76c0-0.33-0.08-0.62-0.23-0.85
		c-0.15-0.23-0.35-0.44-0.61-0.62c-0.26-0.18-0.56-0.34-0.9-0.48c-0.35-0.14-0.72-0.29-1.12-0.45c-0.55-0.22-1.04-0.44-1.46-0.67
		c-0.42-0.22-0.77-0.48-1.05-0.76c-0.28-0.28-0.49-0.6-0.63-0.96c-0.14-0.36-0.21-0.78-0.21-1.26c0-0.59,0.13-1.1,0.4-1.56
		c0.27-0.45,0.63-0.83,1.07-1.13c0.45-0.31,0.96-0.54,1.53-0.69c0.57-0.15,1.17-0.23,1.78-0.23c1.08,0,2.05,0.19,2.91,0.56v2.03
		c-0.92-0.6-1.98-0.9-3.17-0.9c-0.37,0-0.71,0.04-1.01,0.13c-0.3,0.09-0.56,0.21-0.77,0.36c-0.22,0.15-0.38,0.34-0.5,0.56
		c-0.12,0.22-0.18,0.45-0.18,0.71c0,0.33,0.06,0.6,0.18,0.82c0.12,0.22,0.29,0.41,0.52,0.58c0.23,0.17,0.5,0.33,0.83,0.46
		c0.33,0.14,0.7,0.29,1.11,0.45c0.55,0.21,1.05,0.43,1.49,0.65s0.81,0.48,1.12,0.76c0.31,0.28,0.55,0.6,0.71,0.97
		c0.17,0.37,0.25,0.8,0.25,1.31c0,0.62-0.14,1.16-0.41,1.61c-0.27,0.46-0.64,0.83-1.09,1.14c-0.46,0.3-0.98,0.52-1.57,0.67
		c-0.59,0.15-1.22,0.22-1.87,0.22C55.33,22.25,54.22,22,53.27,21.51z"/>
	<path class="st1" d="M75.01,21.96h-2v-7.2c0-2.6-0.97-3.91-2.91-3.91c-0.98,0-1.8,0.38-2.47,1.13c-0.67,0.75-1,1.72-1,2.9v7.08h-2
		V3.45h2v8.08h0.05c0.96-1.58,2.33-2.37,4.1-2.37c2.82,0,4.22,1.7,4.22,5.09V21.96z"/>
	<path class="st1" d="M80.84,20.15h-0.05v1.81h-2V3.45h2v8.2h0.05c0.98-1.66,2.42-2.49,4.32-2.49c1.6,0,2.86,0.56,3.77,1.68
		c0.91,1.12,1.36,2.62,1.36,4.5c0,2.09-0.51,3.77-1.53,5.02c-1.02,1.26-2.41,1.89-4.17,1.89C82.93,22.25,81.68,21.55,80.84,20.15z
		 M80.79,15.11v1.75c0,1.03,0.34,1.91,1.01,2.63c0.67,0.72,1.52,1.08,2.56,1.08c1.21,0,2.16-0.46,2.85-1.39
		c0.69-0.93,1.03-2.22,1.03-3.87c0-1.39-0.32-2.48-0.96-3.27c-0.64-0.79-1.51-1.18-2.61-1.18c-1.16,0-2.1,0.4-2.81,1.21
		C81.14,12.88,80.79,13.89,80.79,15.11z"/>
	<path class="st1" d="M98.71,22.25c-1.85,0-3.32-0.58-4.42-1.75c-1.1-1.17-1.65-2.72-1.65-4.64c0-2.1,0.57-3.74,1.72-4.92
		c1.15-1.18,2.7-1.77,4.65-1.77c1.86,0,3.32,0.57,4.36,1.72c1.05,1.15,1.57,2.74,1.57,4.77c0,1.99-0.56,3.59-1.69,4.79
		C102.12,21.65,100.6,22.25,98.71,22.25z M98.85,10.85c-1.29,0-2.3,0.44-3.05,1.31c-0.75,0.87-1.12,2.08-1.12,3.62
		c0,1.48,0.38,2.65,1.14,3.5c0.76,0.86,1.77,1.28,3.04,1.28c1.29,0,2.29-0.42,2.98-1.26c0.7-0.84,1.04-2.03,1.04-3.58
		c0-1.56-0.35-2.77-1.04-3.61C101.14,11.27,100.15,10.85,98.85,10.85z"/>
	<path class="st1" d="M117.08,21.96h-2v-1.95h-0.05c-0.87,1.5-2.15,2.25-3.85,2.25c-1.25,0-2.22-0.33-2.92-0.99
		c-0.7-0.66-1.06-1.53-1.06-2.63c0-2.34,1.38-3.69,4.13-4.08l3.75-0.52c0-2.12-0.86-3.19-2.58-3.19c-1.51,0-2.86,0.51-4.08,1.54
		v-2.05c1.23-0.78,2.64-1.17,4.25-1.17c2.94,0,4.41,1.55,4.41,4.66V21.96z M115.08,15.64l-3.02,0.42c-0.93,0.13-1.63,0.36-2.1,0.69
		c-0.47,0.33-0.71,0.91-0.71,1.75c0,0.61,0.22,1.11,0.65,1.5c0.44,0.39,1.01,0.58,1.74,0.58c0.99,0,1.81-0.35,2.46-1.04
		c0.65-0.7,0.97-1.58,0.97-2.64V15.64z"/>
	<path class="st1" d="M127.37,11.49c-0.35-0.27-0.85-0.4-1.51-0.4c-0.85,0-1.57,0.4-2.14,1.21c-0.57,0.81-0.86,1.9-0.86,3.3v6.37h-2
		V9.46h2v2.58h0.05c0.28-0.88,0.72-1.56,1.31-2.06c0.59-0.49,1.24-0.74,1.97-0.74c0.52,0,0.92,0.06,1.2,0.17V11.49z"/>
	<path class="st1" d="M140.21,21.96h-2v-2.12h-0.05c-0.93,1.61-2.36,2.42-4.3,2.42c-1.57,0-2.83-0.56-3.77-1.68
		c-0.94-1.12-1.41-2.64-1.41-4.57c0-2.07,0.52-3.72,1.56-4.97c1.04-1.25,2.43-1.87,4.16-1.87c1.72,0,2.97,0.68,3.75,2.03h0.05V3.45
		h2V21.96z M138.21,16.31v-1.84c0-1.01-0.33-1.86-1-2.56c-0.67-0.7-1.51-1.05-2.54-1.05c-1.22,0-2.18,0.45-2.88,1.34
		c-0.7,0.9-1.05,2.13-1.05,3.71c0,1.44,0.34,2.58,1.01,3.41c0.67,0.83,1.57,1.25,2.7,1.25c1.11,0,2.02-0.4,2.72-1.21
		C137.86,18.55,138.21,17.54,138.21,16.31z"/>
</g>
</svg>
