<?xml version="1.0" encoding="utf-8"?>
<!-- Generator: Adobe Illustrator 23.0.1, SVG Export Plug-In . SVG Version: 6.00 Build 0)  -->
<svg version="1.1" xmlns="http://www.w3.org/2000/svg" xmlns:xlink="http://www.w3.org/1999/xlink" x="0px" y="0px"
	 viewBox="0 0 206.92 28" style="enable-background:new 0 0 206.92 28;" xml:space="preserve">
<style type="text/css">
	.st0{display:none;}
	.st1{fill:#FFFFFF;}
	.st2{display:inline;fill:#FFFFFF;}
</style>
<g id="Layer_1">
	<rect class="st0" width="206.92" height="28"/>
	<g>
		<path class="st1" d="M46.22,21.81h-9.28V4.31h8.89v1.86H39v5.82h6.32v1.84H39v6.13h7.23V21.81z"/>
		<path class="st1" d="M59.99,21.81h-2v-2.12h-0.05c-0.93,1.61-2.36,2.42-4.3,2.42c-1.57,0-2.83-0.56-3.77-1.68
			c-0.94-1.12-1.41-2.64-1.41-4.57c0-2.07,0.52-3.72,1.56-4.97c1.04-1.25,2.43-1.87,4.16-1.87c1.72,0,2.97,0.68,3.75,2.03h0.05V3.31
			h2V21.81z M57.99,16.16v-1.84c0-1.01-0.33-1.86-1-2.56c-0.67-0.7-1.51-1.05-2.54-1.05c-1.22,0-2.18,0.45-2.88,1.34
			c-0.7,0.9-1.05,2.13-1.05,3.71c0,1.44,0.34,2.58,1.01,3.41c0.67,0.83,1.57,1.25,2.7,1.25c1.11,0,2.02-0.4,2.72-1.21
			C57.64,18.41,57.99,17.39,57.99,16.16z"/>
		<path class="st1" d="M65.07,6.14c-0.36,0-0.66-0.12-0.92-0.37c-0.25-0.24-0.38-0.55-0.38-0.93c0-0.37,0.13-0.69,0.38-0.93
			c0.25-0.25,0.56-0.37,0.92-0.37c0.37,0,0.68,0.12,0.93,0.37c0.26,0.25,0.38,0.56,0.38,0.93c0,0.36-0.13,0.66-0.38,0.92
			C65.75,6.01,65.44,6.14,65.07,6.14z M66.05,21.81h-2V9.31h2V21.81z"/>
		<path class="st1" d="M75.9,21.69c-0.47,0.26-1.09,0.39-1.87,0.39c-2.19,0-3.28-1.22-3.28-3.66v-7.4H68.6V9.31h2.15V6.26l2-0.65
			v3.7h3.15v1.71h-3.15v7.04c0,0.84,0.14,1.44,0.43,1.79c0.28,0.36,0.76,0.54,1.42,0.54c0.5,0,0.94-0.14,1.31-0.42V21.69z"/>
		<path class="st1" d="M99.24,21.81h-2.27l-1.86-4.91h-7.42l-1.75,4.91h-2.28l6.71-17.5h2.12L99.24,21.81z M94.44,15.06L91.7,7.6
			c-0.09-0.24-0.18-0.63-0.27-1.17h-0.05C91.3,6.93,91.2,7.32,91.1,7.6l-2.72,7.46H94.44z"/>
		<path class="st1" d="M103.6,20h-0.05v7.56h-2V9.31h2v2.2h0.05c0.98-1.66,2.42-2.49,4.32-2.49c1.61,0,2.87,0.56,3.77,1.68
			c0.9,1.12,1.35,2.62,1.35,4.5c0,2.09-0.51,3.77-1.53,5.02c-1.02,1.26-2.41,1.89-4.17,1.89C105.73,22.1,104.48,21.4,103.6,20z
			 M103.55,14.96v1.75c0,1.03,0.34,1.91,1.01,2.63c0.67,0.72,1.52,1.08,2.56,1.08c1.21,0,2.16-0.46,2.85-1.39
			c0.69-0.93,1.03-2.22,1.03-3.87c0-1.39-0.32-2.48-0.96-3.27c-0.64-0.79-1.51-1.18-2.61-1.18c-1.16,0-2.1,0.4-2.81,1.21
			C103.9,12.73,103.55,13.74,103.55,14.96z"/>
		<path class="st1" d="M118.29,20h-0.05v7.56h-2V9.31h2v2.2h0.05c0.98-1.66,2.42-2.49,4.32-2.49c1.61,0,2.87,0.56,3.77,1.68
			c0.9,1.12,1.35,2.62,1.35,4.5c0,2.09-0.51,3.77-1.53,5.02c-1.02,1.26-2.41,1.89-4.17,1.89C120.42,22.1,119.17,21.4,118.29,20z
			 M118.25,14.96v1.75c0,1.03,0.34,1.91,1.01,2.63c0.67,0.72,1.52,1.08,2.56,1.08c1.21,0,2.16-0.46,2.85-1.39
			c0.69-0.93,1.03-2.22,1.03-3.87c0-1.39-0.32-2.48-0.96-3.27c-0.64-0.79-1.51-1.18-2.61-1.18c-1.16,0-2.1,0.4-2.81,1.21
			C118.6,12.73,118.25,13.74,118.25,14.96z"/>
		<path class="st1" d="M132.94,21.81h-2V3.31h2V21.81z"/>
		<path class="st1" d="M138.02,6.14c-0.36,0-0.66-0.12-0.92-0.37c-0.25-0.24-0.38-0.55-0.38-0.93c0-0.37,0.13-0.69,0.38-0.93
			c0.25-0.25,0.56-0.37,0.92-0.37c0.37,0,0.68,0.12,0.93,0.37c0.26,0.25,0.38,0.56,0.38,0.93c0,0.36-0.13,0.66-0.38,0.92
			C138.7,6.01,138.39,6.14,138.02,6.14z M139,21.81h-2V9.31h2V21.81z"/>
		<path class="st1" d="M151.57,21.24c-0.96,0.58-2.1,0.87-3.42,0.87c-1.78,0-3.22-0.58-4.32-1.74c-1.09-1.16-1.64-2.66-1.64-4.51
			c0-2.06,0.59-3.71,1.77-4.96c1.18-1.25,2.75-1.87,4.72-1.87c1.1,0,2.07,0.2,2.91,0.61v2.05c-0.93-0.65-1.92-0.98-2.98-0.98
			c-1.28,0-2.33,0.46-3.14,1.37c-0.82,0.92-1.23,2.12-1.23,3.61c0,1.46,0.38,2.62,1.15,3.47c0.77,0.85,1.8,1.27,3.09,1.27
			c1.09,0,2.12-0.36,3.08-1.09V21.24z"/>
		<path class="st1" d="M163.55,21.81h-2v-1.95h-0.05c-0.87,1.5-2.15,2.25-3.85,2.25c-1.25,0-2.22-0.33-2.92-0.99
			c-0.7-0.66-1.06-1.53-1.06-2.63c0-2.33,1.38-3.69,4.13-4.08l3.75-0.52c0-2.12-0.86-3.19-2.58-3.19c-1.51,0-2.86,0.51-4.08,1.54
			v-2.05c1.23-0.78,2.64-1.17,4.25-1.17c2.94,0,4.41,1.55,4.41,4.66V21.81z M161.54,15.49l-3.02,0.42c-0.93,0.13-1.63,0.36-2.1,0.69
			c-0.47,0.33-0.71,0.91-0.71,1.75c0,0.61,0.22,1.11,0.65,1.5c0.44,0.39,1.01,0.58,1.74,0.58c0.99,0,1.81-0.35,2.46-1.04
			c0.65-0.7,0.97-1.58,0.97-2.64V15.49z"/>
		<path class="st1" d="M173.12,21.69c-0.47,0.26-1.09,0.39-1.87,0.39c-2.19,0-3.28-1.22-3.28-3.66v-7.4h-2.15V9.31h2.15V6.26l2-0.65
			v3.7h3.15v1.71h-3.15v7.04c0,0.84,0.14,1.44,0.43,1.79c0.28,0.36,0.76,0.54,1.42,0.54c0.5,0,0.94-0.14,1.31-0.42V21.69z"/>
		<path class="st1" d="M176.82,6.14c-0.36,0-0.66-0.12-0.92-0.37c-0.25-0.24-0.38-0.55-0.38-0.93c0-0.37,0.13-0.69,0.38-0.93
			c0.25-0.25,0.56-0.37,0.92-0.37c0.37,0,0.68,0.12,0.93,0.37c0.26,0.25,0.38,0.56,0.38,0.93c0,0.36-0.13,0.66-0.38,0.92
			C177.49,6.01,177.18,6.14,176.82,6.14z M177.79,21.81h-2V9.31h2V21.81z"/>
		<path class="st1" d="M187.07,22.1c-1.85,0-3.32-0.58-4.42-1.75c-1.1-1.17-1.65-2.72-1.65-4.64c0-2.1,0.57-3.74,1.72-4.92
			c1.15-1.18,2.7-1.77,4.65-1.77c1.86,0,3.32,0.57,4.36,1.72c1.05,1.15,1.57,2.74,1.57,4.77c0,1.99-0.56,3.59-1.69,4.79
			C190.48,21.5,188.97,22.1,187.07,22.1z M187.22,10.7c-1.29,0-2.3,0.44-3.05,1.31c-0.75,0.87-1.12,2.08-1.12,3.62
			c0,1.48,0.38,2.65,1.14,3.5c0.76,0.86,1.77,1.28,3.04,1.28c1.29,0,2.29-0.42,2.98-1.26c0.7-0.84,1.04-2.03,1.04-3.58
			c0-1.56-0.35-2.77-1.04-3.61C189.5,11.13,188.51,10.7,187.22,10.7z"/>
		<path class="st1" d="M206.87,21.81h-2v-7.13c0-2.65-0.97-3.98-2.91-3.98c-1,0-1.83,0.38-2.48,1.13c-0.65,0.75-0.98,1.7-0.98,2.85
			v7.13h-2V9.31h2v2.08h0.05c0.94-1.58,2.31-2.37,4.1-2.37c1.37,0,2.41,0.44,3.14,1.32c0.72,0.88,1.09,2.16,1.09,3.83V21.81z"/>
	</g>
	<g id="icon">
		<rect x="0.88" y="7.78" class="st1" width="2.25" height="2.25"/>
		<rect x="6.52" y="1.5" class="st1" width="1.88" height="1.88"/>
		<rect x="0.05" y="6.12" class="st1" width="1.08" height="1.08"/>
		<rect x="4.25" y="0.19" class="st1" width="1.53" height="1.53"/>
		<rect x="4.25" y="0.19" class="st1" width="1.53" height="1.53"/>
		<rect x="5.01" y="2.01" class="st1" width="1.08" height="1.08"/>
		
			<rect x="20.57" y="2.21" transform="matrix(0.8175 0.5759 -0.5759 0.8175 11.1131 -10.0792)" class="st1" width="1.78" height="20.56"/>
		<g>
			<path class="st1" d="M20.1,11.76l2.46-3.49c-0.51-3.25,1.1-5.13,1.19-5.22l2.61-2.81H8.95v3.34H19.7
				C19.01,5.48,18.66,8.29,20.1,11.76z"/>
			<path class="st1" d="M23.91,11.94l-2.19,3.11c1.72,4.08,0.49,7.83-0.22,9.42H5.62c0.94-2.78,1.73-7.51-1.11-12.41
				c-0.13-0.23-0.25-0.45-0.36-0.68H0.49c0.29,0.75,0.66,1.54,1.13,2.35c3.35,5.79,0.17,11.3,0.01,11.55L0.1,27.81h23.37l0.49-0.81
				c0.18-0.3,4.38-7.41,0.02-14.95C23.95,12.02,23.93,11.98,23.91,11.94z"/>
		</g>
		<polygon class="st1" points="24.52,11.81 24.01,11.45 26.86,7.44 26.65,6.66 27.61,5.31 28.06,6.81 		"/>
		<path class="st1" d="M26.95,4.84l-0.12-0.08c-0.21-0.15-0.26-0.43-0.11-0.64l1.46-2.07c0.15-0.21,0.43-0.26,0.64-0.11l0.12,0.08
			c0.21,0.15,0.26,0.43,0.11,0.64l-1.46,2.07C27.44,4.93,27.15,4.98,26.95,4.84z"/>
		<polygon class="st1" points="14.78,22.56 14.25,22.19 14.81,20.39 16.26,21.41 		"/>
		<polygon class="st1" points="14.78,22.56 14.25,22.19 14.14,22.88 		"/>
	</g>
</g>
<g id="spacing" class="st0">
	<rect x="0.1" y="0.19" class="st2" width="29.04" height="27.63"/>
	<rect x="29.13" y="22.04" class="st2" width="16.12" height="5.78"/>
</g>
</svg>
