<?xml version="1.0" encoding="utf-8"?>
<!-- Generator: Adobe Illustrator 23.0.1, SVG Export Plug-In . SVG Version: 6.00 Build 0)  -->
<svg version="1.1" id="Layer_1" xmlns="http://www.w3.org/2000/svg" xmlns:xlink="http://www.w3.org/1999/xlink" x="0px" y="0px"
	 viewBox="0 0 331.84 28" style="enable-background:new 0 0 331.84 28;" xml:space="preserve">
<style type="text/css">
	.st0{display:none;}
	.st1{fill:#FFFFFF;}
</style>
<rect class="st0" width="331.84" height="28"/>
<g id="icon">
	<rect x="5.75" y="23.03" class="st1" width="1.48" height="1.48"/>
	<rect x="11.26" y="23.47" class="st1" width="0.91" height="0.91"/>
	<rect x="9.23" y="22.84" class="st1" width="0.63" height="0.63"/>
	<rect x="7.9" y="24.71" class="st1" width="1.33" height="1.33"/>
	<rect x="10.47" y="25.86" class="st1" width="1.58" height="1.58"/>
	<rect x="5.41" y="25.57" class="st1" width="1.08" height="1.08"/>
	<rect x="7.01" y="27.2" class="st1" width="0.78" height="0.78"/>
	<g>
		<path class="st1" d="M5.89,20.11c0-1.82,0.22-3.27,0.66-4.36s1.25-2.15,2.43-3.19c1.18-1.05,1.96-1.9,2.35-2.56
			c0.39-0.66,0.59-1.35,0.59-2.08c0-2.2-1.01-3.3-3.04-3.3c-0.96,0-1.73,0.3-2.31,0.89C5.99,6.1,5.68,6.92,5.66,7.96H0
			c0.03-2.49,0.83-4.43,2.41-5.84s3.74-2.11,6.47-2.11c2.76,0,4.9,0.67,6.42,2s2.28,3.22,2.28,5.65c0,1.11-0.25,2.15-0.74,3.13
			c-0.49,0.98-1.36,2.07-2.6,3.27l-1.58,1.5c-0.99,0.95-1.55,2.06-1.7,3.34l-0.08,1.19H5.89z"/>
	</g>
</g>
<g>
	<path class="st1" d="M35.97,6.28h-6.84v6.05h6.32v1.84h-6.32v7.75h-2.05V4.42h8.89V6.28z"/>
	<path class="st1" d="M45.54,11.46c-0.35-0.27-0.85-0.4-1.51-0.4c-0.85,0-1.57,0.4-2.14,1.21c-0.57,0.81-0.86,1.9-0.86,3.3v6.37h-2
		V9.43h2v2.58h0.05c0.29-0.88,0.72-1.56,1.31-2.06c0.59-0.49,1.24-0.74,1.96-0.74c0.52,0,0.92,0.06,1.2,0.17V11.46z"/>
	<path class="st1" d="M57.76,16.18h-8.83c0.03,1.39,0.41,2.47,1.12,3.22c0.72,0.76,1.7,1.14,2.95,1.14c1.41,0,2.7-0.46,3.88-1.39
		v1.88c-1.1,0.8-2.55,1.2-4.36,1.2c-1.77,0-3.15-0.57-4.16-1.7c-1.01-1.13-1.51-2.73-1.51-4.79c0-1.95,0.55-3.53,1.65-4.75
		c1.1-1.22,2.47-1.84,4.11-1.84s2.9,0.53,3.8,1.59c0.89,1.06,1.34,2.53,1.34,4.41V16.18z M55.71,14.48
		c-0.01-1.16-0.29-2.05-0.84-2.7c-0.55-0.64-1.31-0.96-2.29-0.96c-0.94,0-1.75,0.34-2.41,1.01c-0.66,0.68-1.07,1.56-1.22,2.65H55.71
		z"/>
	<path class="st1" d="M71.46,27.68h-2v-7.9h-0.05c-0.87,1.63-2.29,2.44-4.27,2.44c-1.57,0-2.83-0.56-3.78-1.68
		c-0.95-1.12-1.42-2.64-1.42-4.57c0-2.08,0.52-3.73,1.56-4.97c1.04-1.24,2.44-1.86,4.2-1.86c1.71,0,2.95,0.68,3.71,2.03h0.05V9.43h2
		V27.68z M69.46,16.3v-1.82c0-1.03-0.34-1.89-1.01-2.6c-0.67-0.71-1.52-1.06-2.56-1.06c-1.21,0-2.16,0.45-2.86,1.34
		c-0.7,0.89-1.05,2.15-1.05,3.77c0,1.44,0.34,2.57,1.01,3.39c0.68,0.82,1.55,1.23,2.61,1.23c1.17,0,2.11-0.4,2.8-1.2
		C69.11,18.53,69.46,17.52,69.46,16.3z"/>
	<path class="st1" d="M85.62,21.93h-2v-1.98h-0.05c-0.83,1.51-2.12,2.27-3.86,2.27c-2.98,0-4.47-1.77-4.47-5.32V9.43h1.99v7.15
		c0,2.64,1.01,3.96,3.03,3.96c0.98,0,1.78-0.36,2.41-1.08c0.63-0.72,0.95-1.66,0.95-2.83v-7.2h2V21.93z"/>
	<path class="st1" d="M99.71,16.18h-8.83c0.03,1.39,0.41,2.47,1.12,3.22c0.72,0.76,1.7,1.14,2.95,1.14c1.41,0,2.7-0.46,3.88-1.39
		v1.88c-1.1,0.8-2.55,1.2-4.36,1.2c-1.77,0-3.15-0.57-4.16-1.7c-1.01-1.13-1.51-2.73-1.51-4.79c0-1.95,0.55-3.53,1.65-4.75
		c1.1-1.22,2.47-1.84,4.11-1.84s2.9,0.53,3.8,1.59c0.89,1.06,1.34,2.53,1.34,4.41V16.18z M97.66,14.48
		c-0.01-1.16-0.29-2.05-0.84-2.7c-0.55-0.64-1.31-0.96-2.29-0.96c-0.94,0-1.75,0.34-2.41,1.01c-0.66,0.68-1.07,1.56-1.22,2.65H97.66
		z"/>
	<path class="st1" d="M113.11,21.93h-2V14.8c0-2.65-0.97-3.98-2.91-3.98c-1,0-1.83,0.38-2.48,1.13c-0.66,0.75-0.98,1.7-0.98,2.85
		v7.13h-2V9.43h2v2.08h0.05c0.94-1.58,2.31-2.37,4.1-2.37c1.37,0,2.41,0.44,3.14,1.32c0.72,0.88,1.09,2.16,1.09,3.83V21.93z"/>
	<path class="st1" d="M122.68,21.81c-0.47,0.26-1.09,0.39-1.87,0.39c-2.19,0-3.28-1.22-3.28-3.66v-7.4h-2.15V9.43h2.15V6.38l2-0.65
		v3.7h3.15v1.71h-3.15v7.04c0,0.84,0.14,1.44,0.43,1.79s0.76,0.54,1.42,0.54c0.5,0,0.94-0.14,1.31-0.42V21.81z"/>
	<path class="st1" d="M127.35,21.93h-2V3.42h2V21.93z"/>
	<path class="st1" d="M141.36,9.43l-5.75,14.5c-1.03,2.59-2.47,3.88-4.32,3.88c-0.52,0-0.96-0.05-1.31-0.16v-1.79
		c0.43,0.15,0.83,0.22,1.18,0.22c1.01,0,1.77-0.6,2.27-1.81l1-2.37l-4.88-12.48h2.22l3.38,9.62c0.04,0.12,0.13,0.44,0.26,0.95h0.07
		c0.04-0.2,0.12-0.5,0.24-0.93l3.55-9.64H141.36z"/>
	<path class="st1" d="M164.17,21.93h-2.27l-1.86-4.91h-7.42l-1.75,4.91h-2.28l6.71-17.5h2.12L164.17,21.93z M159.37,15.18
		l-2.75-7.46c-0.09-0.24-0.18-0.63-0.27-1.17h-0.05c-0.08,0.5-0.17,0.89-0.28,1.17l-2.72,7.46H159.37z"/>
	<path class="st1" d="M165.72,21.48v-2.15c1.09,0.8,2.29,1.21,3.6,1.21c1.76,0,2.64-0.59,2.64-1.76c0-0.33-0.08-0.62-0.23-0.85
		c-0.15-0.23-0.35-0.44-0.61-0.62c-0.26-0.18-0.56-0.34-0.9-0.48c-0.35-0.14-0.72-0.29-1.12-0.45c-0.55-0.22-1.04-0.44-1.46-0.67
		c-0.42-0.22-0.77-0.48-1.05-0.76c-0.28-0.28-0.49-0.6-0.63-0.96c-0.14-0.36-0.21-0.78-0.21-1.26c0-0.59,0.13-1.1,0.4-1.56
		c0.27-0.45,0.63-0.83,1.07-1.13c0.45-0.31,0.96-0.54,1.53-0.69c0.57-0.16,1.17-0.23,1.78-0.23c1.08,0,2.05,0.19,2.91,0.56v2.03
		c-0.92-0.6-1.98-0.9-3.17-0.9c-0.38,0-0.71,0.04-1.01,0.13c-0.3,0.09-0.56,0.21-0.77,0.36c-0.22,0.15-0.38,0.34-0.5,0.56
		s-0.18,0.45-0.18,0.71c0,0.33,0.06,0.6,0.18,0.82c0.12,0.22,0.29,0.42,0.52,0.59c0.23,0.17,0.5,0.33,0.83,0.46
		c0.33,0.14,0.7,0.29,1.11,0.45c0.55,0.21,1.05,0.43,1.49,0.65s0.81,0.48,1.12,0.76c0.31,0.28,0.55,0.6,0.71,0.97
		c0.17,0.37,0.25,0.8,0.25,1.31c0,0.62-0.14,1.16-0.41,1.61c-0.27,0.46-0.64,0.83-1.09,1.14c-0.46,0.3-0.98,0.52-1.58,0.67
		s-1.22,0.22-1.87,0.22C167.78,22.22,166.67,21.97,165.72,21.48z"/>
	<path class="st1" d="M187.46,21.93h-2.81l-5.52-6.01h-0.05v6.01h-2V3.42h2v11.73h0.05l5.25-5.72h2.63l-5.8,6.03L187.46,21.93z"/>
	<path class="st1" d="M199.56,16.18h-8.83c0.03,1.39,0.41,2.47,1.12,3.22c0.72,0.76,1.7,1.14,2.95,1.14c1.41,0,2.7-0.46,3.88-1.39
		v1.88c-1.1,0.8-2.55,1.2-4.36,1.2c-1.77,0-3.15-0.57-4.16-1.7c-1.01-1.13-1.51-2.73-1.51-4.79c0-1.95,0.55-3.53,1.65-4.75
		c1.1-1.22,2.47-1.84,4.11-1.84s2.9,0.53,3.8,1.59c0.89,1.06,1.34,2.53,1.34,4.41V16.18z M197.51,14.48
		c-0.01-1.16-0.29-2.05-0.84-2.7c-0.55-0.64-1.31-0.96-2.29-0.96c-0.94,0-1.75,0.34-2.41,1.01c-0.66,0.68-1.07,1.56-1.22,2.65
		H197.51z"/>
	<path class="st1" d="M213.26,21.93h-2v-2.12h-0.05c-0.93,1.61-2.36,2.42-4.3,2.42c-1.57,0-2.83-0.56-3.77-1.68
		c-0.94-1.12-1.41-2.64-1.41-4.57c0-2.07,0.52-3.72,1.56-4.97c1.04-1.24,2.43-1.87,4.16-1.87c1.72,0,2.97,0.68,3.75,2.03h0.05V3.42
		h2V21.93z M211.25,16.28v-1.84c0-1.01-0.33-1.86-1-2.56c-0.67-0.7-1.51-1.05-2.54-1.05c-1.22,0-2.18,0.45-2.88,1.34
		c-0.7,0.9-1.05,2.13-1.05,3.71c0,1.44,0.34,2.58,1.01,3.41c0.67,0.83,1.57,1.25,2.7,1.25c1.11,0,2.02-0.4,2.72-1.21
		C210.91,18.52,211.25,17.51,211.25,16.28z"/>
	<path class="st1" d="M231.48,22.22c-2.47,0-4.46-0.82-5.97-2.45c-1.49-1.64-2.23-3.76-2.23-6.38c0-2.82,0.76-5.07,2.28-6.74
		c1.53-1.68,3.6-2.51,6.21-2.51c2.41,0,4.35,0.81,5.83,2.44s2.22,3.76,2.22,6.38c0,2.86-0.76,5.12-2.27,6.78
		c-0.36,0.4-0.74,0.74-1.15,1.03l4.92,3.53h-3.72l-3.3-2.46C233.45,22.09,232.51,22.22,231.48,22.22z M231.63,5.99
		c-1.84,0-3.33,0.66-4.48,1.99c-1.15,1.33-1.72,3.07-1.72,5.22c0,2.15,0.56,3.89,1.67,5.21c1.12,1.31,2.58,1.96,4.38,1.96
		c1.92,0,3.43-0.63,4.54-1.88c1.11-1.25,1.66-3.01,1.66-5.26c0-2.32-0.54-4.11-1.61-5.36C235,6.62,233.52,5.99,231.63,5.99z"/>
	<path class="st1" d="M253.11,21.93h-2v-1.98h-0.05c-0.83,1.51-2.12,2.27-3.86,2.27c-2.98,0-4.47-1.77-4.47-5.32V9.43h1.99v7.15
		c0,2.64,1.01,3.96,3.03,3.96c0.98,0,1.78-0.36,2.41-1.08c0.63-0.72,0.95-1.66,0.95-2.83v-7.2h2V21.93z"/>
	<path class="st1" d="M267.2,16.18h-8.83c0.03,1.39,0.41,2.47,1.12,3.22c0.72,0.76,1.7,1.14,2.95,1.14c1.41,0,2.7-0.46,3.88-1.39
		v1.88c-1.1,0.8-2.55,1.2-4.36,1.2c-1.77,0-3.15-0.57-4.16-1.7c-1.01-1.13-1.51-2.73-1.51-4.79c0-1.95,0.55-3.53,1.65-4.75
		c1.1-1.22,2.47-1.84,4.11-1.84s2.9,0.53,3.8,1.59s1.34,2.53,1.34,4.41V16.18z M265.15,14.48c-0.01-1.16-0.29-2.05-0.84-2.7
		c-0.55-0.64-1.31-0.96-2.29-0.96c-0.94,0-1.75,0.34-2.4,1.01c-0.66,0.68-1.07,1.56-1.22,2.65H265.15z"/>
	<path class="st1" d="M269.47,21.48v-2.15c1.09,0.8,2.29,1.21,3.6,1.21c1.76,0,2.64-0.59,2.64-1.76c0-0.33-0.08-0.62-0.23-0.85
		c-0.15-0.23-0.35-0.44-0.61-0.62c-0.26-0.18-0.56-0.34-0.9-0.48c-0.35-0.14-0.72-0.29-1.12-0.45c-0.55-0.22-1.04-0.44-1.46-0.67
		s-0.77-0.48-1.05-0.76c-0.28-0.28-0.49-0.6-0.63-0.96c-0.14-0.36-0.21-0.78-0.21-1.26c0-0.59,0.13-1.1,0.4-1.56
		c0.27-0.45,0.63-0.83,1.07-1.13c0.45-0.31,0.96-0.54,1.53-0.69c0.57-0.16,1.17-0.23,1.78-0.23c1.08,0,2.05,0.19,2.91,0.56v2.03
		c-0.92-0.6-1.98-0.9-3.17-0.9c-0.37,0-0.71,0.04-1.01,0.13c-0.3,0.09-0.56,0.21-0.78,0.36s-0.38,0.34-0.5,0.56
		c-0.12,0.22-0.18,0.45-0.18,0.71c0,0.33,0.06,0.6,0.18,0.82c0.12,0.22,0.29,0.42,0.52,0.59c0.23,0.17,0.5,0.33,0.83,0.46
		c0.33,0.14,0.7,0.29,1.11,0.45c0.55,0.21,1.05,0.43,1.49,0.65s0.81,0.48,1.12,0.76c0.31,0.28,0.55,0.6,0.71,0.97
		c0.17,0.37,0.25,0.8,0.25,1.31c0,0.62-0.14,1.16-0.41,1.61s-0.64,0.83-1.09,1.14c-0.46,0.3-0.98,0.52-1.57,0.67
		c-0.59,0.15-1.22,0.22-1.87,0.22C271.53,22.22,270.41,21.97,269.47,21.48z"/>
	<path class="st1" d="M286.63,21.81c-0.47,0.26-1.09,0.39-1.87,0.39c-2.19,0-3.28-1.22-3.28-3.66v-7.4h-2.15V9.43h2.15V6.38l2-0.65
		v3.7h3.15v1.71h-3.15v7.04c0,0.84,0.14,1.44,0.43,1.79c0.28,0.36,0.76,0.54,1.42,0.54c0.5,0,0.94-0.14,1.31-0.42V21.81z"/>
	<path class="st1" d="M290.33,6.26c-0.36,0-0.66-0.12-0.92-0.37s-0.38-0.55-0.38-0.93s0.13-0.69,0.38-0.93s0.56-0.37,0.92-0.37
		c0.37,0,0.68,0.12,0.93,0.37c0.26,0.25,0.38,0.56,0.38,0.93c0,0.36-0.13,0.66-0.38,0.92C291.01,6.13,290.7,6.26,290.33,6.26z
		 M291.31,21.93h-2V9.43h2V21.93z"/>
	<path class="st1" d="M300.59,22.22c-1.85,0-3.32-0.58-4.42-1.75c-1.1-1.17-1.65-2.72-1.65-4.64c0-2.1,0.57-3.74,1.72-4.92
		c1.15-1.18,2.7-1.77,4.65-1.77c1.86,0,3.32,0.57,4.36,1.72c1.04,1.15,1.57,2.74,1.57,4.77c0,1.99-0.56,3.59-1.69,4.79
		C303.99,21.62,302.48,22.22,300.59,22.22z M300.73,10.82c-1.29,0-2.3,0.44-3.05,1.31c-0.75,0.88-1.12,2.08-1.12,3.62
		c0,1.48,0.38,2.65,1.13,3.5c0.76,0.86,1.77,1.28,3.04,1.28c1.29,0,2.29-0.42,2.98-1.26c0.7-0.84,1.04-2.03,1.04-3.58
		c0-1.56-0.35-2.77-1.04-3.61C303.02,11.24,302.03,10.82,300.73,10.82z"/>
	<path class="st1" d="M320.39,21.93h-2V14.8c0-2.65-0.97-3.98-2.91-3.98c-1,0-1.83,0.38-2.48,1.13c-0.66,0.75-0.98,1.7-0.98,2.85
		v7.13h-2V9.43h2v2.08h0.05c0.94-1.58,2.31-2.37,4.1-2.37c1.37,0,2.41,0.44,3.14,1.32c0.72,0.88,1.09,2.16,1.09,3.83V21.93z"/>
	<path class="st1" d="M323.4,21.48v-2.15c1.09,0.8,2.29,1.21,3.6,1.21c1.76,0,2.64-0.59,2.64-1.76c0-0.33-0.08-0.62-0.23-0.85
		c-0.15-0.23-0.35-0.44-0.61-0.62c-0.26-0.18-0.56-0.34-0.9-0.48c-0.35-0.14-0.72-0.29-1.12-0.45c-0.55-0.22-1.04-0.44-1.46-0.67
		s-0.77-0.48-1.05-0.76c-0.28-0.28-0.49-0.6-0.63-0.96c-0.14-0.36-0.21-0.78-0.21-1.26c0-0.59,0.13-1.1,0.4-1.56
		c0.27-0.45,0.63-0.83,1.07-1.13c0.45-0.31,0.96-0.54,1.53-0.69c0.57-0.16,1.17-0.23,1.78-0.23c1.08,0,2.05,0.19,2.91,0.56v2.03
		c-0.92-0.6-1.98-0.9-3.17-0.9c-0.37,0-0.71,0.04-1.01,0.13c-0.3,0.09-0.56,0.21-0.78,0.36s-0.38,0.34-0.5,0.56
		c-0.12,0.22-0.18,0.45-0.18,0.71c0,0.33,0.06,0.6,0.18,0.82c0.12,0.22,0.29,0.42,0.52,0.59c0.23,0.17,0.5,0.33,0.83,0.46
		c0.33,0.14,0.7,0.29,1.11,0.45c0.55,0.21,1.05,0.43,1.49,0.65s0.81,0.48,1.12,0.76c0.31,0.28,0.55,0.6,0.71,0.97
		c0.17,0.37,0.25,0.8,0.25,1.31c0,0.62-0.14,1.16-0.41,1.61s-0.64,0.83-1.09,1.14c-0.46,0.3-0.98,0.52-1.57,0.67
		c-0.59,0.15-1.22,0.22-1.87,0.22C325.46,22.22,324.34,21.97,323.4,21.48z"/>
</g>
</svg>
