<?xml version="1.0" encoding="utf-8"?>
<!-- Generator: Adobe Illustrator 23.0.1, SVG Export Plug-In . SVG Version: 6.00 Build 0)  -->
<svg version="1.1" id="Layer_1" xmlns="http://www.w3.org/2000/svg" xmlns:xlink="http://www.w3.org/1999/xlink" x="0px" y="0px"
	 viewBox="0 0 70.87 28" style="enable-background:new 0 0 70.87 28;" xml:space="preserve">
<style type="text/css">
	.st0{display:none;}
	.st1{fill:#FFFFFF;}
</style>
<rect class="st0" width="70.87" height="28"/>
<g id="icon">
	<rect x="5.75" y="23.03" class="st1" width="1.48" height="1.48"/>
	<rect x="11.26" y="23.47" class="st1" width="0.91" height="0.91"/>
	<rect x="9.23" y="22.84" class="st1" width="0.63" height="0.63"/>
	<rect x="7.9" y="24.71" class="st1" width="1.33" height="1.33"/>
	<rect x="10.47" y="25.86" class="st1" width="1.58" height="1.58"/>
	<rect x="5.41" y="25.57" class="st1" width="1.08" height="1.08"/>
	<rect x="7.01" y="27.2" class="st1" width="0.78" height="0.78"/>
	<g>
		<path class="st1" d="M5.89,20.11c0-1.82,0.22-3.27,0.66-4.36s1.25-2.15,2.43-3.19c1.18-1.05,1.96-1.9,2.35-2.56
			c0.39-0.66,0.59-1.35,0.59-2.08c0-2.2-1.01-3.3-3.04-3.3c-0.96,0-1.73,0.3-2.31,0.89C5.99,6.1,5.68,6.92,5.66,7.96H0
			c0.03-2.49,0.83-4.43,2.41-5.84s3.74-2.11,6.47-2.11c2.76,0,4.9,0.67,6.42,2s2.28,3.22,2.28,5.65c0,1.11-0.25,2.15-0.74,3.13
			c-0.49,0.98-1.36,2.07-2.6,3.27l-1.58,1.5c-0.99,0.95-1.55,2.06-1.7,3.34l-0.08,1.19H5.89z"/>
	</g>
</g>
<g>
	<path class="st1" d="M35.97,6.28h-6.84v6.05h6.32v1.84h-6.32v7.75h-2.05V4.42h8.89V6.28z"/>
	<path class="st1" d="M51.38,21.93h-2.27l-1.86-4.91h-7.42l-1.75,4.91H35.8l6.71-17.5h2.12L51.38,21.93z M46.58,15.18l-2.75-7.46
		c-0.09-0.24-0.18-0.63-0.27-1.17h-0.05c-0.08,0.5-0.17,0.89-0.28,1.17l-2.72,7.46H46.58z"/>
	<path class="st1" d="M61.01,22.22c-2.47,0-4.46-0.82-5.97-2.45c-1.49-1.64-2.23-3.76-2.23-6.38c0-2.82,0.76-5.07,2.28-6.74
		c1.53-1.68,3.6-2.51,6.21-2.51c2.41,0,4.35,0.81,5.83,2.44c1.48,1.63,2.22,3.76,2.22,6.38c0,2.86-0.76,5.12-2.27,6.78
		c-0.36,0.4-0.74,0.74-1.15,1.03l4.92,3.53h-3.72l-3.3-2.46C62.98,22.09,62.04,22.22,61.01,22.22z M61.16,5.99
		c-1.84,0-3.33,0.66-4.48,1.99c-1.15,1.33-1.72,3.07-1.72,5.22c0,2.15,0.56,3.89,1.67,5.21c1.12,1.31,2.58,1.96,4.38,1.96
		c1.92,0,3.43-0.63,4.54-1.88c1.11-1.25,1.66-3.01,1.66-5.26c0-2.32-0.54-4.11-1.61-5.36C64.53,6.62,63.04,5.99,61.16,5.99z"/>
</g>
</svg>
