<?xml version="1.0" encoding="utf-8"?>
<!-- Generator: Adobe Illustrator 23.0.1, SVG Export Plug-In . SVG Version: 6.00 Build 0)  -->
<svg version="1.1" id="Layer_1" xmlns="http://www.w3.org/2000/svg" xmlns:xlink="http://www.w3.org/1999/xlink" x="0px" y="0px"
	 viewBox="0 0 93.67 28" style="enable-background:new 0 0 93.67 28;" xml:space="preserve">
<style type="text/css">
	.st0{display:none;}
	.st1{fill:#FFFFFF;}
</style>
<rect class="st0" width="93.67" height="28"/>
<g>
	<path class="st1" d="M38.02,21.96h-9.08V4.45h2.05V20.1h7.03V21.96z"/>
	<path class="st1" d="M45.66,22.25c-1.85,0-3.32-0.58-4.42-1.75c-1.1-1.17-1.65-2.72-1.65-4.64c0-2.1,0.57-3.74,1.72-4.92
		c1.15-1.18,2.7-1.77,4.65-1.77c1.86,0,3.32,0.57,4.36,1.72c1.05,1.15,1.57,2.74,1.57,4.77c0,1.99-0.56,3.59-1.69,4.79
		C49.07,21.65,47.56,22.25,45.66,22.25z M45.81,10.85c-1.29,0-2.3,0.44-3.05,1.31c-0.75,0.88-1.12,2.08-1.12,3.62
		c0,1.48,0.38,2.65,1.14,3.5c0.76,0.86,1.77,1.28,3.04,1.28c1.29,0,2.29-0.42,2.98-1.26c0.7-0.84,1.04-2.03,1.04-3.58
		c0-1.56-0.35-2.77-1.04-3.61C48.1,11.27,47.1,10.85,45.81,10.85z"/>
	<path class="st1" d="M65.75,20.96c0,4.59-2.2,6.88-6.59,6.88c-1.55,0-2.9-0.29-4.05-0.88v-2c1.41,0.78,2.75,1.17,4.03,1.17
		c3.08,0,4.61-1.64,4.61-4.91v-1.37H63.7c-0.95,1.59-2.38,2.39-4.3,2.39c-1.55,0-2.81-0.56-3.75-1.67c-0.95-1.11-1.42-2.6-1.42-4.47
		c0-2.12,0.51-3.81,1.53-5.07c1.02-1.25,2.42-1.88,4.19-1.88c1.68,0,2.93,0.68,3.75,2.03h0.05V9.46h2V20.96z M63.75,16.31v-1.84
		c0-0.99-0.34-1.84-1.01-2.55c-0.67-0.71-1.51-1.06-2.51-1.06c-1.24,0-2.21,0.45-2.91,1.35c-0.7,0.9-1.05,2.16-1.05,3.78
		c0,1.39,0.34,2.5,1.01,3.34c0.67,0.83,1.56,1.25,2.67,1.25c1.12,0,2.04-0.4,2.74-1.2C63.4,18.57,63.75,17.55,63.75,16.31z"/>
	<path class="st1" d="M78.97,21.96h-2.05V4.45h2.05V21.96z"/>
	<path class="st1" d="M93.68,21.96h-2v-7.13c0-2.65-0.97-3.98-2.91-3.98c-1,0-1.83,0.38-2.48,1.13c-0.65,0.75-0.98,1.7-0.98,2.85
		v7.13h-2V9.46h2v2.08h0.05c0.94-1.58,2.31-2.37,4.1-2.37c1.37,0,2.41,0.44,3.14,1.32c0.72,0.88,1.09,2.16,1.09,3.83V21.96z"/>
</g>
<g id="icon">
	<path class="st1" d="M14.44,21.9l-5.22-3.84c-0.15-0.11-0.35-0.01-0.35,0.17v1.76c0,0.12-0.1,0.22-0.22,0.22h-1.5v1.32H5.29v-1.32
		H1.42v2.34h1.33v1.38h5.9c0.12,0,0.22,0.1,0.22,0.22v1.76c0,0.18,0.21,0.28,0.35,0.17l0.49-0.36v-1.16h1.58l3.15-2.32
		C14.55,22.16,14.55,21.98,14.44,21.9z"/>
	<rect x="0.12" y="17.68" class="st1" width="0.67" height="0.67"/>
	<rect x="18.83" y="26.66" class="st1" width="0.39" height="0.39"/>
	<rect x="15.66" y="15.11" class="st1" width="0.61" height="0.61"/>
	<path class="st1" d="M17.8,24.55v-5.49c0-1.66-1.34-3-3-3h-3.1l0.03-3.11c2.6-0.88,4.46-3.34,4.46-6.24c0-1.6-0.57-3.07-1.52-4.21
		h-1.76V1.01c-0.97-0.57-2.1-0.89-3.31-0.89c-3.64,0-6.59,2.95-6.59,6.59c0,2.89,1.87,5.35,4.46,6.24l0.03,3.11h-3.1
		c-0.32,0-0.63,0.05-0.92,0.14V17H2.24c-0.51,0.54-0.82,1.26-0.82,2.06v0.56h6.45c0.16,0,0.28-0.13,0.28-0.28v-2.3
		c0-0.23,0.27-0.37,0.45-0.23l3.01,2.26h1.28v0.96l2.39,1.79c0.15,0.11,0.15,0.34,0,0.45L8.6,27.3c-0.19,0.14-0.45,0.01-0.45-0.23
		v-2.3c0-0.16-0.13-0.28-0.28-0.28H1.42v3.39H17.8v-2.07h-0.63v-1.25H17.8z"/>
	<rect x="1.93" y="4.49" class="st1" width="0.64" height="0.64"/>
	<rect x="16.52" y="8.41" class="st1" width="0.9" height="0.9"/>
</g>
</svg>
