<?xml version="1.0" encoding="utf-8"?>
<!-- Generator: Adobe Illustrator 23.0.1, SVG Export Plug-In . SVG Version: 6.00 Build 0)  -->
<svg version="1.1" id="Layer_1" xmlns="http://www.w3.org/2000/svg" xmlns:xlink="http://www.w3.org/1999/xlink" x="0px" y="0px"
	 viewBox="0 0 115.77 28" style="enable-background:new 0 0 115.77 28;" xml:space="preserve">
<style type="text/css">
	.st0{display:none;}
	.st1{fill:#FFFFFF;}
</style>
<rect class="st0" width="115.77" height="28"/>
<g>
	<path class="st1" d="M37.98,21.96h-9.08V4.45h2.05V20.1h7.03V21.96z"/>
	<path class="st1" d="M45.62,22.25c-1.85,0-3.32-0.58-4.42-1.75c-1.1-1.17-1.65-2.72-1.65-4.64c0-2.1,0.57-3.74,1.72-4.92
		c1.15-1.18,2.7-1.77,4.65-1.77c1.86,0,3.32,0.57,4.36,1.72c1.05,1.15,1.57,2.74,1.57,4.77c0,1.99-0.56,3.59-1.69,4.79
		C49.03,21.65,47.51,22.25,45.62,22.25z M45.76,10.85c-1.29,0-2.3,0.44-3.05,1.31c-0.75,0.88-1.12,2.08-1.12,3.62
		c0,1.48,0.38,2.65,1.14,3.5c0.76,0.86,1.77,1.28,3.04,1.28c1.29,0,2.29-0.42,2.98-1.26c0.7-0.84,1.04-2.03,1.04-3.58
		c0-1.56-0.35-2.77-1.04-3.61C48.05,11.27,47.06,10.85,45.76,10.85z"/>
	<path class="st1" d="M65.71,20.96c0,4.59-2.2,6.88-6.59,6.88c-1.55,0-2.9-0.29-4.05-0.88v-2c1.41,0.78,2.75,1.17,4.03,1.17
		c3.08,0,4.61-1.64,4.61-4.91v-1.37h-0.05c-0.95,1.59-2.38,2.39-4.3,2.39c-1.55,0-2.81-0.56-3.75-1.67
		c-0.95-1.11-1.42-2.6-1.42-4.47c0-2.12,0.51-3.81,1.53-5.06c1.02-1.25,2.42-1.88,4.19-1.88c1.68,0,2.93,0.68,3.75,2.03h0.05V9.46h2
		V20.96z M63.71,16.31v-1.84c0-0.99-0.34-1.84-1.01-2.55c-0.67-0.71-1.51-1.06-2.51-1.06c-1.24,0-2.21,0.45-2.91,1.35
		c-0.7,0.9-1.05,2.16-1.05,3.78c0,1.39,0.34,2.5,1.01,3.34c0.67,0.83,1.56,1.25,2.67,1.25c1.12,0,2.04-0.4,2.74-1.2
		C63.36,18.57,63.71,17.55,63.71,16.31z"/>
	<path class="st1" d="M83.94,22.25c-2.48,0-4.47-0.82-5.96-2.45c-1.49-1.64-2.24-3.76-2.24-6.38c0-2.82,0.76-5.06,2.28-6.74
		c1.52-1.68,3.59-2.51,6.21-2.51c2.42,0,4.36,0.81,5.84,2.44c1.48,1.63,2.22,3.76,2.22,6.38c0,2.86-0.76,5.11-2.27,6.77
		S86.47,22.25,83.94,22.25z M84.08,6.02c-1.84,0-3.33,0.66-4.48,1.99c-1.15,1.33-1.72,3.07-1.72,5.22c0,2.16,0.56,3.89,1.68,5.21
		c1.12,1.31,2.58,1.97,4.38,1.97c1.92,0,3.43-0.63,4.54-1.88c1.11-1.25,1.66-3.01,1.66-5.26c0-2.31-0.54-4.1-1.61-5.36
		C87.45,6.65,85.97,6.02,84.08,6.02z"/>
	<path class="st1" d="M105.57,21.96h-2v-1.98h-0.05c-0.83,1.51-2.12,2.27-3.86,2.27c-2.98,0-4.47-1.77-4.47-5.32V9.46h1.99v7.15
		c0,2.64,1.01,3.96,3.03,3.96c0.98,0,1.78-0.36,2.41-1.08c0.63-0.72,0.95-1.66,0.95-2.83v-7.2h2V21.96z"/>
	<path class="st1" d="M115.41,21.84c-0.47,0.26-1.09,0.39-1.87,0.39c-2.19,0-3.28-1.22-3.28-3.66v-7.4h-2.15V9.46h2.15V6.41l2-0.65
		v3.7h3.15v1.71h-3.15v7.04c0,0.84,0.14,1.44,0.43,1.79c0.28,0.36,0.76,0.54,1.42,0.54c0.5,0,0.94-0.14,1.31-0.42V21.84z"/>
</g>
<g id="icon">
	<path class="st1" d="M4.78,21.9L10,18.06c0.15-0.11,0.35-0.01,0.35,0.17v1.76c0,0.12,0.1,0.22,0.22,0.22h1.5v1.32h1.85v-1.32h3.87
		v2.34h-1.33v1.38h-5.9c-0.12,0-0.22,0.1-0.22,0.22v1.76c0,0.18-0.21,0.28-0.35,0.17l-0.49-0.36v-1.16H7.93l-3.15-2.32
		C4.66,22.16,4.66,21.98,4.78,21.9z"/>
	
		<rect x="18.42" y="17.68" transform="matrix(-1 -4.583279e-11 4.583279e-11 -1 37.5218 36.0311)" class="st1" width="0.67" height="0.67"/>
	
		<rect x="0" y="26.66" transform="matrix(-1 -4.718549e-11 4.718549e-11 -1 0.3855 53.6999)" class="st1" width="0.39" height="0.39"/>
	
		<rect x="2.94" y="15.11" transform="matrix(-1 -4.470214e-11 4.470214e-11 -1 6.4892 30.827)" class="st1" width="0.61" height="0.61"/>
	<path class="st1" d="M1.41,24.55v-5.49c0-1.66,1.34-3,3-3h3.1l-0.03-3.11c-2.6-0.88-4.46-3.34-4.46-6.24c0-1.6,0.57-3.07,1.52-4.21
		H6.3V1.01c0.97-0.57,2.1-0.89,3.31-0.89c3.64,0,6.59,2.95,6.59,6.59c0,2.89-1.87,5.35-4.46,6.24l-0.03,3.11h3.1
		c0.32,0,0.63,0.05,0.92,0.14V17h1.27c0.51,0.54,0.82,1.26,0.82,2.06v0.56h-6.45c-0.16,0-0.28-0.13-0.28-0.28v-2.3
		c0-0.23-0.27-0.37-0.45-0.23L7.6,19.07H6.32v0.96l-2.39,1.79c-0.15,0.11-0.15,0.34,0,0.45l6.69,5.02c0.19,0.14,0.45,0.01,0.45-0.23
		v-2.3c0-0.16,0.13-0.28,0.28-0.28h6.45v3.39H1.41v-2.07h0.63v-1.25H1.41z"/>
	
		<rect x="16.64" y="4.49" transform="matrix(-1 -4.529811e-11 4.529811e-11 -1 33.9239 9.6246)" class="st1" width="0.64" height="0.64"/>
	<rect x="1.8" y="8.41" transform="matrix(-1 -4.550017e-11 4.550017e-11 -1 4.4975 17.72)" class="st1" width="0.9" height="0.9"/>
</g>
</svg>
