<?xml version="1.0" encoding="utf-8"?>
<!-- Generator: Adobe Illustrator 23.0.1, SVG Export Plug-In . SVG Version: 6.00 Build 0)  -->
<svg version="1.1" id="Layer_1" xmlns="http://www.w3.org/2000/svg" xmlns:xlink="http://www.w3.org/1999/xlink" x="0px" y="0px"
	 viewBox="0 0 194.16 28" style="enable-background:new 0 0 194.16 28;" xml:space="preserve">
<style type="text/css">
	.st0{display:none;}
	.st1{fill:#FFFFFF;}
</style>
<rect class="st0" width="194.16" height="28"/>
<g>
	<path class="st1" d="M41.49,21.96h-2.44l-2.93-4.91c-0.27-0.46-0.53-0.84-0.78-1.17c-0.25-0.32-0.51-0.58-0.78-0.79
		c-0.26-0.2-0.55-0.35-0.85-0.45c-0.3-0.09-0.65-0.14-1.03-0.14h-1.68v7.45h-2.05V4.45h5.22c0.76,0,1.47,0.1,2.12,0.29
		c0.65,0.19,1.21,0.48,1.68,0.87c0.48,0.39,0.85,0.88,1.12,1.46c0.27,0.58,0.4,1.26,0.4,2.04c0,0.61-0.09,1.17-0.27,1.68
		c-0.18,0.51-0.44,0.96-0.78,1.36c-0.34,0.4-0.75,0.74-1.22,1.02c-0.48,0.28-1.01,0.5-1.61,0.65v0.05c0.29,0.13,0.55,0.28,0.76,0.45
		c0.22,0.17,0.42,0.36,0.62,0.59c0.2,0.23,0.39,0.49,0.58,0.77c0.19,0.29,0.4,0.63,0.64,1.01L41.49,21.96z M30.99,6.31v6.35h2.78
		c0.51,0,0.99-0.08,1.42-0.23c0.44-0.16,0.81-0.38,1.13-0.67c0.32-0.29,0.57-0.64,0.74-1.06c0.18-0.42,0.27-0.89,0.27-1.41
		c0-0.94-0.3-1.67-0.91-2.19c-0.61-0.52-1.48-0.79-2.63-0.79H30.99z"/>
	<path class="st1" d="M52.94,16.21h-8.83c0.03,1.39,0.41,2.47,1.12,3.22c0.72,0.76,1.7,1.14,2.95,1.14c1.41,0,2.7-0.46,3.88-1.39
		v1.88c-1.1,0.8-2.55,1.2-4.36,1.2c-1.77,0-3.15-0.57-4.16-1.7c-1.01-1.13-1.51-2.73-1.51-4.79c0-1.95,0.55-3.53,1.65-4.75
		c1.1-1.22,2.47-1.84,4.11-1.84s2.9,0.53,3.8,1.59c0.9,1.06,1.34,2.53,1.34,4.41V16.21z M50.89,14.51c-0.01-1.16-0.29-2.05-0.84-2.7
		c-0.55-0.64-1.31-0.96-2.29-0.96c-0.94,0-1.75,0.34-2.4,1.01c-0.66,0.68-1.07,1.56-1.22,2.65H50.89z"/>
	<path class="st1" d="M55.21,21.51v-2.15c1.09,0.8,2.29,1.21,3.6,1.21c1.76,0,2.64-0.59,2.64-1.76c0-0.33-0.08-0.62-0.23-0.85
		c-0.15-0.23-0.35-0.44-0.61-0.62c-0.26-0.18-0.56-0.34-0.9-0.48c-0.35-0.14-0.72-0.29-1.12-0.45c-0.55-0.22-1.04-0.44-1.46-0.67
		c-0.42-0.22-0.77-0.48-1.05-0.76c-0.28-0.28-0.49-0.6-0.63-0.96c-0.14-0.36-0.21-0.78-0.21-1.26c0-0.59,0.13-1.1,0.4-1.56
		c0.27-0.45,0.63-0.83,1.07-1.13c0.45-0.31,0.96-0.54,1.53-0.69c0.57-0.16,1.17-0.23,1.78-0.23c1.08,0,2.05,0.19,2.91,0.56v2.03
		c-0.92-0.6-1.98-0.9-3.17-0.9c-0.37,0-0.71,0.04-1.01,0.13c-0.3,0.09-0.56,0.21-0.77,0.36c-0.22,0.15-0.38,0.34-0.5,0.56
		c-0.12,0.22-0.18,0.45-0.18,0.71c0,0.33,0.06,0.6,0.18,0.82c0.12,0.22,0.29,0.42,0.52,0.59c0.23,0.17,0.5,0.33,0.83,0.46
		c0.33,0.14,0.7,0.29,1.11,0.45c0.55,0.21,1.05,0.43,1.49,0.65s0.81,0.48,1.12,0.76c0.31,0.28,0.55,0.6,0.71,0.97
		c0.17,0.37,0.25,0.8,0.25,1.31c0,0.62-0.14,1.16-0.41,1.61c-0.27,0.46-0.64,0.83-1.09,1.14c-0.46,0.3-0.98,0.52-1.57,0.67
		c-0.59,0.15-1.22,0.22-1.87,0.22C57.27,22.25,56.15,22,55.21,21.51z"/>
	<path class="st1" d="M76.62,16.21h-8.83c0.03,1.39,0.41,2.47,1.12,3.22c0.72,0.76,1.7,1.14,2.95,1.14c1.41,0,2.7-0.46,3.88-1.39
		v1.88c-1.1,0.8-2.55,1.2-4.36,1.2c-1.77,0-3.15-0.57-4.16-1.7c-1.01-1.13-1.51-2.73-1.51-4.79c0-1.95,0.55-3.53,1.65-4.75
		c1.1-1.22,2.47-1.84,4.11-1.84s2.9,0.53,3.8,1.59c0.9,1.06,1.34,2.53,1.34,4.41V16.21z M74.57,14.51c-0.01-1.16-0.29-2.05-0.84-2.7
		c-0.55-0.64-1.31-0.96-2.29-0.96c-0.94,0-1.75,0.34-2.4,1.01c-0.66,0.68-1.07,1.56-1.22,2.65H74.57z"/>
	<path class="st1" d="M85.44,21.84c-0.47,0.26-1.09,0.39-1.87,0.39c-2.19,0-3.28-1.22-3.28-3.66v-7.4h-2.15V9.46h2.15V6.41l2-0.65
		v3.7h3.15v1.71h-3.15v7.04c0,0.84,0.14,1.44,0.43,1.79c0.28,0.36,0.76,0.54,1.42,0.54c0.5,0,0.94-0.14,1.31-0.42V21.84z"/>
	<path class="st1" d="M97.28,15.34v6.62h-2.05V4.45h4.81c1.87,0,3.32,0.46,4.35,1.37c1.03,0.91,1.54,2.2,1.54,3.86
		s-0.57,3.02-1.72,4.08c-1.14,1.06-2.69,1.59-4.63,1.59H97.28z M97.28,6.31v7.18h2.15c1.42,0,2.5-0.32,3.24-0.97
		c0.74-0.65,1.12-1.56,1.12-2.74c0-2.31-1.37-3.47-4.1-3.47H97.28z"/>
	<path class="st1" d="M117.06,21.96h-2v-1.95h-0.05c-0.87,1.5-2.15,2.25-3.85,2.25c-1.25,0-2.22-0.33-2.92-0.99
		c-0.7-0.66-1.06-1.53-1.06-2.63c0-2.34,1.38-3.69,4.13-4.08l3.75-0.52c0-2.13-0.86-3.19-2.58-3.19c-1.51,0-2.86,0.51-4.08,1.54
		v-2.05c1.23-0.78,2.64-1.17,4.25-1.17c2.94,0,4.41,1.55,4.41,4.66V21.96z M115.06,15.64l-3.02,0.42c-0.93,0.13-1.63,0.36-2.1,0.69
		c-0.47,0.33-0.71,0.91-0.71,1.75c0,0.61,0.22,1.11,0.65,1.5c0.44,0.39,1.01,0.58,1.74,0.58c0.99,0,1.81-0.35,2.46-1.04
		c0.65-0.7,0.97-1.58,0.97-2.64V15.64z"/>
	<path class="st1" d="M120.08,21.51v-2.15c1.09,0.8,2.29,1.21,3.6,1.21c1.76,0,2.64-0.59,2.64-1.76c0-0.33-0.08-0.62-0.23-0.85
		c-0.15-0.23-0.35-0.44-0.61-0.62c-0.26-0.18-0.56-0.34-0.9-0.48c-0.35-0.14-0.72-0.29-1.12-0.45c-0.55-0.22-1.04-0.44-1.46-0.67
		c-0.42-0.22-0.77-0.48-1.05-0.76c-0.28-0.28-0.49-0.6-0.63-0.96c-0.14-0.36-0.21-0.78-0.21-1.26c0-0.59,0.13-1.1,0.4-1.56
		c0.27-0.45,0.63-0.83,1.07-1.13c0.45-0.31,0.96-0.54,1.53-0.69c0.57-0.16,1.17-0.23,1.78-0.23c1.08,0,2.05,0.19,2.91,0.56v2.03
		c-0.92-0.6-1.98-0.9-3.17-0.9c-0.37,0-0.71,0.04-1.01,0.13c-0.3,0.09-0.56,0.21-0.77,0.36c-0.22,0.15-0.38,0.34-0.5,0.56
		c-0.12,0.22-0.18,0.45-0.18,0.71c0,0.33,0.06,0.6,0.18,0.82c0.12,0.22,0.29,0.42,0.52,0.59c0.23,0.17,0.5,0.33,0.83,0.46
		c0.33,0.14,0.7,0.29,1.11,0.45c0.55,0.21,1.05,0.43,1.49,0.65s0.81,0.48,1.12,0.76c0.31,0.28,0.55,0.6,0.71,0.97
		c0.17,0.37,0.25,0.8,0.25,1.31c0,0.62-0.14,1.16-0.41,1.61c-0.27,0.46-0.64,0.83-1.09,1.14c-0.46,0.3-0.98,0.52-1.57,0.67
		c-0.59,0.15-1.22,0.22-1.87,0.22C122.13,22.25,121.02,22,120.08,21.51z"/>
	<path class="st1" d="M130.68,21.51v-2.15c1.09,0.8,2.29,1.21,3.6,1.21c1.76,0,2.64-0.59,2.64-1.76c0-0.33-0.08-0.62-0.23-0.85
		c-0.15-0.23-0.35-0.44-0.61-0.62c-0.26-0.18-0.56-0.34-0.9-0.48c-0.35-0.14-0.72-0.29-1.12-0.45c-0.55-0.22-1.04-0.44-1.46-0.67
		c-0.42-0.22-0.77-0.48-1.05-0.76c-0.28-0.28-0.49-0.6-0.63-0.96c-0.14-0.36-0.21-0.78-0.21-1.26c0-0.59,0.13-1.1,0.4-1.56
		c0.27-0.45,0.63-0.83,1.07-1.13c0.45-0.31,0.96-0.54,1.53-0.69c0.57-0.16,1.17-0.23,1.78-0.23c1.08,0,2.05,0.19,2.91,0.56v2.03
		c-0.92-0.6-1.98-0.9-3.17-0.9c-0.37,0-0.71,0.04-1.01,0.13c-0.3,0.09-0.56,0.21-0.77,0.36c-0.22,0.15-0.38,0.34-0.5,0.56
		c-0.12,0.22-0.18,0.45-0.18,0.71c0,0.33,0.06,0.6,0.18,0.82c0.12,0.22,0.29,0.42,0.52,0.59c0.23,0.17,0.5,0.33,0.83,0.46
		c0.33,0.14,0.7,0.29,1.11,0.45c0.55,0.21,1.05,0.43,1.49,0.65s0.81,0.48,1.12,0.76c0.31,0.28,0.55,0.6,0.71,0.97
		c0.17,0.37,0.25,0.8,0.25,1.31c0,0.62-0.14,1.16-0.41,1.61c-0.27,0.46-0.64,0.83-1.09,1.14c-0.46,0.3-0.98,0.52-1.57,0.67
		c-0.59,0.15-1.22,0.22-1.87,0.22C132.74,22.25,131.63,22,130.68,21.51z"/>
	<path class="st1" d="M157.79,9.46l-3.75,12.5h-2.08l-2.58-8.95c-0.1-0.34-0.16-0.73-0.2-1.16h-0.05c-0.02,0.29-0.11,0.67-0.26,1.13
		l-2.8,8.97h-2l-3.78-12.5h2.1l2.59,9.4c0.08,0.29,0.14,0.66,0.17,1.12h0.1c0.02-0.36,0.1-0.74,0.22-1.15l2.88-9.38h1.83l2.59,9.42
		c0.08,0.3,0.14,0.68,0.18,1.12h0.1c0.02-0.32,0.09-0.69,0.21-1.12l2.54-9.42H157.79z"/>
	<path class="st1" d="M165.34,22.25c-1.85,0-3.32-0.58-4.42-1.75c-1.1-1.17-1.65-2.72-1.65-4.64c0-2.1,0.57-3.74,1.72-4.92
		c1.15-1.18,2.7-1.77,4.65-1.77c1.86,0,3.32,0.57,4.36,1.72c1.05,1.15,1.57,2.74,1.57,4.77c0,1.99-0.56,3.59-1.69,4.79
		C168.75,21.65,167.23,22.25,165.34,22.25z M165.49,10.85c-1.29,0-2.3,0.44-3.05,1.31c-0.75,0.88-1.12,2.08-1.12,3.62
		c0,1.48,0.38,2.65,1.14,3.5c0.76,0.86,1.77,1.28,3.04,1.28c1.29,0,2.29-0.42,2.98-1.26c0.7-0.84,1.04-2.03,1.04-3.58
		c0-1.56-0.35-2.77-1.04-3.61C167.77,11.27,166.78,10.85,165.49,10.85z"/>
	<path class="st1" d="M181.28,11.48c-0.35-0.27-0.85-0.4-1.51-0.4c-0.85,0-1.57,0.4-2.14,1.21c-0.57,0.81-0.86,1.9-0.86,3.3v6.37h-2
		V9.46h2v2.58h0.05c0.28-0.88,0.72-1.56,1.31-2.06c0.59-0.49,1.24-0.74,1.97-0.74c0.52,0,0.92,0.06,1.2,0.17V11.48z"/>
	<path class="st1" d="M194.12,21.96h-2v-2.12h-0.05c-0.93,1.61-2.36,2.42-4.3,2.42c-1.57,0-2.83-0.56-3.77-1.68
		c-0.94-1.12-1.41-2.64-1.41-4.57c0-2.07,0.52-3.72,1.56-4.97c1.04-1.24,2.43-1.87,4.16-1.87c1.72,0,2.97,0.68,3.75,2.03h0.05V3.45
		h2V21.96z M192.12,16.31v-1.84c0-1.01-0.33-1.86-1-2.56c-0.67-0.7-1.51-1.05-2.54-1.05c-1.22,0-2.18,0.45-2.88,1.34
		c-0.7,0.9-1.05,2.13-1.05,3.71c0,1.44,0.34,2.58,1.01,3.41c0.67,0.83,1.57,1.25,2.7,1.25c1.11,0,2.02-0.4,2.72-1.21
		C191.77,18.55,192.12,17.54,192.12,16.31z"/>
</g>
<g id="icon">
	<rect x="0.12" y="17.68" class="st1" width="0.67" height="0.67"/>
	<rect x="18.83" y="26.66" class="st1" width="0.39" height="0.39"/>
	<rect x="15.66" y="15.11" class="st1" width="0.61" height="0.61"/>
	<rect x="1.93" y="4.49" class="st1" width="0.64" height="0.64"/>
	<rect x="16.52" y="8.41" class="st1" width="0.9" height="0.9"/>
	<path class="st1" d="M17.8,24.55v-5.49c0-1.66-1.34-3-3-3h-3.1l0.03-3.11c2.6-0.88,4.46-3.34,4.46-6.24c0-1.6-0.57-3.07-1.52-4.21
		h-1.76V1.01c-0.97-0.57-2.1-0.89-3.31-0.89c-3.64,0-6.59,2.95-6.59,6.59c0,2.89,1.87,5.35,4.46,6.24l0.03,3.11h-3.1
		c-0.32,0-0.63,0.05-0.92,0.14V17H2.24c-0.51,0.54-0.82,1.26-0.82,2.06v8.82H17.8v-2.07h-0.63v-1.25H17.8z M12.31,23.36l-1.57-1.87
		l1.01,0c-0.22-1.17-1.25-2.06-2.49-2.06c-1.4,0-2.53,1.14-2.53,2.53c0,1.3,0.98,2.37,2.23,2.52l-0.41,0.6l0.41,0.72
		c-0.91-0.07-1.76-0.46-2.42-1.11c-0.73-0.73-1.12-1.69-1.12-2.72c0-1.03,0.4-1.99,1.12-2.72s1.69-1.12,2.72-1.12
		s1.99,0.4,2.72,1.12c0.61,0.61,0.99,1.4,1.1,2.24l0.73-0.04L12.31,23.36z"/>
</g>
</svg>
