<?xml version="1.0" encoding="utf-8"?>
<!-- Generator: Adobe Illustrator 23.0.1, SVG Export Plug-In . SVG Version: 6.00 Build 0)  -->
<svg version="1.1" id="Layer_1" xmlns="http://www.w3.org/2000/svg" xmlns:xlink="http://www.w3.org/1999/xlink" x="0px" y="0px"
	 viewBox="0 0 321.19 28" style="enable-background:new 0 0 321.19 28;" xml:space="preserve">
<style type="text/css">
	.st0{display:none;}
	.st1{fill:#FFFFFF;}
</style>
<rect class="st0" width="321.11" height="28"/>
<g>
	<path class="st1" d="M30.99,21.96h-2.05V4.45h2.05V21.96z"/>
	<path class="st1" d="M45.7,21.96h-2v-7.13c0-2.65-0.97-3.98-2.91-3.98c-1,0-1.83,0.38-2.48,1.13c-0.65,0.75-0.98,1.7-0.98,2.85
		v7.13h-2V9.46h2v2.08h0.05c0.94-1.58,2.31-2.37,4.1-2.37c1.37,0,2.41,0.44,3.14,1.32c0.72,0.88,1.09,2.16,1.09,3.83V21.96z"/>
	<path class="st1" d="M55.27,21.84c-0.47,0.26-1.09,0.39-1.87,0.39c-2.19,0-3.28-1.22-3.28-3.66v-7.4h-2.15V9.46h2.15V6.41l2-0.65
		v3.7h3.15v1.71h-3.15v7.04c0,0.84,0.14,1.44,0.43,1.79c0.28,0.36,0.76,0.54,1.42,0.54c0.5,0,0.94-0.14,1.31-0.42V21.84z"/>
	<path class="st1" d="M67.99,16.21h-8.83c0.03,1.39,0.41,2.47,1.12,3.22c0.72,0.76,1.7,1.14,2.95,1.14c1.41,0,2.7-0.46,3.88-1.39
		v1.88c-1.1,0.8-2.55,1.2-4.36,1.2c-1.77,0-3.15-0.57-4.16-1.7c-1.01-1.13-1.51-2.73-1.51-4.79c0-1.95,0.55-3.53,1.65-4.75
		c1.1-1.22,2.47-1.84,4.11-1.84c1.64,0,2.9,0.53,3.8,1.59c0.9,1.06,1.34,2.53,1.34,4.41V16.21z M65.94,14.51
		c-0.01-1.16-0.29-2.05-0.84-2.7c-0.55-0.64-1.31-0.96-2.29-0.96c-0.94,0-1.75,0.34-2.4,1.01c-0.66,0.68-1.07,1.56-1.22,2.65H65.94z
		"/>
	<path class="st1" d="M77.53,11.48c-0.35-0.27-0.85-0.4-1.51-0.4c-0.85,0-1.57,0.4-2.14,1.21c-0.57,0.81-0.86,1.9-0.86,3.3v6.37h-2
		V9.46h2v2.58h0.05c0.28-0.88,0.72-1.56,1.31-2.06c0.59-0.49,1.24-0.74,1.97-0.74c0.52,0,0.92,0.06,1.2,0.17V11.48z"/>
	<path class="st1" d="M89.75,16.21h-8.83c0.03,1.39,0.41,2.47,1.12,3.22c0.72,0.76,1.7,1.14,2.95,1.14c1.41,0,2.7-0.46,3.88-1.39
		v1.88c-1.1,0.8-2.55,1.2-4.36,1.2c-1.77,0-3.15-0.57-4.16-1.7c-1.01-1.13-1.51-2.73-1.51-4.79c0-1.95,0.55-3.53,1.65-4.75
		c1.1-1.22,2.47-1.84,4.11-1.84s2.9,0.53,3.8,1.59c0.9,1.06,1.34,2.53,1.34,4.41V16.21z M87.7,14.51c-0.01-1.16-0.29-2.05-0.84-2.7
		c-0.55-0.64-1.31-0.96-2.29-0.96c-0.94,0-1.75,0.34-2.4,1.01c-0.66,0.68-1.07,1.56-1.22,2.65H87.7z"/>
	<path class="st1" d="M92.02,21.51v-2.15c1.09,0.8,2.29,1.21,3.6,1.21c1.76,0,2.64-0.59,2.64-1.76c0-0.33-0.08-0.62-0.23-0.85
		c-0.15-0.23-0.35-0.44-0.61-0.62c-0.26-0.18-0.56-0.34-0.9-0.48c-0.35-0.14-0.72-0.29-1.12-0.45c-0.55-0.22-1.04-0.44-1.46-0.67
		c-0.42-0.22-0.77-0.48-1.05-0.76c-0.28-0.28-0.49-0.6-0.63-0.96c-0.14-0.36-0.21-0.78-0.21-1.26c0-0.59,0.13-1.1,0.4-1.56
		c0.27-0.45,0.63-0.83,1.07-1.13c0.45-0.31,0.96-0.54,1.53-0.69c0.57-0.16,1.17-0.23,1.78-0.23c1.08,0,2.05,0.19,2.91,0.56v2.03
		c-0.92-0.6-1.98-0.9-3.17-0.9c-0.37,0-0.71,0.04-1.01,0.13c-0.3,0.09-0.56,0.21-0.77,0.36c-0.22,0.15-0.38,0.34-0.5,0.56
		c-0.12,0.22-0.18,0.45-0.18,0.71c0,0.33,0.06,0.6,0.18,0.82c0.12,0.22,0.29,0.42,0.52,0.59c0.23,0.17,0.5,0.33,0.83,0.46
		c0.33,0.14,0.7,0.29,1.11,0.45c0.55,0.21,1.05,0.43,1.49,0.65s0.81,0.48,1.12,0.76c0.31,0.28,0.55,0.6,0.71,0.97
		c0.17,0.37,0.25,0.8,0.25,1.31c0,0.62-0.14,1.16-0.41,1.61c-0.27,0.46-0.64,0.83-1.09,1.14c-0.46,0.3-0.98,0.52-1.57,0.67
		c-0.59,0.15-1.22,0.22-1.87,0.22C94.08,22.25,92.97,22,92.02,21.51z"/>
	<path class="st1" d="M109.19,21.84c-0.47,0.26-1.09,0.39-1.87,0.39c-2.19,0-3.28-1.22-3.28-3.66v-7.4h-2.15V9.46h2.15V6.41l2-0.65
		v3.7h3.15v1.71h-3.15v7.04c0,0.84,0.14,1.44,0.43,1.79c0.28,0.36,0.76,0.54,1.42,0.54c0.5,0,0.94-0.14,1.31-0.42V21.84z"/>
	<path class="st1" d="M121.91,16.21h-8.83c0.03,1.39,0.41,2.47,1.12,3.22c0.72,0.76,1.7,1.14,2.95,1.14c1.41,0,2.7-0.46,3.88-1.39
		v1.88c-1.1,0.8-2.55,1.2-4.36,1.2c-1.77,0-3.15-0.57-4.16-1.7c-1.01-1.13-1.51-2.73-1.51-4.79c0-1.95,0.55-3.53,1.65-4.75
		c1.1-1.22,2.47-1.84,4.11-1.84s2.9,0.53,3.8,1.59c0.9,1.06,1.34,2.53,1.34,4.41V16.21z M119.86,14.51
		c-0.01-1.16-0.29-2.05-0.84-2.7c-0.55-0.64-1.31-0.96-2.29-0.96c-0.94,0-1.75,0.34-2.4,1.01c-0.66,0.68-1.07,1.56-1.22,2.65H119.86
		z"/>
	<path class="st1" d="M135.6,21.96h-2v-2.12h-0.05c-0.93,1.61-2.36,2.42-4.3,2.42c-1.57,0-2.83-0.56-3.77-1.68
		c-0.94-1.12-1.41-2.64-1.41-4.57c0-2.07,0.52-3.72,1.56-4.97c1.04-1.24,2.43-1.87,4.16-1.87c1.72,0,2.97,0.68,3.75,2.03h0.05V3.45
		h2V21.96z M133.6,16.31v-1.84c0-1.01-0.33-1.86-1-2.56c-0.67-0.7-1.51-1.05-2.54-1.05c-1.22,0-2.18,0.45-2.88,1.34
		c-0.7,0.9-1.05,2.13-1.05,3.71c0,1.44,0.34,2.58,1.01,3.41c0.67,0.83,1.57,1.25,2.7,1.25c1.11,0,2.02-0.4,2.72-1.21
		C133.25,18.55,133.6,17.54,133.6,16.31z"/>
	<path class="st1" d="M147.53,6.28c-0.36,0-0.66-0.12-0.92-0.37c-0.25-0.24-0.38-0.55-0.38-0.93s0.13-0.69,0.38-0.93
		c0.25-0.25,0.56-0.37,0.92-0.37c0.37,0,0.68,0.12,0.93,0.37c0.26,0.25,0.38,0.56,0.38,0.93c0,0.36-0.13,0.66-0.38,0.92
		C148.21,6.16,147.89,6.28,147.53,6.28z M148.51,21.96h-2V9.46h2V21.96z"/>
	<path class="st1" d="M162.93,21.96h-2v-7.13c0-2.65-0.97-3.98-2.91-3.98c-1,0-1.83,0.38-2.48,1.13c-0.65,0.75-0.98,1.7-0.98,2.85
		v7.13h-2V9.46h2v2.08h0.05c0.94-1.58,2.31-2.37,4.1-2.37c1.37,0,2.41,0.44,3.14,1.32c0.72,0.88,1.09,2.16,1.09,3.83V21.96z"/>
	<path class="st1" d="M183.38,9.46l-4.98,12.5h-1.97l-4.74-12.5h2.2l3.17,9.08c0.24,0.67,0.38,1.25,0.44,1.75h0.05
		c0.08-0.63,0.21-1.19,0.39-1.7l3.32-9.13H183.38z"/>
	<path class="st1" d="M190.75,22.25c-1.85,0-3.32-0.58-4.42-1.75c-1.1-1.17-1.65-2.72-1.65-4.64c0-2.1,0.57-3.74,1.72-4.92
		c1.15-1.18,2.7-1.77,4.65-1.77c1.86,0,3.32,0.57,4.36,1.72c1.05,1.15,1.57,2.74,1.57,4.77c0,1.99-0.56,3.59-1.69,4.79
		C194.16,21.65,192.65,22.25,190.75,22.25z M190.9,10.85c-1.29,0-2.3,0.44-3.05,1.31c-0.75,0.88-1.12,2.08-1.12,3.62
		c0,1.48,0.38,2.65,1.14,3.5c0.76,0.86,1.77,1.28,3.04,1.28c1.29,0,2.29-0.42,2.98-1.26c0.7-0.84,1.04-2.03,1.04-3.58
		c0-1.56-0.35-2.77-1.04-3.61C193.19,11.27,192.19,10.85,190.9,10.85z"/>
	<path class="st1" d="M202.18,21.96h-2V3.45h2V21.96z"/>
	<path class="st1" d="M216.34,21.96h-2v-1.98h-0.05c-0.83,1.51-2.12,2.27-3.86,2.27c-2.98,0-4.47-1.77-4.47-5.32V9.46h1.99v7.15
		c0,2.64,1.01,3.96,3.03,3.96c0.98,0,1.78-0.36,2.41-1.08c0.63-0.72,0.95-1.66,0.95-2.83v-7.2h2V21.96z"/>
	<path class="st1" d="M230.76,21.96h-2v-7.13c0-2.65-0.97-3.98-2.91-3.98c-1,0-1.83,0.38-2.48,1.13c-0.65,0.75-0.98,1.7-0.98,2.85
		v7.13h-2V9.46h2v2.08h0.05c0.94-1.58,2.31-2.37,4.1-2.37c1.37,0,2.41,0.44,3.14,1.32c0.72,0.88,1.09,2.16,1.09,3.83V21.96z"/>
	<path class="st1" d="M240.33,21.84c-0.47,0.26-1.09,0.39-1.87,0.39c-2.19,0-3.28-1.22-3.28-3.66v-7.4h-2.15V9.46h2.15V6.41l2-0.65
		v3.7h3.15v1.71h-3.15v7.04c0,0.84,0.14,1.44,0.43,1.79c0.28,0.36,0.76,0.54,1.42,0.54c0.5,0,0.94-0.14,1.31-0.42V21.84z"/>
	<path class="st1" d="M253.05,16.21h-8.83c0.03,1.39,0.41,2.47,1.12,3.22c0.72,0.76,1.7,1.14,2.95,1.14c1.41,0,2.7-0.46,3.88-1.39
		v1.88c-1.1,0.8-2.55,1.2-4.36,1.2c-1.77,0-3.15-0.57-4.16-1.7c-1.01-1.13-1.51-2.73-1.51-4.79c0-1.95,0.55-3.53,1.65-4.75
		c1.1-1.22,2.47-1.84,4.11-1.84s2.9,0.53,3.8,1.59c0.9,1.06,1.34,2.53,1.34,4.41V16.21z M251,14.51c-0.01-1.16-0.29-2.05-0.84-2.7
		c-0.55-0.64-1.31-0.96-2.29-0.96c-0.94,0-1.75,0.34-2.4,1.01c-0.66,0.68-1.07,1.56-1.22,2.65H251z"/>
	<path class="st1" d="M266.12,16.21h-8.83c0.03,1.39,0.41,2.47,1.12,3.22c0.72,0.76,1.7,1.14,2.95,1.14c1.41,0,2.7-0.46,3.88-1.39
		v1.88c-1.1,0.8-2.55,1.2-4.36,1.2c-1.77,0-3.15-0.57-4.16-1.7c-1.01-1.13-1.51-2.73-1.51-4.79c0-1.95,0.55-3.53,1.65-4.75
		c1.1-1.22,2.47-1.84,4.11-1.84s2.9,0.53,3.8,1.59c0.9,1.06,1.34,2.53,1.34,4.41V16.21z M264.07,14.51
		c-0.01-1.16-0.29-2.05-0.84-2.7c-0.55-0.64-1.31-0.96-2.29-0.96c-0.94,0-1.75,0.34-2.4,1.01c-0.66,0.68-1.07,1.56-1.22,2.65H264.07
		z"/>
	<path class="st1" d="M275.67,11.48c-0.35-0.27-0.85-0.4-1.51-0.4c-0.85,0-1.57,0.4-2.14,1.21c-0.57,0.81-0.86,1.9-0.86,3.3v6.37h-2
		V9.46h2v2.58h0.05c0.28-0.88,0.72-1.56,1.31-2.06c0.59-0.49,1.24-0.74,1.97-0.74c0.52,0,0.92,0.06,1.2,0.17V11.48z"/>
	<path class="st1" d="M278.86,6.28c-0.36,0-0.66-0.12-0.92-0.37c-0.25-0.24-0.38-0.55-0.38-0.93s0.13-0.69,0.38-0.93
		c0.25-0.25,0.56-0.37,0.92-0.37c0.37,0,0.68,0.12,0.93,0.37c0.26,0.25,0.38,0.56,0.38,0.93c0,0.36-0.13,0.66-0.38,0.92
		C279.54,6.16,279.23,6.28,278.86,6.28z M279.84,21.96h-2V9.46h2V21.96z"/>
	<path class="st1" d="M294.27,21.96h-2v-7.13c0-2.65-0.97-3.98-2.91-3.98c-1,0-1.83,0.38-2.48,1.13c-0.65,0.75-0.98,1.7-0.98,2.85
		v7.13h-2V9.46h2v2.08h0.05c0.94-1.58,2.31-2.37,4.1-2.37c1.37,0,2.41,0.44,3.14,1.32c0.72,0.88,1.09,2.16,1.09,3.83V21.96z"/>
	<path class="st1" d="M308.71,20.96c0,4.59-2.2,6.88-6.59,6.88c-1.55,0-2.9-0.29-4.05-0.88v-2c1.41,0.78,2.75,1.17,4.03,1.17
		c3.08,0,4.61-1.64,4.61-4.91v-1.37h-0.05c-0.95,1.59-2.38,2.39-4.3,2.39c-1.55,0-2.81-0.56-3.75-1.67
		c-0.95-1.11-1.42-2.6-1.42-4.47c0-2.12,0.51-3.81,1.53-5.07c1.02-1.25,2.42-1.88,4.19-1.88c1.68,0,2.93,0.68,3.75,2.03h0.05V9.46h2
		V20.96z M306.71,16.31v-1.84c0-0.99-0.34-1.84-1.01-2.55c-0.67-0.71-1.51-1.06-2.51-1.06c-1.24,0-2.21,0.45-2.91,1.35
		c-0.7,0.9-1.05,2.16-1.05,3.78c0,1.39,0.34,2.5,1.01,3.34c0.67,0.83,1.56,1.25,2.67,1.25c1.12,0,2.04-0.4,2.74-1.2
		C306.36,18.57,306.71,17.55,306.71,16.31z"/>
	<path class="st1" d="M314.83,17.1c-0.07-0.21-0.14-0.49-0.2-0.82c-0.06-0.34-0.08-0.67-0.08-1.01c0-0.52,0.1-0.99,0.31-1.41
		c0.21-0.42,0.46-0.81,0.77-1.18s0.65-0.72,1.01-1.06s0.7-0.68,1.01-1.03s0.57-0.71,0.78-1.09c0.21-0.38,0.31-0.79,0.31-1.25
		c0-0.39-0.08-0.74-0.23-1.04c-0.15-0.3-0.36-0.55-0.62-0.76c-0.26-0.2-0.56-0.36-0.9-0.46s-0.7-0.15-1.09-0.15
		c-1.38,0-2.57,0.54-3.58,1.62V5.33c1.25-0.78,2.54-1.17,3.87-1.17c0.62,0,1.2,0.08,1.75,0.24s1.02,0.41,1.43,0.73
		s0.73,0.72,0.97,1.2c0.24,0.48,0.35,1.04,0.35,1.67c0,0.6-0.11,1.14-0.32,1.61c-0.21,0.47-0.48,0.91-0.8,1.3
		c-0.32,0.39-0.67,0.76-1.04,1.1c-0.38,0.34-0.72,0.68-1.04,1.02s-0.59,0.69-0.8,1.06s-0.32,0.77-0.32,1.21
		c0,0.37,0.04,0.71,0.13,1.02c0.09,0.31,0.18,0.56,0.27,0.78H314.83z M315.92,22.18c-0.36,0-0.68-0.13-0.95-0.39
		c-0.27-0.26-0.4-0.58-0.4-0.95c0-0.38,0.13-0.7,0.4-0.95c0.27-0.27,0.59-0.4,0.95-0.4s0.68,0.13,0.95,0.4
		c0.27,0.25,0.4,0.57,0.4,0.95c0,0.37-0.13,0.69-0.4,0.95C316.6,22.05,316.28,22.18,315.92,22.18z"/>
</g>
<g id="icon">
	<rect x="0.12" y="17.68" class="st1" width="0.67" height="0.67"/>
	<rect x="18.83" y="26.66" class="st1" width="0.39" height="0.39"/>
	<rect x="15.66" y="15.11" class="st1" width="0.61" height="0.61"/>
	<rect x="1.93" y="4.49" class="st1" width="0.64" height="0.64"/>
	<rect x="16.52" y="8.41" class="st1" width="0.9" height="0.9"/>
	<path class="st1" d="M17.8,24.55v-5.49c0-1.66-1.34-3-3-3h-3.1l0.03-3.11c2.6-0.88,4.46-3.34,4.46-6.24c0-1.6-0.57-3.07-1.52-4.21
		h-1.76V1.01c-0.97-0.57-2.1-0.89-3.31-0.89c-3.64,0-6.59,2.95-6.59,6.59c0,2.89,1.87,5.35,4.46,6.24l0.03,3.11h-3.1
		c-0.32,0-0.63,0.05-0.92,0.14V17H2.24c-0.51,0.54-0.82,1.26-0.82,2.06v8.82H17.8v-2.07h-0.63v-1.25H17.8z M13.3,20.76
		c-0.22,0.93-0.68,1.79-1.3,2.52l-2.39,2.29l-2.39-2.29c-0.62-0.73-1.08-1.59-1.3-2.52c-0.22-0.95-0.22-2.04,0.66-2.58
		c1.76-1.1,3.03,1.43,3.03,1.43s1.28-2.52,3.03-1.43C13.52,18.73,13.52,19.81,13.3,20.76z"/>
</g>
</svg>
