<?xml version="1.0" encoding="utf-8"?>
<!-- Generator: Adobe Illustrator 21.0.0, SVG Export Plug-In . SVG Version: 6.00 Build 0)  -->
<svg version="1.1" id="Layer_1" xmlns="http://www.w3.org/2000/svg" xmlns:xlink="http://www.w3.org/1999/xlink" x="0px" y="0px"
	 viewBox="0 0 547 230" style="enable-background:new 0 0 547 230;" xml:space="preserve">
<style type="text/css">
	.st0{clip-path:url(#SVGID_2_);fill:#FFFFFF;}
	.st1{clip-path:url(#SVGID_2_);fill:none;stroke:#FFFFFF;stroke-width:2.331;stroke-linecap:round;}
</style>
<g>
	<defs>
		<rect id="SVGID_1_" width="547" height="230"/>
	</defs>
	<use xlink:href="#SVGID_1_"  style="overflow:visible;fill:#FFFFFF;"/>
	<clipPath id="SVGID_2_">
		<use xlink:href="#SVGID_1_"  style="overflow:visible;"/>
	</clipPath>
	<path class="st0" d="M0,179.8h6.1c3.4,0,6.9,0,9.6,2.4c1.6,1.3,2.7,3.7,2.7,5.8c0,3.8-2.6,5.3-3.5,5.9c1.9,0.8,5.2,2.4,5.2,7.5
		c0,3.7-1.9,6.1-3.8,7.4c-2.4,1.6-5.9,1.9-8,1.9H0V179.8 M5.9,191.8h1.9c1.3,0,4.9,0,4.9-3.2c0-1.9-1.1-3.4-4.3-3.4H5.9V191.8z
		 M5.9,205.4h2.9c1.1,0,5.7,0,5.7-4c0-1.3-0.6-4.2-5.6-4.2h-3V205.4z"/>
	<path class="st0" d="M44,187.5v23.2H39v-2.4h-0.2c-0.8,1.3-2.4,3.2-5.9,3.2c-4.3,0-6.5-2.1-7.7-3.7c-1.6-2.4-1.6-6.2-1.6-8.2v-12
		H29v11.8c0,1.9,0,7,4.8,7c3.5,0,4.6-3.2,4.6-6.9v-11.8H44"/>
	<path class="st0" d="M48.6,179.8h5.6v5.1h-5.6V179.8z M48.6,187.5h5.6v23.2h-5.6V187.5z"/>
	<rect x="58.5" y="179.8" class="st0" width="5.6" height="30.9"/>
	<path class="st0" d="M92.1,210.7H87v-2.9h-0.2c-1.1,1.6-3.5,3.7-7.3,3.7c-5.9,0-11.8-5-11.8-12.3c0-7.9,6.2-12.5,11.8-12.5
		c3.3,0,5.4,1.1,7,2.9v-9.8h5.6V210.7 M80.1,206.3c4.2,0,6.9-3.7,6.9-7.2c0-3.8-2.9-7.2-6.9-7.2c-4.2,0-6.9,3.9-6.9,7.2
		C73.2,203.2,76.4,206.3,80.1,206.3"/>
	<path class="st0" d="M95.9,179.8h5.6v5.1h-5.6V179.8z M95.9,187.5h5.6v23.2h-5.6V187.5z"/>
	<path class="st0" d="M106,187.5h5.1v2.1c1-1,2.9-2.9,6.4-2.9c1.9,0,5.1,0.8,6.9,3.2c2.1,2.6,2.1,6.4,2.1,8.3v12.5H121v-11.5
		c0-1.9,0-7.5-4.6-7.5c-1,0-2.9,0.5-3.8,2.1c-1,1.4-1,3.8-1,5.8v11H106V187.5"/>
	<path class="st0" d="M154.6,187.5v18.9c0,11-8.3,13.6-12.6,13.6c-4.8,0-9.6-2.4-11.5-7.7h6.2c2.1,2.6,4.8,2.6,5.8,2.6
		c3,0,6.7-2.1,7-7.2l0,0c-0.8,1.1-2.9,3.7-7.7,3.7c-5.6,0-11.8-4.8-11.8-12.5c0-7.4,5.9-12.2,11.8-12.2c4.8,0,6.9,2.7,7.4,3.7h0
		v-2.9H154.6 M142.3,191.8c-3.3,0-6.7,2.7-6.7,7.2c0,4.6,3.5,7.3,6.9,7.3c3.3,0,6.6-2.7,6.6-7.3
		C149.2,195.6,146.5,191.8,142.3,191.8"/>
	<path class="st0" d="M170.5,179.8h7c7.5,0,10.8,2.1,12.6,3.7c2.9,2.4,5.1,7,5.1,11.8c0,5.6-2.9,10.9-7.3,13.3
		c-2.9,1.6-6.9,2.1-10.3,2.1h-7V179.8 M176.2,205.4h1.1c3.2,0,5.1-0.2,7.5-1.6c3.1-1.6,4.7-5.1,4.7-8.5c0-3-1.3-5.7-3.4-7.5
		c-2.2-2.1-5.4-2.6-8.9-2.6h-1.1V205.4z"/>
	<path class="st0" d="M199.7,187.5h5.1v2.1h0c1.1-1.6,2.1-2.9,5-2.9h0.3v5.4c-5.1,0.2-5.1,4.2-5.1,5.6v13.1h-5.4V187.5"/>
	<path class="st0" d="M217.1,201.6c0.3,1.4,2.4,4.6,6.4,4.6c2.4,0,4.3-0.9,5.3-2.9h5.9c-1.3,4.2-5.7,8.2-11.2,8.2
		c-7,0-12.2-5.6-12.2-12.3c0-6.6,5-12.5,12.2-12.5c7.5,0,12,6.2,12,12c0,1.1-0.2,2.1-0.5,2.9H217.1 M229.8,197.1
		c-0.7-3.7-3.4-5.3-6.4-5.3c-2.2,0-5.4,1-6.5,5.3H229.8z"/>
	<path class="st0" d="M262.2,210.7h-5.1v-2.9c-1.8,2.1-5.1,3.7-8,3.7c-6.1,0-11.2-4.8-11.2-12.5c0-7.2,5.1-12.3,11.5-12.3
		c4.8,0,7.5,3.4,7.7,3.7h0v-2.9h5.1V210.7 M250.2,191.8c-4.5,0-6.9,4-6.9,7.4c0,3.8,2.9,7,6.9,7c3.8,0,6.7-3,6.7-7.2
		C256.9,194.2,253.4,191.8,250.2,191.8"/>
	<path class="st0" d="M266.4,187.5h5.1v2.1h0c0.5-0.8,2.1-2.9,6.1-2.9c1.1,0,4.3,0.3,6.7,3.7c2.4-3.5,5.7-3.7,7.5-3.7
		c4.5,0,6.7,2.4,7.5,3.7c0.8,1.1,1.8,3.3,1.8,6.7v13.6h-5.6v-12.8c0-1.3,0-6.1-4.5-6.1c-1.4,0-3,0.8-3.8,2.1
		c-0.8,1.4-0.8,3.7-0.8,5.3v11.5h-5.6v-12.8c0-3.2-1.1-6.1-4.6-6.1c-4.5,0-4.5,4.8-4.5,7.4v11.5h-5.4V187.5"/>
	<path class="st0" d="M314.8,193.9c-0.5-1.9-1.6-2.1-2.2-2.1c-1.5,0-2.1,1.1-2.1,2.1c0,1.3,0.9,1.6,3.8,2.5c2.9,1,6.6,2.3,6.6,6.9
		c0,5.3-4.2,8.2-8.2,8.2c-2.2,0-5.1-0.8-6.9-3.1c-1.4-1.7-1.6-3.5-1.7-5h5.6c0.3,1.1,0.8,2.9,3,2.9c1.8,0,2.6-1.3,2.6-2.2
		c0-1.8-1.3-2.1-5.3-3.5c-2.7-0.8-5.1-2.9-5.1-6.7c0-4.5,4-7.2,7.7-7.2c3.5,0,7.3,2.6,7.5,7.2H314.8"/>
	<path class="st0" d="M382.6,177.4c-0.8,2.4-2.8,3.7-5.9,3.7l1-1.8c-0.8-0.3-1.8-0.3-2.7-0.3c-1.6,0-4,0.3-7.5,1.1
		c-3.7,0.8-6.1,1.4-7.2,1.9l-2.2,7.4c-0.8,2.2-1.6,4-2.4,5.6c-1,1.4-2.6,4-4.8,7.8c-1.8,2.7-3,5.6-3.7,8.3l-3.7-0.8
		c0.3-1.4,1.6-3.8,3.7-7.2c2.9-4.5,4.8-7.6,5.7-9.4c2.1-3.8,3.1-7.5,3.1-10.8l-0.3,0.1l-11.7,2.6c-1.9,0.8-3.7,1.4-5.4,2.2
		c-0.8,0-1.3-0.3-1.8-0.8c-0.3-0.5-0.6-1.3-0.4-1.9l0.8-1.6c0.8-0.5,1.6-0.5,2.4-0.5c0.3,0,0.6,0,1.1,0c0.5,0,1,0,1.3,0
		c3.8,0,8-0.6,12.8-1.7c2.7-0.8,7-1.9,12.6-3.4c4.8-1.1,8.8-1.8,12.3-1.8c0.8,0,1.3,0.2,1.6,0.2
		C381.8,176.4,382.3,176.8,382.6,177.4"/>
	<path class="st0" d="M395.6,201.9c0,2.9-2.1,5.1-6.4,6.9c-3.2,1.1-6.6,1.9-10.1,1.9c-7.5,0-11.2-1.9-11.2-5.6
		c0-2.6,2.4-5.1,7.2-7.7c4.3-2.2,8-3.2,10.9-3.2c2.7,0,4.8,0.6,6.6,1.9C394.6,197.4,395.6,199.3,395.6,201.9 M393,201.7
		c0-1.6-0.8-2.7-2.4-3.5c-1.3-0.6-2.7-1-4.3-1c-2.9,0-5.8,0.8-8.8,2.4c-3.2,1.6-5.5,3.5-6.9,5.9c2.1,2.1,4.7,3.2,7.7,3.2
		c2.9,0,5.7-0.5,8.8-1.6C391.1,205.7,393,203.8,393,201.7"/>
	<path class="st0" d="M416.5,197.6c0,0.6-0.3,1.9-0.9,3.5c-0.4,0.8-0.5,1.4-0.5,1.9c0,4.8-0.3,8.8-0.8,11.8
		c-2,10.1-6.9,15.2-15.2,15.2c-1.4,0-3.4-0.3-5.7-1.3c-2.9-1.1-4.3-2.2-4.3-3.4c0-0.3,0.1-0.8,0.3-1.6h0.5c0.8,0.8,2.2,1.8,4.2,2.7
		c1.9,1,3.5,1.3,4.6,1.3c3.8,0,6.9-1.7,9.4-5.4c2.3-3.2,3.4-6.9,3.4-10.9c0-0.9-0.2-1.7-0.5-2.4c-0.6-0.3-1.1-0.3-1.4-0.3
		c-0.2,0-0.5,0-1,0.2c-0.5,0-0.8,0.1-1.1,0.1c-3.1,0-5.3-0.1-6.7-0.5c-2.9-0.6-4.3-2.1-4.3-4.1c0-3.1,1.8-5.8,5.1-8.2
		c3.2-2.1,6.4-3.2,9.4-3.2C414.9,192.9,416.5,194.5,416.5,197.6 M413.6,196.9c0-0.9-0.9-1.4-2.9-1.4c-1.9,0-4.1,0.8-6.7,2.5
		c-2.7,1.9-4,3.7-4,5.6c0,2.1,2.1,3.2,6.1,3.2c1.1,0,2.1-0.2,3.2-0.5c1.4-0.3,2.2-1.1,2.2-1.9c0-0.3,0-0.5-0.2-0.9
		c-0.1-0.5-0.2-0.8-0.2-1c0-0.3,0.7-1.4,1.8-3.3C413.3,198.2,413.6,197.6,413.6,196.9"/>
	<path class="st0" d="M439.4,207.6c-1,1.1-3.2,1.9-6.7,2.4c-2.4,0.3-5,0.5-7.5,0.5c-5.3,0-8-1.6-8-4.5c0-3.7,2.7-6.9,8.3-9.6
		c1.9-0.9,3.8-1.6,5.9-2.2c2.1,0.3,3.4,0.8,4,0.9c1.4,0.5,2.1,1.8,2.1,3.7c0,1.6-1.1,2.9-3.2,3.8c-1.8,0.8-3.5,1.3-5.4,1.3
		c-2.9,0-5-0.5-6.3-1.3c-1.4,0.8-2.2,1.6-2.2,2.9c0,2.1,1.9,3.2,5.6,3.2c1.4,0,3.1-0.2,4.8-0.3C435.4,207.8,438.2,207.6,439.4,207.6
		 M434.6,198.5c-1-0.9-2.1-1.4-3.5-1.4c-1,0-1.9,0.3-2.6,0.6c0,0-0.8,0.5-2.4,1.3c1,1.6,2.2,2.2,3.8,2.2
		C431.8,201.2,433.3,200.3,434.6,198.5"/>
	<path class="st0" d="M461.6,182.5c0,0.8-0.3,1.6-0.8,2.6c-0.3,0.5-1.3,1.8-2.9,4c0.8,0.5,1.6,1.1,2.4,1.6c0.8,0.6,1.3,1.6,1.1,2.4
		l0,0.5c0,0-0.8-0.3-2.1-0.8c-0.8-0.3-1.6-0.3-2.1-0.3c-1.6,0-4.3,1.8-7.5,5.4c-3.2,3.7-4.8,6.4-4.8,8c0,1.6,1.3,2.7,4.2,3.4
		c1.7,0.3,3.7,0.6,5.9,0.6c0.8,0,1.6,0,2.5-0.1c0,0.1,0.2,0.3,0.5,0.8c-1.9,0.8-4,1.1-5.9,1.1c-7,0-10.5-1.8-10.5-5.1
		c0-2.1,1.7-5.1,5.1-9l4.2-4.5l-1.8,0c-0.6,0-1.6,0.2-2.7,0.5c-2.2,0.8-3.7,1.3-4,1.3c-0.5,0-1.1-0.2-1.6-0.5
		c-0.3-0.5-0.6-0.8-0.6-1.3c0-1.1,1.4-1.9,4.1-1.9c0.4,0,0.8,0,1.3,0c0.5,0.2,1,0.2,1.3,0.2c2.2,0,4.3-0.5,5.9-1.3
		c1.4-0.8,2.9-2.2,4-4.3c0.5-0.6,1.3-2.7,2.9-5.7c0.3,0,0.8,0.3,1.1,0.8C461.3,181.6,461.6,182.1,461.6,182.5"/>
	<path class="st0" d="M491.8,196.1c0,1.5-1,4-2.9,7.6c-1.9,3.5-2.7,5.9-2.7,7c0,0.8,0.3,1.7,0.8,2.7c-1.1,0.5-2.1,0.8-2.7,0.8
		c-1.1,0-1.8-0.6-1.8-1.8c0-1.1,1-3.7,2.9-7.5c1.8-3.7,2.7-6.2,2.7-7.7c0-0.2,0-0.5,0-0.8c-0.2-0.5-0.2-0.8-0.2-0.8
		c-4.6,0.5-9,2.2-13.3,5.1c-4.3,3.2-7.5,6.7-9.1,10.9c-0.8-0.3-1.8-0.5-3.2-0.8c0.2-0.8,1.3-2.4,3.2-5.1c0.8-0.8,2.8-3.5,6.1-7.8
		c2.4-3.2,3.8-5.3,4.5-6.4c0.1-0.3,1.1-2.4,2.7-6.4c1.3-2.9,2.4-4.8,3.4-5.8c0.3,0.2,0.8,0.5,1.1,0.8c0.5,0.3,0.6,0.6,0.6,1.1
		c0,0.3-2.7,5.9-7.8,16.6c2.7-1.1,4.8-2.1,6.9-2.9c3.7-1.6,5.7-2.4,6.2-2.4c0.5,0,1,0.2,1.3,0.5
		C491.3,193.6,491.8,194.7,491.8,196.1"/>
	<path class="st0" d="M514.2,207.6c-0.9,1.1-3.2,1.9-6.7,2.4c-2.4,0.3-4.9,0.5-7.5,0.5c-5.3,0-8-1.6-8-4.5c0-3.7,2.9-6.9,8.3-9.6
		c1.9-0.9,4-1.6,6.1-2.2c1.9,0.3,3.3,0.8,3.8,0.9c1.5,0.5,2.1,1.8,2.1,3.7c0,1.6-1.1,2.9-3.2,3.8c-1.7,0.8-3.5,1.3-5.4,1.3
		c-2.9,0-4.8-0.5-6.2-1.3c-1.6,0.8-2.4,1.6-2.4,2.9c0,2.1,1.9,3.2,5.8,3.2c1.4,0,3-0.2,4.8-0.3C510.2,207.8,513.1,207.6,514.2,207.6
		 M509.4,198.5c-0.8-0.9-2.1-1.4-3.4-1.4c-0.9,0-1.9,0.3-2.5,0.6c-0.2,0-1,0.5-2.4,1.3c0.8,1.6,2.2,2.2,3.8,2.2
		C506.7,201.2,508.3,200.3,509.4,198.5"/>
	<path class="st0" d="M535,200l-7.4-2.4c-1.8,0-3.5,1.1-4.8,3.6c-0.5,1-1.3,2.9-2.4,6.1c-1.1,3.2-3.1,4.6-5.6,4.6
		c0.1-1.2,0.9-3,2.4-5.2c1.6-2.4,2.5-4.3,2.9-5.5c0.3-0.9,0.3-2.5,0.5-4.6c0-1,0.1-2,0.6-2.9c0.5-1.5,1.1-2.1,1.9-2.3l0.8,0.2
		l0.5,3.2c0.3,0.8,1,1.1,2.3,1.1h1.4c0.4,0,0.5,0,0.7,0C532.4,195.8,534.5,197.1,535,200"/>
	<path class="st1" d="M352.4,223.3c65.6-13.4,129.4-6.7,162.9,0"/>
	<polygon class="st0" points="41.1,17.2 154.3,17.2 160.2,1.2 46.4,1.2 	"/>
	<polygon class="st0" points="166.9,17.7 239.7,17.2 244.3,2 172,1.5 	"/>
	<polygon class="st0" points="130,124.8 202.7,124.2 207.2,109 135,108.5 	"/>
	<polygon class="st0" points="215.1,125 292,125.3 297.9,109 220,108.8 	"/>
	<polygon class="st0" points="4,125.3 38.5,25.5 71.8,25.5 37.1,125.6 	"/>
	<polygon class="st0" points="44.8,125.3 79.3,25.5 112.6,25.5 77.9,125.6 	"/>
	<polygon class="st0" points="84.6,125.3 119.3,25.5 152.4,25.5 117.8,125.6 	"/>
	<polygon class="st0" points="222.2,100.5 256.9,0.9 290.2,0.9 255.5,101 	"/>
	<polygon class="st0" points="267.2,100.5 301.7,0.9 335,0.9 300.3,101 	"/>
	<polygon class="st0" points="178.1,100.8 195.5,50.1 228.8,50.1 211.2,101.3 	"/>
	<polygon class="st0" points="146.3,76.7 163.7,26 197,26 179.4,77 	"/>
	<polygon class="st0" points="3.2,141.3 3.2,145.9 10.1,145.9 10.1,148.5 3.2,148.5 3.2,157.4 0,157.4 0,138.7 10.4,138.7 
		10.4,141.3 	"/>
	<polygon class="st0" points="31,141.3 31,145.9 39,145.9 39,148.5 31,148.5 31,154.7 39.2,154.7 39.2,157.4 27.8,157.4 27.8,138.7 
		39.2,138.7 39.2,141.3 	"/>
	<path class="st0" d="M58.2,154.7v-13.4h1.5c2.5,0,4.1,0.3,5.4,1.3c1.8,1.1,2.9,3.2,2.9,5.4c0,2.2-1.1,4.2-2.9,5.4
		c-1.4,1-3,1.3-5.4,1.3H58.2 M55.2,157.4h4.3c3.7,0,5.4-0.3,7.5-1.7c2.7-1.8,4.2-4.5,4.2-7.7c0-3.2-1.5-5.9-4-7.5
		c-2.1-1.3-4.2-1.9-7.7-1.9h-4.3V157.4z"/>
	<polygon class="st0" points="90.5,141.3 90.5,145.9 98.5,145.9 98.5,148.5 90.5,148.5 90.5,154.7 98.8,154.7 98.8,157.4 
		87.3,157.4 87.3,138.7 98.8,138.7 98.8,141.3 	"/>
	<path class="st0" d="M118.8,147.2v-5.9h1.1c2.9,0,4.5,1,4.5,2.9c0,1.9-1.6,3-4.5,3H118.8 M122.8,149.4c2.7-0.5,4.5-2.5,4.5-5.1
		c0-1.8-1-3.7-2.4-4.5c-1.3-0.8-2.9-1.1-5.6-1.1h-3.7v18.7h3.2v-7.7h0.5l5.9,7.7h3.9L122.8,149.4z"/>
	<path class="st0" d="M153.8,150.2h-6.2l3.2-6.4L153.8,150.2z M155.1,152.8l2.2,4.5h3.4l-9.9-20l-10.2,20h3.4l2.2-4.5H155.1z"/>
	<polygon class="st0" points="179.4,154.2 185.5,154.2 185.5,156.9 176.2,156.9 176.2,138.1 179.4,138.1 	"/>
	<path class="st0" d="M233.9,144c-1.9-1.6-3.5-2.1-5.4-2.1c-4.2,0-7.7,3.2-7.7,7.2c0,4,3.4,7,7.7,7c1.9,0,3.5-0.6,5.4-2.1v3.4
		c-1.7,1-3.5,1.4-5.4,1.4c-6.1,0-10.7-4.3-10.7-9.7c0-5.3,4.8-9.8,10.7-9.8c2.2,0,3.5,0.5,5.4,1.3V144"/>
	<path class="st0" d="M252.1,147.2v-5.9h1.3c2.7,0,4.3,1,4.3,2.9c0,1.9-1.6,3-4.5,3H252.1 M256,149.4c2.7-0.5,4.5-2.5,4.5-5.1
		c0-1.8-0.9-3.7-2.4-4.5c-1.3-0.8-2.9-1.1-5.6-1.1h-3.5v18.7h3v-7.7h0.5l6,7.7h3.8L256,149.4z"/>
	<polygon class="st0" points="280.9,141.3 280.9,145.9 288.9,145.9 288.9,148.5 280.9,148.5 280.9,154.7 289.2,154.7 289.2,157.4 
		277.9,157.4 277.9,138.7 289.2,138.7 289.2,141.3 	"/>
	<path class="st0" d="M309.2,154.7v-13.4h1.5c2.4,0,4,0.3,5.4,1.3c1.8,1.1,2.9,3.2,2.9,5.4c0,2.2-1.1,4.2-2.9,5.4
		c-1.4,1-3,1.3-5.4,1.3H309.2 M306.2,157.4h4.3c3.7,0,5.4-0.3,7.5-1.7c2.7-1.8,4.2-4.5,4.2-7.7c0-3.2-1.5-5.9-4-7.5
		c-2.1-1.3-4.2-1.9-7.7-1.9h-4.3V157.4z"/>
	<rect x="337.4" y="138.1" class="st0" width="3" height="18.7"/>
	<polygon class="st0" points="365,157.4 362,157.4 362,141.3 357.2,141.3 357.2,138.7 369.8,138.7 369.8,141.3 365,141.3 	"/>
	<path class="st0" d="M404.5,150.4c0,1.6,0.2,2.4,0.6,3.2c0.8,1.3,2.4,2.1,4,2.1c1.6,0,3.2-0.8,3.8-2.1c0.5-0.8,0.7-1.6,0.7-3.2
		v-11.3h3v12c0,4-3.2,7-7.5,7c-4.3,0-7.7-2.9-7.7-7v-12h3.2V150.4"/>
	<polygon class="st0" points="433.5,137.4 444.8,151.7 444.8,138.7 447.2,138.7 447.2,158.6 435.9,144.3 435.9,157.4 433.5,157.4 	
		"/>
	<polygon class="st0" points="517.9,136.8 529.2,151.2 529.2,138.1 531.6,138.1 531.6,158.1 520.3,143.8 520.3,156.9 517.9,156.9 	
		"/>
	<rect x="463.8" y="138.7" class="st0" width="3.2" height="18.7"/>
	<path class="st0" d="M492.8,141c3.2,0,5.6,3,5.6,7c0,4-2.6,7.1-5.6,7.1c-3.2,0-5.6-3.2-5.6-7.1C487.2,144,489.6,141,492.8,141
		 M492.8,138.4c-4.5,0-8,4.3-8,9.7c0,5.5,3.5,9.8,8,9.8c4.3,0,7.8-4.5,7.8-9.8C500.6,142.7,497.1,138.4,492.8,138.4"/>
	<polygon class="st0" points="347.9,40.2 354.8,1.2 370.3,1.2 372.9,25.5 384.1,1.2 399.5,1.2 392.7,40.2 381.2,40.2 383.2,28.4 
		384.5,22.3 386.3,15.3 386.3,15.3 374.8,40.2 365.8,40.2 363.1,15.3 363.1,15.3 362.6,21 361.8,27.1 359.4,40.2 	"/>
	<path class="st0" d="M365.5,53c-6.1-1.3-11.5-0.6-13-0.3c-2.7,0.6-2.5,1.4-2.9,2.7c-1.1,5,15.5,2.9,14.2,16.2
		c-0.8,9.1-8.1,11.4-14.7,11.7c-8.2,0.5-15.7-1.6-15.7-2.4l1.9-7.2c1.6,0.8,2.9,0.8,4,1.1c1.6,0.5,5.1,0.5,6.4,0.5
		c3.2,0,7.2-2.1,7.5-4c1.1-5.9-14.1-4.1-14.4-15.5c0-6.2,6.9-11.8,16.8-11.7c8.3,0.2,11.8,1.5,11.8,1.5L365.5,53"/>
	<path class="st0" d="M328.2,87.1l10.3,0.3l-5.1,23.8c-0.7,4,0.6,8,4.3,7.7c4.6-0.2,6.2-1.9,7.2-7.7l5-23.8l10.4-0.2l-3.2,22.7
		c-2.4,12.8-10.9,16.8-22.1,16.8c-7.3,0-13.7-8-12.1-16.8L328.2,87.1"/>
	<polygon class="st0" points="397.8,39.7 401.8,14.5 409,14.5 405.1,39.7 	"/>
	<path class="st0" d="M433.6,20.4c0-0.8-8.5-1-10.9-0.5c-2.4,0.7-4.5,2.6-5.3,7.4c-0.5,3.5,1.8,6.4,3.4,6.9c2.2,0.5,7.2,1.4,9.6,0
		l0.2,5.3c-0.5,1.3-6.6,1.1-10.7,0.8c-4.8-0.3-11-5.1-9.8-13.3c1.3-8.2,7.7-13.9,13.8-13.9c6.9,0,10.4,1.6,10.4,1.6L433.6,20.4"/>
	<polygon class="st0" points="433.8,39.7 437.6,14.5 445,14.5 443.7,23 450.6,23 451.8,14.5 459.2,14.5 455.2,39.7 448,39.7 
		449.4,30 442.6,30 441,39.7 	"/>
	<polygon class="st0" points="458.7,39.7 462.6,14.5 469.9,14.5 465.9,39.7 	"/>
	<path class="st0" d="M490.7,35.4c0,0-1.9,3.2-4,4.5c-1.1,0.6-4,0.6-7.3,0.6c-5.6-0.3-10.1-4.2-8.8-13c1.3-8,6.6-13.6,13.8-13.6
		c5.3,0,6.5,0.5,8.1,1.8l-0.8,5.1c-2.7-0.8-6.4-0.7-8.3-0.7c-2.9,0-4.8,2.9-5.5,7.4c-0.5,3.7,0,6.9,3.7,6.9c1.6,0,3.5-1.3,4.2-2.9
		h-3.2l0.8-5.6h9.9L490.7,35.4"/>
	<path class="st0" d="M509.9,29.7h-5.1l4.3-8L509.9,29.7z M499.5,39.4l1.3-3.3l9.6,0l0.3,3.4h7.4l-4-25.4h-7.4l-14.4,25.1H499.5z"/>
	<polygon class="st0" points="537.9,28.2 538.5,22.5 539.8,14.5 546.8,14.5 542.8,39.7 536.1,39.7 530.2,26 529.7,31.8 528.4,39.7 
		521.4,39.7 525.4,14.5 532.1,14.5 	"/>
	<polygon class="st0" points="376.5,114.7 377,109 378.3,100.8 384.7,100.8 381,126.1 374.8,126.1 369.5,112.5 368.9,118.1 
		367.7,126.1 361.3,126.1 365,100.8 371.2,100.8 	"/>
	<polygon class="st0" points="385.2,126.1 388.8,100.8 395.6,100.8 391.9,126.1 	"/>
	<polygon class="st0" points="398.4,100.8 405.2,100.8 406.3,117.6 412.5,100.8 419.2,100.8 408.5,126.1 401.8,126.1 	"/>
	<polygon class="st0" points="418.4,126.1 422.1,100.8 438.7,100.8 437.9,106.7 428,106.7 427.4,110.4 435.9,110.4 435,116.3 
		426.6,116.3 426.1,120.2 436.5,120.2 435.5,126.1 	"/>
	<path class="st0" d="M448,106.7h3.2c1.6,0,2.6,1,2.4,2.7c-0.3,1.8-1.6,2.4-3.5,2.4h-2.7L448,106.7 M448.6,117.3
		c3.2,0,3.5,1.1,2.9,4.5c-0.3,2.2-0.3,3.8-0.3,4.3l9.3,0l0-0.8c-0.8,0-1.3-1.1-0.8-4.3c0.8-5.2-2.1-5.8-4-6.7
		c2.4-0.8,3.8-3.4,4.3-6.3c0.6-4.8-1.3-7.2-8-7.2h-9.8l-3.5,25.3h6.7l1.3-8.8H448.6z"/>
	<path class="st0" d="M482.5,106.6c-0.8-0.8-5.4-1.5-6.2-1.6c-0.7,0-3.7,0-4.2,0.2c-1.3,0.5-2.4,1.6-2.4,2.5c0,4,12.6,1.3,11.3,10.6
		c-0.8,5.9-6.2,8.5-12,8.5c-5.4,0-7.2-1.3-7.2-1.3l0.8-5.1c0,1,7.2,0.5,7.7,0.5c1.6,0,2.9-0.8,3-1.9c0.5-3.8-11.5-1.3-10.2-10.9
		c0.8-5.4,4.9-8,10.1-8c5.7,0,10.4,1.1,10.4,1.1L482.5,106.6"/>
	<polygon class="st0" points="481.7,126.1 485.4,100.8 492,100.8 488.5,126.1 	"/>
	<polygon class="st0" points="495.2,100.8 513.9,100.8 513.1,107.5 507,107.5 504.3,126.1 497.6,126.1 500.3,107.5 494.2,107.5 	"/>
	<polygon class="st0" points="526.5,126.2 519,126.6 520,116.8 514.7,100.8 522.4,100.8 525.4,110.6 532.1,101.3 540.6,101.3 
		528.3,117 	"/>
	<polygon class="st0" points="366.8,56.9 383.7,56.9 382.9,63.6 377.5,63.6 375.1,82.3 369,82.3 371.4,63.6 366,63.6 	"/>
	<path class="st0" d="M394.3,72.7l-5.3-0.2l4.5-8L394.3,72.7z M382.5,82.6l2.2-3.7l9.9,0l0.3,3.4h6.1L397.6,57h-6.2l-14.9,25.6
		H382.5z"/>
	<polygon class="st0" points="405.3,56.9 422.3,56.9 421.3,63.6 416,63.6 413.5,82.3 407.4,82.3 409.8,63.6 404.5,63.6 	"/>
	<polygon class="st0" points="421.8,82.3 425,56.9 440,56.9 439.2,62.8 430.3,62.8 429.8,66.4 437.5,66.4 436.7,72.4 429,72.4 
		428.5,76.4 437.9,76.4 437.1,82.3 	"/>
	<path class="st0" d="M539.5,125.3c-3.1,0-5.1-2.6-5.1-6.1s1.9-5.9,5.1-5.9c2.9,0,5.1,2.4,5.1,5.9S542.5,125.3,539.5,125.3
		 M539.5,127c3.8,0,6.9-3.5,6.9-7.8c0-4.3-3.2-7.7-6.9-7.7c-4,0-6.9,3.5-6.9,7.7C532.6,123.5,535.6,127,539.5,127 M541.1,120
		c1.3-0.2,1.9-0.8,1.9-2.4c0-1.9-0.9-2.5-2.8-2.5h-3.7v8.3h1.6V120h1.3l1.6,3.5h1.9L541.1,120z M538.2,118.7v-2.2h1.6
		c0.8,0,1.8-0.2,1.8,1.1c0,0.9-0.6,1.1-1.4,1.1H538.2z"/>
</g>
</svg>
