<?xml version="1.0" encoding="utf-8"?>
<!-- Generator: Adobe Illustrator 22.0.1, SVG Export Plug-In . SVG Version: 6.00 Build 0)  -->
<svg version="1.1" id="Layer_1" xmlns="http://www.w3.org/2000/svg" xmlns:xlink="http://www.w3.org/1999/xlink" x="0px" y="0px"
	 viewBox="0 0 461.8 211.8" style="enable-background:new 0 0 461.8 211.8;" xml:space="preserve">
<style type="text/css">
	.st0{fill:#FFFFFF;}
	.st1{fill:none;stroke:#B3B5B8;stroke-width:26.46;stroke-linejoin:round;}
	.st2{fill:none;stroke:#B1D045;stroke-width:26.46;}
</style>
<title>tech store white</title>
<path class="st0" d="M217.6,201l3.7-4.9c7.1,5.4,14.9,8.5,23.1,8.5c8.7,0,15.5-4.8,15.5-12.2v-0.3c0-7.6-8.1-10.3-17-12.9
	c-10.5-3-22.1-6.2-22.1-17.7v-0.3c0-10.3,8.7-17.8,21.2-17.8c8.1,0.2,16,2.6,22.8,7.1l-3.3,5.2c-5.9-4-12.7-6.2-19.8-6.4
	c-8.8,0-14.6,4.8-14.6,11.2v0.3c0,7.2,8.7,9.8,17.9,12.5c10.4,2.9,21.2,6.7,21.2,18v0.3c0,11.5-9.8,18.8-22.2,18.8
	C234.4,210.2,225.1,206.9,217.6,201z"/>
<path class="st0" d="M275.5,192.6v-42.2h-9.3v-5.7h9.3v-20.6h6.2v20.6h22.6v5.7h-22.6v41.5c0,9.2,5.4,12.5,12.9,12.5
	c3.3,0,6.6-0.8,9.5-2.3v5.8c-3.3,1.6-6.9,2.3-10.5,2.3C283.6,210.2,275.5,204.8,275.5,192.6z"/>
<path class="st0" d="M301.3,177.2v-0.3c0-18,14-33.7,33.2-33.7s32.9,15.4,32.9,33.4v0.3c0,18-14,33.7-33.2,33.7
	C315.2,210.6,301.3,195.2,301.3,177.2z M360.7,177.2v-0.3c0-15.5-11.6-27.9-26.5-27.9c-15.3,0-26.3,12.5-26.3,27.6v0.3
	c0,15.5,11.6,27.9,26.5,27.9C349.8,204.8,360.7,192.3,360.7,177.2z"/>
<path class="st0" d="M373.9,144.7h6.2V163c5-11.5,15.8-19.8,28.5-19.3v6.8H408c-14.9,0-27.9,11.2-27.9,32.2v26.4h-6.2V144.7z"/>
<path class="st0" d="M401.8,177v-0.3c0-18.7,13.1-33.6,30.5-33.6c18,0,29.5,14.6,29.5,33.7c0,0.8,0,1.7-0.1,2.5h-53.4
	c1.1,16,12.6,25.4,25.2,25.4c10,0,16.8-4.4,22.1-10.1l4.3,3.8c-6.6,7.1-14.3,12.1-26.6,12.1C416.4,210.6,401.8,197.1,401.8,177z
	 M455.1,173.9c-0.9-13-8.3-25-23.1-25c-12.7,0-22.6,10.7-23.7,25H455.1z"/>
<path class="st0" d="M220.4,110.4V68.3h-9.3v-5.7h9.3V42h6.2v20.6h22.6v5.7h-22.6v41.5c0,9.2,5.4,12.5,12.9,12.5
	c3.3,0,6.6-0.8,9.5-2.3v5.8c-3.3,1.6-6.9,2.3-10.5,2.3C228.5,128.1,220.4,122.7,220.4,110.4z"/>
<path class="st0" d="M248.7,94.9v-0.3c0-18.7,13.1-33.6,30.5-33.6c18,0,29.5,14.6,29.5,33.7c0,0.8,0,1.7-0.1,2.5h-53.4
	c1.1,16,12.6,25.4,25.2,25.4c10,0,16.8-4.4,22.1-10.1l4.3,3.8c-6.6,7.1-14.3,12.1-26.6,12.1C263.3,128.5,248.7,115,248.7,94.9z
	 M302.1,91.8c-0.9-13-8.3-25-23.1-25c-12.7,0-22.6,10.7-23.7,25H302.1z"/>
<path class="st0" d="M312.4,95v-0.3c0-18,14.4-33.7,32.8-33.7c12.1,0,19.7,5.6,25.7,11.9l-4.4,4.5c-5.6-5.7-11.9-10.6-21.5-10.6
	c-14.6,0-26,12.2-26,27.6v0.3c0,15.5,11.7,27.9,26.5,27.9c9.1,0,16.2-4.7,21.6-10.7l4.3,3.8c-6.6,7.4-14.4,12.7-26.3,12.7
	C326.7,128.5,312.4,113.1,312.4,95z"/>
<path class="st0" d="M376.3,34.8h6.2v39.8c4.3-7.6,11.5-13.5,23.2-13.5c16.3,0,25.7,11.1,25.7,26.5V127h-6.2V88.8
	c0-13.3-7.4-22-20.4-22c-12.6,0-22.3,9.6-22.3,23V127h-6.2L376.3,34.8L376.3,34.8z"/>
<path class="st1" d="M90.9,44.1c-41.8,12.2-65.8,56-53.6,97.8c12.2,41.8,56,65.8,97.8,53.6s65.8-56,53.6-97.8
	C181,71.5,160.3,51.1,134,43.8"/>
<line class="st2" x1="112.1" y1="0" x2="112.1" y2="132.2"/>
<path class="st0" d="M239.7,10.8h11.9l9.7,15.8l9.7-15.8h11.9v40.7h-11.2V28.2l-10.4,15.9h-0.2l-10.4-15.9v23.3h-11.1L239.7,10.8
	L239.7,10.8z"/>
<path class="st0" d="M284.2,45.5l6.3-7.5c3.7,3.1,8.4,4.8,13.2,4.9c3.1,0,4.7-1,4.7-2.8V40c0-1.7-1.3-2.6-6.9-4
	c-8.7-2-15.4-4.4-15.4-12.7v-0.1c0-7.6,6-13,15.8-13c6.9,0,12.3,1.9,16.8,5.4l-5.6,8c-3.3-2.5-7.3-3.9-11.4-4
	c-2.7,0-4.1,1.1-4.1,2.6v0.1c0,1.9,1.4,2.7,7.1,4c9.3,2,15.1,5.1,15.1,12.7v0.1c0,8.3-6.6,13.3-16.5,13.3
	C296.3,52.5,289.5,50,284.2,45.5z"/>
<path class="st0" d="M321.9,33.7V10.8h11.4v22.7c0,5.9,3,8.7,7.5,8.7s7.6-2.7,7.6-8.4v-23h11.4v22.6c0,13.1-7.5,18.9-19.1,18.9
	S321.9,46.4,321.9,33.7z"/>
</svg>
