<?xml version="1.0" encoding="utf-8"?>
<!-- Generator: Adobe Illustrator 23.0.1, SVG Export Plug-In . SVG Version: 6.00 Build 0)  -->
<svg version="1.1" id="Layer_1" xmlns="http://www.w3.org/2000/svg" xmlns:xlink="http://www.w3.org/1999/xlink" x="0px" y="0px"
	 viewBox="0 0 203.9 38" style="enable-background:new 0 0 203.9 38;" xml:space="preserve">
<style type="text/css">
	.st0{display:none;}
	.st1{enable-background:new    ;}
	.st2{fill:#FFFFFF;}
</style>
<rect class="st0" width="203.9" height="38"/>
<g class="st1">
	<path class="st2" d="M56,29.6h-3.1l-2.6-6.7H40.1l-2.4,6.7h-3.1l9.2-24.1h2.9L56,29.6z M49.4,20.4l-3.8-10.3
		c-0.1-0.3-0.2-0.9-0.4-1.6h-0.1c-0.1,0.7-0.2,1.2-0.4,1.6l-3.7,10.3H49.4z"/>
	<path class="st2" d="M62,27.2L62,27.2L62,37.6h-2.8V12.5H62v3H62c1.4-2.3,3.3-3.4,5.9-3.4c2.2,0,3.9,0.8,5.2,2.3
		c1.2,1.5,1.9,3.6,1.9,6.2c0,2.9-0.7,5.2-2.1,6.9c-1.4,1.7-3.3,2.6-5.7,2.6C64.9,30,63.2,29.1,62,27.2z M62,20.2v2.4
		c0,1.4,0.5,2.6,1.4,3.6c0.9,1,2.1,1.5,3.5,1.5c1.7,0,3-0.6,3.9-1.9c0.9-1.3,1.4-3,1.4-5.3c0-1.9-0.4-3.4-1.3-4.5
		c-0.9-1.1-2.1-1.6-3.6-1.6c-1.6,0-2.9,0.6-3.9,1.7C62.4,17.2,62,18.5,62,20.2z"/>
	<path class="st2" d="M82.2,27.2L82.2,27.2l-0.1,10.4h-2.8V12.5h2.8v3h0.1c1.4-2.3,3.3-3.4,5.9-3.4c2.2,0,3.9,0.8,5.2,2.3
		s1.9,3.6,1.9,6.2c0,2.9-0.7,5.2-2.1,6.9c-1.4,1.7-3.3,2.6-5.7,2.6C85.2,30,83.4,29.1,82.2,27.2z M82.2,20.2v2.4
		c0,1.4,0.5,2.6,1.4,3.6c0.9,1,2.1,1.5,3.5,1.5c1.7,0,3-0.6,3.9-1.9c0.9-1.3,1.4-3,1.4-5.3c0-1.9-0.4-3.4-1.3-4.5
		c-0.9-1.1-2.1-1.6-3.6-1.6c-1.6,0-2.9,0.6-3.9,1.7C82.7,17.2,82.2,18.5,82.2,20.2z"/>
	<path class="st2" d="M102.4,29.6h-2.8V4.2h2.8V29.6z"/>
	<path class="st2" d="M121.6,12.5l-7.9,19.9c-1.4,3.6-3.4,5.3-5.9,5.3c-0.7,0-1.3-0.1-1.8-0.2v-2.5c0.6,0.2,1.1,0.3,1.6,0.3
		c1.4,0,2.4-0.8,3.1-2.5l1.4-3.3l-6.7-17.2h3.1l4.7,13.2c0.1,0.2,0.2,0.6,0.4,1.3h0.1c0.1-0.3,0.2-0.7,0.3-1.3l4.9-13.3H121.6z"/>
	<path class="st2" d="M153.8,29.6h-3.5l-12.4-19.2c-0.3-0.5-0.6-1-0.8-1.5h-0.1c0.1,0.5,0.1,1.6,0.1,3.3v17.4h-2.8V5.6h3.7
		l12.1,18.9c0.5,0.8,0.8,1.3,1,1.6h0.1c-0.1-0.7-0.2-1.9-0.2-3.5v-17h2.8V29.6z"/>
	<path class="st2" d="M166.9,30c-2.5,0-4.6-0.8-6.1-2.4c-1.5-1.6-2.3-3.7-2.3-6.4c0-2.9,0.8-5.1,2.4-6.8c1.6-1.6,3.7-2.4,6.4-2.4
		c2.6,0,4.6,0.8,6,2.4c1.4,1.6,2.2,3.8,2.2,6.6c0,2.7-0.8,4.9-2.3,6.6C171.6,29.2,169.5,30,166.9,30z M167.1,14.4
		c-1.8,0-3.2,0.6-4.2,1.8c-1,1.2-1.5,2.9-1.5,5c0,2,0.5,3.6,1.6,4.8c1,1.2,2.4,1.8,4.2,1.8c1.8,0,3.1-0.6,4.1-1.7
		c1-1.2,1.4-2.8,1.4-4.9c0-2.1-0.5-3.8-1.4-5S168.9,14.4,167.1,14.4z"/>
	<path class="st2" d="M201.5,12.5l-5.2,17.2h-2.9L190,17.3c-0.1-0.5-0.2-1-0.3-1.6h-0.1c0,0.4-0.2,0.9-0.4,1.6l-3.8,12.3h-2.8
		l-5.2-17.2h2.9l3.6,12.9c0.1,0.4,0.2,0.9,0.2,1.5h0.1c0-0.5,0.1-1,0.3-1.6l4-12.9h2.5l3.6,13c0.1,0.4,0.2,0.9,0.3,1.5h0.1
		c0-0.4,0.1-1,0.3-1.5l3.5-13H201.5z"/>
</g>
<g id="icon">
	<rect x="2.4" y="9.6" class="st2" width="2.3" height="2.3"/>
	<rect x="8.1" y="3.3" class="st2" width="1.9" height="1.9"/>
	<rect x="1.6" y="7.9" class="st2" width="1.1" height="1.1"/>
	<rect x="5.8" y="2" class="st2" width="1.5" height="1.5"/>
	<rect x="5.8" y="2" class="st2" width="1.5" height="1.5"/>
	<rect x="6.6" y="3.8" class="st2" width="1.1" height="1.1"/>
	
		<rect x="12.7" y="13.4" transform="matrix(0.5759 -0.8175 0.8175 0.5759 -1.9498 24.9036)" class="st2" width="20.6" height="1.8"/>
	<g>
		<path class="st2" d="M21.7,13.6l2.5-3.5c-0.5-3.3,1.1-5.1,1.2-5.2l2.6-2.8H10.5v3.3h10.8C20.6,7.3,20.2,10.1,21.7,13.6z"/>
		<path class="st2" d="M25.5,13.8l-2.2,3.1c1.7,4.1,0.5,7.8-0.2,9.4H7.2c0.9-2.8,1.7-7.5-1.1-12.4c-0.1-0.2-0.3-0.4-0.4-0.7H2
			c0.3,0.8,0.7,1.5,1.1,2.4c3.3,5.8,0.2,11.3,0,11.5l-1.5,2.5H25l0.5-0.8c0.2-0.3,4.4-7.4,0-14.9C25.5,13.9,25.5,13.8,25.5,13.8z"/>
	</g>
	<polygon class="st2" points="26.1,13.6 25.6,13.3 28.4,9.3 28.2,8.5 29.2,7.1 29.6,8.6 	"/>
	<path class="st2" d="M28.5,6.7l-0.1-0.1c-0.2-0.2-0.3-0.4-0.1-0.6l1.5-2.1c0.1-0.2,0.4-0.3,0.6-0.1l0.1,0.1
		c0.2,0.1,0.3,0.4,0.1,0.6l-1.5,2.1C29,6.8,28.7,6.8,28.5,6.7z"/>
	<polygon class="st2" points="16.4,24.4 15.8,24 16.4,22.2 17.8,23.2 	"/>
	<polygon class="st2" points="16.4,24.4 15.8,24 15.7,24.7 	"/>
</g>
</svg>
