<?xml version="1.0" encoding="utf-8"?>
<!-- Generator: Adobe Illustrator 23.0.1, SVG Export Plug-In . SVG Version: 6.00 Build 0)  -->
<svg version="1.1" id="Layer_1" xmlns="http://www.w3.org/2000/svg" xmlns:xlink="http://www.w3.org/1999/xlink" x="0px" y="0px"
	 viewBox="0 0 88.59 38.04" style="enable-background:new 0 0 88.59 38.04;" xml:space="preserve">
<style type="text/css">
	.st0{display:none;}
	.st1{fill:#FFFFFF;}
</style>
<rect x="0.04" y="0.01" class="st0" width="88.55" height="38.04"/>
<g id="icon">
	<rect x="6.94" y="26.55" class="st1" width="1.49" height="1.49"/>
	<rect x="12.49" y="26.99" class="st1" width="0.92" height="0.92"/>
	<rect x="10.45" y="26.36" class="st1" width="0.64" height="0.64"/>
	<rect x="9.1" y="28.24" class="st1" width="1.34" height="1.34"/>
	<rect x="11.69" y="29.4" class="st1" width="1.59" height="1.59"/>
	<rect x="6.6" y="29.11" class="st1" width="1.09" height="1.09"/>
	<rect x="8.21" y="30.75" class="st1" width="0.79" height="0.79"/>
</g>
<g>
	<path class="st1" d="M39.09,8.18h-9.4v8.33h8.7v2.54h-8.7V29.7h-2.82V5.63h12.22V8.18z"/>
	<path class="st1" d="M60.27,29.7h-3.12l-2.55-6.75H44.39l-2.4,6.75h-3.14l9.23-24.08h2.92L60.27,29.7z M53.68,20.42L49.9,10.16
		c-0.12-0.34-0.25-0.87-0.37-1.61h-0.07c-0.11,0.68-0.24,1.22-0.39,1.61l-3.74,10.26H53.68z"/>
	<path class="st1" d="M73.52,30.11c-3.4,0-6.14-1.13-8.21-3.38c-2.05-2.25-3.07-5.18-3.07-8.78c0-3.88,1.05-6.97,3.14-9.27
		c2.1-2.31,4.95-3.46,8.55-3.46c3.31,0,5.99,1.12,8.02,3.36c2.04,2.24,3.06,5.17,3.06,8.78c0,3.93-1.04,7.03-3.12,9.32
		c-0.49,0.55-1.02,1.02-1.58,1.41l6.77,4.85h-5.12l-4.53-3.39C76.23,29.92,74.93,30.11,73.52,30.11z M73.72,7.78
		c-2.53,0-4.58,0.91-6.16,2.74c-1.58,1.83-2.37,4.22-2.37,7.19c0,2.95,0.77,5.35,2.3,7.17c1.54,1.8,3.55,2.7,6.03,2.7
		c2.64,0,4.72-0.86,6.25-2.59c1.52-1.72,2.28-4.14,2.28-7.24c0-3.19-0.74-5.65-2.22-7.37C78.36,8.64,76.32,7.78,73.72,7.78z"/>
</g>
<g>
	<path class="st1" d="M7.09,23.61c0-1.84,0.22-3.3,0.67-4.38c0.45-1.09,1.26-2.16,2.45-3.22c1.19-1.05,1.97-1.91,2.37-2.58
		c0.39-0.66,0.59-1.36,0.59-2.1c0-2.22-1.02-3.33-3.06-3.33c-0.97,0-1.75,0.3-2.33,0.9c-0.58,0.6-0.89,1.42-0.91,2.47h-5.7
		c0.03-2.5,0.84-4.46,2.43-5.88s3.76-2.12,6.51-2.12c2.78,0,4.93,0.67,6.46,2.02s2.3,3.24,2.3,5.69c0,1.11-0.25,2.17-0.75,3.16
		c-0.5,0.99-1.37,2.09-2.61,3.29l-1.59,1.51c-1,0.96-1.57,2.08-1.71,3.36l-0.08,1.2H7.09z"/>
</g>
</svg>
