<?xml version="1.0" encoding="utf-8"?>
<!-- Generator: Adobe Illustrator 23.0.1, SVG Export Plug-In . SVG Version: 6.00 Build 0)  -->
<svg version="1.1" id="Layer_1" xmlns="http://www.w3.org/2000/svg" xmlns:xlink="http://www.w3.org/1999/xlink" x="0px" y="0px"
	 viewBox="0 0 122.3 38" style="enable-background:new 0 0 122.3 38;" xml:space="preserve">
<style type="text/css">
	.st0{display:none;}
	.st1{enable-background:new    ;}
	.st2{fill:#FFFFFF;}
</style>
<rect class="st0" width="122.3" height="38"/>
<g class="st1">
	<path class="st2" d="M42.7,29.6H30.2V5.6h2.8v21.5h9.7V29.6z"/>
	<path class="st2" d="M53.2,30c-2.5,0-4.6-0.8-6.1-2.4c-1.5-1.6-2.3-3.7-2.3-6.4c0-2.9,0.8-5.1,2.4-6.8c1.6-1.6,3.7-2.4,6.4-2.4
		c2.6,0,4.6,0.8,6,2.4c1.4,1.6,2.2,3.8,2.2,6.6c0,2.7-0.8,4.9-2.3,6.6S55.8,30,53.2,30z M53.4,14.4c-1.8,0-3.2,0.6-4.2,1.8
		s-1.5,2.9-1.5,5c0,2,0.5,3.6,1.6,4.8c1,1.2,2.4,1.8,4.2,1.8c1.8,0,3.1-0.6,4.1-1.7c1-1.2,1.4-2.8,1.4-4.9c0-2.1-0.5-3.8-1.4-5
		S55.2,14.4,53.4,14.4z"/>
	<path class="st2" d="M80.9,28.3c0,6.3-3,9.5-9.1,9.5c-2.1,0-4-0.4-5.6-1.2v-2.8c1.9,1.1,3.8,1.6,5.5,1.6c4.2,0,6.3-2.3,6.3-6.8
		v-1.9H78C76.7,29,74.8,30,72.1,30c-2.1,0-3.9-0.8-5.2-2.3c-1.3-1.5-2-3.6-2-6.2c0-2.9,0.7-5.2,2.1-7c1.4-1.7,3.3-2.6,5.8-2.6
		c2.3,0,4,0.9,5.2,2.8h0.1v-2.4h2.8V28.3z M78.1,21.9v-2.5c0-1.4-0.5-2.5-1.4-3.5c-0.9-1-2.1-1.5-3.5-1.5c-1.7,0-3,0.6-4,1.9
		c-1,1.2-1.4,3-1.4,5.2c0,1.9,0.5,3.4,1.4,4.6c0.9,1.1,2.1,1.7,3.7,1.7c1.5,0,2.8-0.5,3.8-1.6C77.6,25,78.1,23.6,78.1,21.9z"/>
	<path class="st2" d="M99.1,29.6h-2.8V5.6h2.8V29.6z"/>
	<path class="st2" d="M119.3,29.6h-2.8v-9.8c0-3.6-1.3-5.5-4-5.5c-1.4,0-2.5,0.5-3.4,1.6c-0.9,1-1.4,2.3-1.4,3.9v9.8H105V12.5h2.8
		v2.9h0.1c1.3-2.2,3.2-3.3,5.6-3.3c1.9,0,3.3,0.6,4.3,1.8s1.5,3,1.5,5.3V29.6z"/>
</g>
<g id="icon">
	<path class="st2" d="M16.2,23.5L11,19.6c-0.1-0.1-0.4,0-0.4,0.2v1.8c0,0.1-0.1,0.2-0.2,0.2H8.9v1.3H7v-1.3H3.2v2.3h1.3v1.4h5.9
		c0.1,0,0.2,0.1,0.2,0.2v1.8c0,0.2,0.2,0.3,0.4,0.2l0.5-0.4v-1.2H13l3.2-2.3C16.3,23.7,16.3,23.5,16.2,23.5z"/>
	<rect x="1.9" y="19.3" class="st2" width="0.7" height="0.7"/>
	<rect x="20.6" y="28.2" class="st2" width="0.4" height="0.4"/>
	<rect x="17.4" y="16.7" class="st2" width="0.6" height="0.6"/>
	<path class="st2" d="M19.5,26.1v-5.5c0-1.7-1.3-3-3-3h-3.1l0-3.1c2.6-0.9,4.5-3.3,4.5-6.2c0-1.6-0.6-3.1-1.5-4.2h-1.8V2.6
		c-1-0.6-2.1-0.9-3.3-0.9c-3.6,0-6.6,2.9-6.6,6.6c0,2.9,1.9,5.3,4.5,6.2l0,3.1H6.1c-0.3,0-0.6,0-0.9,0.1v0.8H4
		c-0.5,0.5-0.8,1.3-0.8,2.1v0.6h6.4c0.2,0,0.3-0.1,0.3-0.3v-2.3c0-0.2,0.3-0.4,0.4-0.2l3,2.3h1.3v1l2.4,1.8c0.1,0.1,0.1,0.3,0,0.5
		l-6.7,5c-0.2,0.1-0.4,0-0.4-0.2v-2.3c0-0.2-0.1-0.3-0.3-0.3H3.2v3.4h16.4v-2.1h-0.6v-1.3C18.9,26.1,19.5,26.1,19.5,26.1z"/>
	<rect x="3.7" y="6.1" class="st2" width="0.6" height="0.6"/>
	<rect x="18.3" y="10" class="st2" width="0.9" height="0.9"/>
</g>
</svg>
