<?xml version="1.0" encoding="utf-8"?>
<!-- Generator: Adobe Illustrator 23.0.1, SVG Export Plug-In . SVG Version: 6.00 Build 0)  -->
<svg version="1.1" id="Layer_1" xmlns="http://www.w3.org/2000/svg" xmlns:xlink="http://www.w3.org/1999/xlink" x="0px" y="0px"
	 viewBox="0 0 151.8 38" style="enable-background:new 0 0 151.8 38;" xml:space="preserve">
<style type="text/css">
	.st0{display:none;}
	.st1{enable-background:new    ;}
	.st2{fill:#FFFFFF;}
</style>
<rect class="st0" width="151.8" height="38"/>
<g class="st1">
	<path class="st2" d="M42.7,29.6H30.2V5.6h2.8v21.5h9.7V29.6z"/>
	<path class="st2" d="M53.2,30c-2.5,0-4.6-0.8-6.1-2.4c-1.5-1.6-2.3-3.7-2.3-6.4c0-2.9,0.8-5.1,2.4-6.8c1.6-1.6,3.7-2.4,6.4-2.4
		c2.6,0,4.6,0.8,6,2.4c1.4,1.6,2.2,3.8,2.2,6.6c0,2.7-0.8,4.9-2.3,6.6S55.8,30,53.2,30z M53.4,14.4c-1.8,0-3.2,0.6-4.2,1.8
		s-1.5,2.9-1.5,5c0,2,0.5,3.6,1.6,4.8c1,1.2,2.4,1.8,4.2,1.8c1.8,0,3.1-0.6,4.1-1.7c1-1.2,1.4-2.8,1.4-4.9c0-2.1-0.5-3.8-1.4-5
		S55.2,14.4,53.4,14.4z"/>
	<path class="st2" d="M80.9,28.3c0,6.3-3,9.5-9.1,9.5c-2.1,0-4-0.4-5.6-1.2v-2.8c1.9,1.1,3.8,1.6,5.5,1.6c4.2,0,6.3-2.3,6.3-6.8
		v-1.9H78C76.7,29,74.8,30,72.1,30c-2.1,0-3.9-0.8-5.2-2.3c-1.3-1.5-2-3.6-2-6.2c0-2.9,0.7-5.2,2.1-7s3.3-2.6,5.8-2.6
		c2.3,0,4,0.9,5.2,2.8h0.1v-2.4h2.8V28.3z M78.1,21.9v-2.5c0-1.4-0.5-2.5-1.4-3.5s-2.1-1.5-3.5-1.5c-1.7,0-3,0.6-4,1.9
		c-1,1.2-1.4,3-1.4,5.2c0,1.9,0.5,3.4,1.4,4.6s2.1,1.7,3.7,1.7c1.5,0,2.8-0.5,3.8-1.6C77.6,25,78.1,23.6,78.1,21.9z"/>
	<path class="st2" d="M105.9,30c-3.4,0-6.1-1.1-8.2-3.4s-3.1-5.2-3.1-8.8c0-3.9,1-7,3.1-9.3c2.1-2.3,4.9-3.5,8.5-3.5
		c3.3,0,6,1.1,8,3.4c2,2.2,3,5.2,3,8.8c0,3.9-1,7-3.1,9.3C112.2,28.9,109.4,30,105.9,30z M106.1,7.7c-2.5,0-4.6,0.9-6.2,2.7
		c-1.6,1.8-2.4,4.2-2.4,7.2c0,3,0.8,5.4,2.3,7.2s3.5,2.7,6,2.7c2.6,0,4.7-0.9,6.2-2.6c1.5-1.7,2.3-4.1,2.3-7.2
		c0-3.2-0.7-5.6-2.2-7.4C110.8,8.6,108.7,7.7,106.1,7.7z"/>
	<path class="st2" d="M135.7,29.6h-2.8v-2.7h-0.1c-1.1,2.1-2.9,3.1-5.3,3.1c-4.1,0-6.1-2.4-6.1-7.3V12.5h2.7v9.8
		c0,3.6,1.4,5.4,4.2,5.4c1.3,0,2.4-0.5,3.3-1.5c0.9-1,1.3-2.3,1.3-3.9v-9.9h2.8V29.6z"/>
	<path class="st2" d="M149.2,29.5c-0.6,0.4-1.5,0.5-2.6,0.5c-3,0-4.5-1.7-4.5-5V14.8h-3v-2.4h3V8.3l2.8-0.9v5.1h4.3v2.4h-4.3v9.7
		c0,1.2,0.2,2,0.6,2.5c0.4,0.5,1,0.7,1.9,0.7c0.7,0,1.3-0.2,1.8-0.6V29.5z"/>
</g>
<g id="icon">
	<path class="st2" d="M6.7,23.5l5.2-3.8c0.1-0.1,0.4,0,0.4,0.2v1.8c0,0.1,0.1,0.2,0.2,0.2h1.5v1.3h1.9v-1.3h3.9v2.3h-1.3v1.4h-5.9
		c-0.1,0-0.2,0.1-0.2,0.2v1.8c0,0.2-0.2,0.3-0.4,0.2l-0.5-0.4v-1.2H9.8l-3.2-2.3C6.5,23.7,6.5,23.5,6.7,23.5z"/>
	<rect x="20.3" y="19.3" class="st2" width="0.7" height="0.7"/>
	<rect x="1.9" y="28.2" class="st2" width="0.4" height="0.4"/>
	<rect x="4.8" y="16.7" class="st2" width="0.6" height="0.6"/>
	<path class="st2" d="M3.3,26.1v-5.5c0-1.7,1.3-3,3-3h3.1l0-3.1c-2.6-0.9-4.5-3.3-4.5-6.2c0-1.6,0.6-3.1,1.5-4.2h1.8V2.6
		c1-0.6,2.1-0.9,3.3-0.9c3.6,0,6.6,2.9,6.6,6.6c0,2.9-1.9,5.3-4.5,6.2l0,3.1h3.1c0.3,0,0.6,0,0.9,0.1v0.8h1.3
		c0.5,0.5,0.8,1.3,0.8,2.1v0.6h-6.4c-0.2,0-0.3-0.1-0.3-0.3v-2.3c0-0.2-0.3-0.4-0.4-0.2l-3,2.3H8.2v1l-2.4,1.8
		c-0.2,0.1-0.2,0.3,0,0.5l6.7,5c0.2,0.1,0.4,0,0.4-0.2v-2.3c0-0.2,0.1-0.3,0.3-0.3h6.5v3.4H3.3v-2.1h0.6v-1.3L3.3,26.1L3.3,26.1z"/>
	<rect x="18.5" y="6.1" class="st2" width="0.6" height="0.6"/>
	<rect x="3.7" y="10" class="st2" width="0.9" height="0.9"/>
</g>
</svg>
