<svg id="Layer_1" data-name="Layer 1" xmlns="http://www.w3.org/2000/svg" xmlns:xlink="http://www.w3.org/1999/xlink" viewBox="0 0 263.32 63.91"><defs><style>.cls-1{fill:#004f39;}.cls-2{fill:#231f20;}.cls-3{fill:#939598;}.cls-4{fill:url(#New_Gradient_Swatch_1);}</style><linearGradient id="New_Gradient_Swatch_1" x1="433.49" y1="339.2" x2="433.49" y2="299.54" gradientUnits="userSpaceOnUse"><stop offset="0" stop-color="#004f39"/><stop offset="0.04" stop-color="#075539"/><stop offset="0.37" stop-color="#40853c"/><stop offset="0.65" stop-color="#6aa83e"/><stop offset="0.87" stop-color="#84be3f"/><stop offset="1" stop-color="#8dc63f"/></linearGradient></defs><title>SI Vector</title><path class="cls-1" d="M317.29,282.07s-3.32,7.12-5,10.66c-8.26-3.8-19.1-4.35-28.2,1-6.07,3.71-11,10.3-11.47,17.38-.17,4.72,1.88,9.89,1.21,14.61A17.84,17.84,0,0,1,271.9,333c-1.52,2.53-3.34,4.72-6.37,4.89.67-.84,5.36-3.16,3.51-13.77-.73-4.2-6.51-14.64-.92-27.72C273.22,284.48,295.3,270.33,317.29,282.07Z" transform="translate(-265.53 -277.67)"/><path class="cls-1" d="M292,303a16.53,16.53,0,0,1,9.1-.38,15.52,15.52,0,0,1,12.11,9.61c2.19,5.37,3.76,9.71,7.52,14.3a40.45,40.45,0,0,1-5.85-1c1.46-10.65-8.61-11.09-11.38-7.1a10.05,10.05,0,0,0,8.46,3c-.59,10.57,2.36,20.17,2.19,20.15-2.4-.33-13.39-6.8-16.61-9.61-4.72.85-8.41,2.59-13.88,3.35-.17,0,1-4,.83-6.06,0-5.56-4.26-10.78-1.24-17.61C285.05,307.55,287.78,304.53,292,303Z" transform="translate(-265.53 -277.67)"/><path class="cls-1" d="M296,299.8c.32,0,.81.08.82.05a8.25,8.25,0,0,1,2.64-4.93,9.09,9.09,0,0,1,5.75-1.95,24.62,24.62,0,0,0-9-.87Z" transform="translate(-265.53 -277.67)"/><path class="cls-1" d="M275.12,309.4a27.27,27.27,0,0,0-.26,7.67,9.23,9.23,0,0,1,2-4.21,5.48,5.48,0,0,1,3.65-1.56,10.63,10.63,0,0,0,.27-1Z" transform="translate(-265.53 -277.67)"/><path class="cls-1" d="M281.46,308.81c.17-.42.37-.79.61-1.28l-5.81-2.25a11.81,11.81,0,0,0-.77,2.4Z" transform="translate(-265.53 -277.67)"/><path class="cls-1" d="M282.87,306.59s.93-1.19.95-1.18l-5.33-4a10.38,10.38,0,0,0-1.37,2.28Z" transform="translate(-265.53 -277.67)"/><path class="cls-1" d="M284.85,304.41l1.19-1.08-4.62-5.25a13.29,13.29,0,0,0-2,2.08Z" transform="translate(-265.53 -277.67)"/><path class="cls-1" d="M287.25,302.59a8.9,8.9,0,0,0,1.36-.8l-3.43-6.25a15.67,15.67,0,0,0-2.54,1.59Z" transform="translate(-265.53 -277.67)"/><path class="cls-1" d="M289.79,301.2a11.26,11.26,0,0,1,1.64-.54l-1.95-7a16.25,16.25,0,0,0-2.9,1.18Z" transform="translate(-265.53 -277.67)"/><path class="cls-1" d="M292.69,300.25c.06,0,1.48-.31,1.5-.31l.18-7.61c-.06.06-1.77.32-3.22.72Z" transform="translate(-265.53 -277.67)"/><path class="cls-2" d="M339.09,302.57c.61,2.31,2.34,3.53,5,3.53s4.06-1.51,4.06-3.82c0-2.51-1.9-3.13-4.57-4.42-4.57-2.23-7.09-4-7.09-7.85,0-4.14,3.06-7.06,7.74-7.06,3.82,0,6.44,1.55,7.42,4.25l-3.28,1.69a4.3,4.3,0,0,0-3.81-2.34c-2.27,0-3.68,1.3-3.68,3.24,0,2.49,2,3.24,4.9,4.57,4.53,2.09,6.66,3.93,6.66,7.64,0,4.78-3.2,7.95-8.53,7.95-4.39,0-7.27-2.09-8.14-5.83Z" transform="translate(-265.53 -277.67)"/><path class="cls-2" d="M360.91,309.27H357V283.53h6.34c2.62,0,4.71.07,6.44,1.33a7.74,7.74,0,0,1,0,11.56c-1.73,1.22-3.82,1.29-6.44,1.29h-2.41Zm1.33-15c3.85,0,5.79-.43,5.79-3.42s-1.91-3.74-5.79-3.74h-1.08v7.16Z" transform="translate(-265.53 -277.67)"/><path class="cls-2" d="M386.73,299.15l-2.63-5.86a24.56,24.56,0,0,1-1-2.92,19.43,19.43,0,0,1-.94,2.92l-2.62,5.86-1.55,3.5-3,6.62h-4.39l12.45-26.75,12.46,26.75h-4.43l-2.92-6.62Z" transform="translate(-265.53 -277.67)"/><path class="cls-2" d="M401.88,309.27H398V283.53h5.83c2.77,0,4.83.22,6.41,1.44a7,7,0,0,1,2.48,5.65c0,4.14-2,6.48-5.9,6.95l8.85,11.7h-4.71l-8.57-11.52h-.47Zm1-14.76c3.67,0,5.51-.43,5.51-3.53s-1.76-3.85-5.51-3.85h-.75v7.38Z" transform="translate(-265.53 -277.67)"/><path class="cls-2" d="M426.44,309.27h-4.18V287.09h-6.84v-3.56h17.82v3.56h-6.8Z" transform="translate(-265.53 -277.67)"/><path class="cls-2" d="M457.6,282.52,474,298.25a32.54,32.54,0,0,1,2.8,3.13V283.53h3.86v26.75l-16.67-16a20.23,20.23,0,0,1-2.48-2.88v17.89H457.6Z" transform="translate(-265.53 -277.67)"/><path class="cls-3" d="M336.62,319.25h3.25v20h-3.25Z" transform="translate(-265.53 -277.67)"/><path class="cls-3" d="M345.1,318.46l12.71,12.24a23.55,23.55,0,0,1,2.19,2.43V319.25h3v20.8l-13-12.46a16.13,16.13,0,0,1-1.93-2.24v13.92h-3Z" transform="translate(-265.53 -277.67)"/><path class="cls-3" d="M367.59,318.46,380.3,330.7a24.65,24.65,0,0,1,2.18,2.43V319.25h3v20.8l-13-12.46a16.83,16.83,0,0,1-1.93-2.24v13.92h-3Z" transform="translate(-265.53 -277.67)"/><path class="cls-3" d="M408,336.72a10.86,10.86,0,0,1-15.15,0,10.14,10.14,0,0,1-3.11-7.42,10.26,10.26,0,0,1,3.11-7.45,10.93,10.93,0,0,1,15.15,0,10.33,10.33,0,0,1,3.13,7.45A10.16,10.16,0,0,1,408,336.72ZM405.61,324a7.09,7.09,0,0,0-5.15-2.19,7.21,7.21,0,0,0-5.18,2.19,7.67,7.67,0,0,0,0,10.61,7.19,7.19,0,0,0,10.33,0,7.59,7.59,0,0,0,0-10.61Z" transform="translate(-265.53 -277.67)"/><path class="cls-3" d="M440.94,331.4l-2-4.57a17.57,17.57,0,0,1-.76-2.26,15.69,15.69,0,0,1-.72,2.26l-2.05,4.57-1.2,2.72-2.33,5.15h-3.41l9.68-20.81,9.69,20.81h-3.44l-2.27-5.15Z" transform="translate(-265.53 -277.67)"/><path class="cls-3" d="M454.59,339.27h-3.25V322H446v-2.77h13.86V322h-5.29Z" transform="translate(-265.53 -277.67)"/><path class="cls-3" d="M462.43,319.25h3.24v20h-3.24Z" transform="translate(-265.53 -277.67)"/><path class="cls-3" d="M487.74,336.72a10.86,10.86,0,0,1-15.15,0,10.14,10.14,0,0,1-3.11-7.42,10.26,10.26,0,0,1,3.11-7.45,10.93,10.93,0,0,1,15.15,0,10.34,10.34,0,0,1,3.14,7.45A10.17,10.17,0,0,1,487.74,336.72ZM485.33,324a7.09,7.09,0,0,0-5.15-2.19A7.21,7.21,0,0,0,475,324a7.67,7.67,0,0,0,0,10.61,7.19,7.19,0,0,0,10.33,0,7.59,7.59,0,0,0,0-10.61Z" transform="translate(-265.53 -277.67)"/><path class="cls-3" d="M494.6,318.46l12.71,12.24a26.11,26.11,0,0,1,2.19,2.43V319.25h3v20.8l-13-12.46a16.21,16.21,0,0,1-1.94-2.24v13.92h-3Z" transform="translate(-265.53 -277.67)"/><path class="cls-3" d="M518.49,334a3.6,3.6,0,0,0,3.86,2.74,2.87,2.87,0,0,0,3.17-3c0-2-1.49-2.43-3.56-3.44-3.55-1.74-5.51-3.08-5.51-6.1,0-3.22,2.38-5.49,6-5.49,3,0,5,1.2,5.76,3.3l-2.54,1.32a3.36,3.36,0,0,0-3-1.82c-1.77,0-2.86,1-2.86,2.52,0,1.93,1.57,2.52,3.81,3.55,3.53,1.63,5.18,3.06,5.18,5.94,0,3.72-2.49,6.19-6.64,6.19-3.41,0-5.65-1.63-6.32-4.54Z" transform="translate(-265.53 -277.67)"/><path class="cls-4" d="M442.74,282.52l-11.82,26.75h0l-9.11,20.65a21.46,21.46,0,0,0-1.1,3.21,16.73,16.73,0,0,0-1.06-3.21l-4.48-10.67h-3.39l8.93,20.8,14-30.78,3-6.62,1.55-3.5,2.63-5.86a20.87,20.87,0,0,0,.93-2.92,24.25,24.25,0,0,0,1,2.92l2.62,5.86,1.48,3.5,2.91,6.62h4.43Z" transform="translate(-265.53 -277.67)"/><path class="cls-1" d="M315.23,338h1.64v.26h-.68v2.34h-.29v-2.34h-.67Z" transform="translate(-265.53 -277.67)"/><path class="cls-1" d="M318.85,338h.51v2.6h-.29v-2.14c0-.11,0-.22,0-.33h0c0,.15-.05.25-.08.35l-.54,2.12h-.35l-.54-2.15a3,3,0,0,1-.08-.32h0c0,.11,0,.22,0,.33v2.14h-.29V338h.51l.51,2a1.89,1.89,0,0,1,.06.39h0a2.63,2.63,0,0,1,.06-.39Z" transform="translate(-265.53 -277.67)"/></svg>